SplineFontDB: 3.2
FontName: Multivers-Italic
FullName: Multivers Italic
FamilyName: Multivers
Weight: Book
Version: 1.000
ItalicAngle: -13
UnderlinePosition: -199
UnderlineWidth: 38
Ascent: 800
Descent: 200
InvalidEm: 0
sfntRevision: 0x00010000
LayerCount: 2
Layer: 0 1 "Back" 1
Layer: 1 1 "Fore" 0
XUID: [1021 123 1656631536 9005984]
StyleMap: 0x0001
FSType: 0
OS2Version: 4
OS2_WeightWidthSlopeOnly: 0
OS2_UseTypoMetrics: 0
CreationTime: 1659194366
ModificationTime: 1738855031
PfmFamily: 81
TTFWeight: 400
TTFWidth: 5
LineGap: 0
VLineGap: 0
Panose: 0 0 0 0 0 0 0 0 0 0
OS2TypoAscent: 970
OS2TypoAOffset: 0
OS2TypoDescent: -250
OS2TypoDOffset: 0
OS2TypoLinegap: 0
OS2WinAscent: 986
OS2WinAOffset: 0
OS2WinDescent: 350
OS2WinDOffset: 0
HheadAscent: 970
HheadAOffset: 0
HheadDescent: -250
HheadDOffset: 0
OS2SubXSize: 650
OS2SubYSize: 600
OS2SubXOff: -17
OS2SubYOff: 75
OS2SupXSize: 650
OS2SupYSize: 600
OS2SupXOff: 81
OS2SupYOff: 350
OS2StrikeYSize: 38
OS2StrikeYPos: 301
OS2CapHeight: 720
OS2XHeight: 510
OS2Vendor: 'NONE'
OS2CodePages: 00000093.00000000
OS2UnicodeRanges: a000006f.0000006a.00000000.00000000
Lookup: 1 0 0 "'aalt' Access All Alternates in Latin lookup 0" { "'aalt' Access All Alternates in Latin lookup 0 subtable"  } ['aalt' ('DFLT' <'dflt' > 'latn' <'AZE ' 'CAT ' 'CRT ' 'KAZ ' 'MOL ' 'ROM ' 'TAT ' 'TRK ' 'dflt' > ) ]
Lookup: 3 0 0 "'aalt' Access All Alternates in Latin lookup 1" { "'aalt' Access All Alternates in Latin lookup 1 subtable"  } ['aalt' ('DFLT' <'dflt' > 'latn' <'AZE ' 'CAT ' 'CRT ' 'KAZ ' 'MOL ' 'ROM ' 'TAT ' 'TRK ' 'dflt' > ) ]
Lookup: 6 0 0 "'ccmp' Glyph Composition/Decomposition in Latin lookup 2" { "'ccmp' Glyph Composition/Decomposition in Latin lookup 2 subtable"  } ['ccmp' ('DFLT' <'dflt' > 'latn' <'AZE ' 'CAT ' 'CRT ' 'KAZ ' 'MOL ' 'ROM ' 'TAT ' 'TRK ' 'dflt' > ) ]
Lookup: 1 0 0 "Single Substitution lookup 3" { "Single Substitution lookup 3 subtable"  } []

StartChar: .notdef
Encoding: 65536 -1 0
Width: 632
GlyphClass: 1
Flags: W
LayerCount: 2
Fore
SplineSet
24 0 m 1,0,-1
 189 720 l 1,1,-1
 656 720 l 1,2,-1
 491 0 l 1,3,-1
 24 0 l 1,0,-1
119 70 m 1,4,-1
 428 70 l 1,5,-1
 562 651 l 1,6,-1
 253 651 l 1,7,-1
 119 70 l 1,4,-1
EndSplineSet
EndChar

StartChar: A
Encoding: 65 65 1
Width: 658
GlyphClass: 2
Flags: W
AnchorPoint: "Anchor-3" 566 0 basechar 0
AnchorPoint: "Anchor-2" 274 0 basechar 0
AnchorPoint: "Anchor-0" 429 720 basechar 0
LayerCount: 2
Fore
SplineSet
-26 0 m 1,0,-1
 386 720 l 1,1,-1
 459 720 l 1,2,-1
 55 0 l 1,3,-1
 -26 0 l 1,0,-1
489 0 m 1,4,-1
 414 720 l 1,5,-1
 483 720 l 1,6,-1
 566 0 l 1,7,-1
 489 0 l 1,4,-1
163 287 m 1,8,-1
 504 287 l 1,9,-1
 489 218 l 1,10,-1
 148 218 l 1,11,-1
 163 287 l 1,8,-1
EndSplineSet
Substitution2: "Single Substitution lookup 17 subtable" ordfeminine
Substitution2: "'aalt' Access All Alternates in Latin lookup 0 subtable" ordfeminine
EndChar

StartChar: AE
Encoding: 198 198 12
Width: 868
GlyphClass: 1
Flags: W
LayerCount: 2
Fore
SplineSet
-26 0 m 1,0,-1
 385 720 l 1,1,-1
 460 720 l 1,2,-1
 55 0 l 1,3,-1
 -26 0 l 1,0,-1
376 0 m 1,4,-1
 540 720 l 1,5,-1
 619 720 l 1,6,-1
 455 0 l 1,7,-1
 376 0 l 1,4,-1
418 0 m 1,8,-1
 434 70 l 1,9,-1
 759 70 l 1,10,-1
 744 0 l 1,11,-1
 418 0 l 1,8,-1
222 340 m 1,12,-1
 238 410 l 1,13,-1
 805 410 l 1,14,-1
 789 340 l 1,15,-1
 222 340 l 1,12,-1
391 651 m 1,16,-1
 406 720 l 1,17,-1
 900 720 l 1,18,-1
 884 651 l 1,19,-1
 391 651 l 1,16,-1
EndSplineSet
EndChar

StartChar: B
Encoding: 66 66 13
Width: 585
GlyphClass: 1
Flags: W
LayerCount: 2
Fore
SplineSet
76 0 m 1,0,-1
 91 66 l 1,1,-1
 284 66 l 2,2,3
 335 66 335 66 372.5 85.5 c 128,-1,4
 410 105 410 105 431 141.5 c 128,-1,5
 452 178 452 178 452 225 c 0,6,7
 452 281 452 281 422 313 c 128,-1,8
 392 345 392 345 340 345 c 2,9,-1
 156 345 l 1,10,-1
 170 409 l 1,11,-1
 350 409 l 2,12,13
 399 409 399 409 436 427.5 c 128,-1,14
 473 446 473 446 493 478 c 128,-1,15
 513 510 513 510 513 553 c 0,16,17
 513 601 513 601 485.5 628 c 128,-1,18
 458 655 458 655 409 655 c 2,19,-1
 225 655 l 1,20,-1
 240 720 l 1,21,-1
 423 720 l 2,22,23
 500 720 500 720 546.5 676 c 128,-1,24
 593 632 593 632 593 559 c 0,25,26
 593 514 593 514 575 476.5 c 128,-1,27
 557 439 557 439 526.5 412.5 c 128,-1,28
 496 386 496 386 457 373 c 128,-1,29
 418 360 418 360 374 364 c 1,30,-1
 383 385 l 1,31,32
 453 378 453 378 493 333 c 128,-1,33
 533 288 533 288 533 218 c 0,34,35
 533 154 533 154 501 104.5 c 128,-1,36
 469 55 469 55 411.5 27.5 c 128,-1,37
 354 0 354 0 278 0 c 2,38,-1
 76 0 l 1,0,-1
24 0 m 1,39,-1
 189 720 l 1,40,-1
 268 720 l 1,41,-1
 103 0 l 1,42,-1
 24 0 l 1,39,-1
EndSplineSet
EndChar

StartChar: C
Encoding: 67 67 14
Width: 671
GlyphClass: 2
Flags: W
AnchorPoint: "Anchor-2" 304 0 basechar 0
AnchorPoint: "Anchor-0" 440 720 basechar 0
LayerCount: 2
Fore
SplineSet
323 -10 m 0,0,1
 246 -10 246 -10 189 25.5 c 128,-1,2
 132 61 132 61 101 124.5 c 128,-1,3
 70 188 70 188 70 275 c 0,4,5
 70 334 70 334 83 390 c 128,-1,6
 96 446 96 446 120.5 497 c 128,-1,7
 145 548 145 548 179.5 590.5 c 128,-1,8
 214 633 214 633 255.5 664.5 c 128,-1,9
 297 696 297 696 345 713 c 128,-1,10
 393 730 393 730 446 730 c 0,11,12
 505 730 505 730 551 709 c 128,-1,13
 597 688 597 688 627.5 650.5 c 128,-1,14
 658 613 658 613 671 564.5 c 128,-1,15
 684 516 684 516 678 461 c 1,16,-1
 599 461 l 1,17,18
 603 502 603 502 595 538 c 128,-1,19
 587 574 587 574 567.5 601 c 128,-1,20
 548 628 548 628 516 643 c 128,-1,21
 484 658 484 658 440 658 c 0,22,23
 391 658 391 658 347 637.5 c 128,-1,24
 303 617 303 617 267 580 c 128,-1,25
 231 543 231 543 205 495 c 128,-1,26
 179 447 179 447 164.5 391 c 128,-1,27
 150 335 150 335 150 277 c 0,28,29
 150 174 150 174 197.5 118 c 128,-1,30
 245 62 245 62 330 62 c 0,31,32
 411 62 411 62 468.5 113 c 128,-1,33
 526 164 526 164 553 259 c 1,34,-1
 632 259 l 1,35,36
 609 174 609 174 564 113.5 c 128,-1,37
 519 53 519 53 457.5 21.5 c 128,-1,38
 396 -10 396 -10 323 -10 c 0,0,1
EndSplineSet
EndChar

StartChar: D
Encoding: 68 68 19
Width: 688
GlyphClass: 2
Flags: W
AnchorPoint: "Anchor-2" 291 0 basechar 0
AnchorPoint: "Anchor-0" 434 720 basechar 0
LayerCount: 2
Fore
SplineSet
73 0 m 1,0,-1
 88 71 l 1,1,-1
 284 71 l 2,2,3
 349 71 349 71 404.5 99.5 c 128,-1,4
 460 128 460 128 501 177 c 128,-1,5
 542 226 542 226 565 289 c 128,-1,6
 588 352 588 352 588 421 c 0,7,8
 588 491 588 491 565 542.5 c 128,-1,9
 542 594 542 594 498.5 622.5 c 128,-1,10
 455 651 455 651 393 651 c 2,11,-1
 219 651 l 1,12,-1
 235 720 l 1,13,-1
 403 720 l 2,14,15
 484 720 484 720 543.5 683 c 128,-1,16
 603 646 603 646 636 581 c 128,-1,17
 669 516 669 516 669 429 c 0,18,19
 669 344 669 344 639 266.5 c 128,-1,20
 609 189 609 189 556 129.5 c 128,-1,21
 503 70 503 70 432 35 c 128,-1,22
 361 0 361 0 280 0 c 2,23,-1
 73 0 l 1,0,-1
24 0 m 1,24,-1
 189 720 l 1,25,-1
 268 720 l 1,26,-1
 103 0 l 1,27,-1
 24 0 l 1,24,-1
EndSplineSet
EndChar

StartChar: Eth
Encoding: 208 208 20
Width: 688
GlyphClass: 2
Flags: W
AnchorPoint: "Anchor-2" 291 0 basechar 0
AnchorPoint: "Anchor-0" 434 720 basechar 0
LayerCount: 2
Fore
SplineSet
17 327 m 1,0,-1
 32 393 l 1,1,-1
 382 393 l 1,2,-1
 366 327 l 1,3,-1
 17 327 l 1,0,-1
73 0 m 1,4,-1
 88 71 l 1,5,-1
 284 71 l 2,6,7
 349 71 349 71 404.5 99.5 c 128,-1,8
 460 128 460 128 501 177 c 128,-1,9
 542 226 542 226 565 289 c 128,-1,10
 588 352 588 352 588 421 c 0,11,12
 588 491 588 491 565 542.5 c 128,-1,13
 542 594 542 594 498.5 622.5 c 128,-1,14
 455 651 455 651 393 651 c 2,15,-1
 219 651 l 1,16,-1
 235 720 l 1,17,-1
 403 720 l 2,18,19
 484 720 484 720 543.5 683 c 128,-1,20
 603 646 603 646 636 581 c 128,-1,21
 669 516 669 516 669 429 c 0,22,23
 669 344 669 344 639 266.5 c 128,-1,24
 609 189 609 189 556 129.5 c 128,-1,25
 503 70 503 70 432 35 c 128,-1,26
 361 0 361 0 280 0 c 2,27,-1
 73 0 l 1,4,-1
24 0 m 1,28,-1
 189 720 l 1,29,-1
 268 720 l 1,30,-1
 103 0 l 1,31,-1
 24 0 l 1,28,-1
EndSplineSet
EndChar

StartChar: E
Encoding: 69 69 23
Width: 582
GlyphClass: 2
Flags: W
AnchorPoint: "Anchor-3" 426 0 basechar 0
AnchorPoint: "Anchor-2" 232 0 basechar 0
AnchorPoint: "Anchor-0" 408 720 basechar 0
LayerCount: 2
Fore
SplineSet
23 0 m 1,0,-1
 189 720 l 1,1,-1
 268 720 l 1,2,-1
 102 0 l 1,3,-1
 23 0 l 1,0,-1
65 0 m 1,4,-1
 81 70 l 1,5,-1
 474 70 l 1,6,-1
 458 0 l 1,7,-1
 65 0 l 1,4,-1
143 340 m 1,8,-1
 159 410 l 1,9,-1
 520 410 l 1,10,-1
 504 340 l 1,11,-1
 143 340 l 1,8,-1
215 651 m 1,12,-1
 231 720 l 1,13,-1
 616 720 l 1,14,-1
 600 651 l 1,15,-1
 215 651 l 1,12,-1
EndSplineSet
EndChar

StartChar: F
Encoding: 70 70 32
Width: 547
GlyphClass: 1
Flags: W
LayerCount: 2
Fore
SplineSet
24 0 m 1,0,-1
 189 720 l 1,1,-1
 268 720 l 1,2,-1
 103 0 l 1,3,-1
 24 0 l 1,0,-1
136 310 m 1,4,-1
 153 380 l 1,5,-1
 498 380 l 1,6,-1
 481 310 l 1,7,-1
 136 310 l 1,4,-1
215 651 m 1,8,-1
 231 720 l 1,9,-1
 600 720 l 1,10,-1
 584 651 l 1,11,-1
 215 651 l 1,8,-1
EndSplineSet
EndChar

StartChar: G
Encoding: 71 71 33
Width: 694
GlyphClass: 2
Flags: W
AnchorPoint: "Anchor-2" 329 0 basechar 0
AnchorPoint: "Anchor-0" 461 720 basechar 0
LayerCount: 2
Fore
SplineSet
351 -10 m 0,0,1
 272 -10 272 -10 200.5 25.5 c 128,-1,2
 129 61 129 61 97.5 125 c 128,-1,3
 66 189 66 189 66 276 c 0,4,5
 66 346 66 346 85 412.5 c 128,-1,6
 104 479 104 479 138.5 536.5 c 128,-1,7
 173 594 173 594 220 637.5 c 128,-1,8
 267 681 267 681 322.5 705.5 c 128,-1,9
 378 730 378 730 440 730 c 0,10,11
 499 730 499 730 543.5 711 c 128,-1,12
 588 692 588 692 618 658.5 c 128,-1,13
 648 625 648 625 663 582 c 128,-1,14
 678 539 678 539 677 491 c 1,15,-1
 598 491 l 1,16,17
 597 526 597 526 586.5 556 c 128,-1,18
 576 586 576 586 556 609 c 128,-1,19
 536 632 536 632 506 645 c 128,-1,20
 476 658 476 658 436 658 c 0,21,22
 387 658 387 658 343.5 637.5 c 128,-1,23
 300 617 300 617 263.5 580 c 128,-1,24
 227 543 227 543 201 495 c 128,-1,25
 175 447 175 447 161 391 c 128,-1,26
 147 335 147 335 147 277 c 0,27,28
 147 174 147 174 208 118 c 128,-1,29
 269 62 269 62 357 62 c 4,30,31
 474 62 474 62 520.395507812 95.94921875 c 1,32,-1
 560.906779661 309 l 1,33,-1
 385 309 l 1,34,-1
 403 379 l 1,35,-1
 657 379 l 1,36,-1
 593 52 l 1,37,38
 515 -10 515 -10 351 -10 c 0,0,1
EndSplineSet
Substitution2: "'ss07' Style Set 7 in Latin lookup 28 subtable" G.ss07
Substitution2: "'aalt' Access All Alternates in Latin lookup 0 subtable" G.ss07
EndChar

StartChar: H
Encoding: 72 72 37
Width: 677
GlyphClass: 2
Flags: W
AnchorPoint: "Anchor-2" 284 0 basechar 0
AnchorPoint: "Anchor-0" 449 720 basechar 0
LayerCount: 2
Fore
SplineSet
24 0 m 1,0,-1
 189 720 l 1,1,-1
 268 720 l 1,2,-1
 103 0 l 1,3,-1
 24 0 l 1,0,-1
457 0 m 1,4,-1
 622 720 l 1,5,-1
 701 720 l 1,6,-1
 536 0 l 1,7,-1
 457 0 l 1,4,-1
160 410 m 1,8,-1
 585 410 l 1,9,-1
 570 340 l 1,10,-1
 144 340 l 1,11,-1
 160 410 l 1,8,-1
EndSplineSet
EndChar

StartChar: Hbar
Encoding: 294 294 38
Width: 677
GlyphClass: 2
Flags: W
AnchorPoint: "Anchor-2" 284 0 basechar 0
AnchorPoint: "Anchor-0" 449 720 basechar 0
LayerCount: 2
Fore
SplineSet
67 542 m 1,0,-1
 82 608 l 1,1,-1
 759 608 l 1,2,-1
 743 542 l 1,3,-1
 67 542 l 1,0,-1
24 0 m 1,4,-1
 189 720 l 1,5,-1
 268 720 l 1,6,-1
 103 0 l 1,7,-1
 24 0 l 1,4,-1
457 0 m 1,8,-1
 622 720 l 1,9,-1
 701 720 l 1,10,-1
 536 0 l 1,11,-1
 457 0 l 1,8,-1
160 410 m 1,12,-1
 585 410 l 1,13,-1
 570 340 l 1,14,-1
 144 340 l 1,15,-1
 160 410 l 1,12,-1
EndSplineSet
EndChar

StartChar: I
Encoding: 73 73 39
Width: 243
GlyphClass: 2
Flags: W
AnchorPoint: "Anchor-3" 87 0 basechar 0
AnchorPoint: "Anchor-2" 63 0 basechar 0
AnchorPoint: "Anchor-0" 229 720 basechar 0
LayerCount: 2
Fore
SplineSet
23 0 m 1,0,-1
 189 720 l 1,1,-1
 268 720 l 1,2,-1
 102 0 l 1,3,-1
 23 0 l 1,0,-1
EndSplineSet
EndChar

StartChar: J
Encoding: 74 74 48
Width: 418
GlyphClass: 1
Flags: W
LayerCount: 2
Fore
SplineSet
77 -10 m 0,0,1
 37 -10 37 -10 5.5 -5 c 128,-1,2
 -26 0 -26 0 -39 7 c 1,3,-1
 -22 80 l 1,4,5
 -3 72 -3 72 27 66 c 128,-1,6
 57 60 57 60 93 60 c 0,7,8
 154 60 154 60 193 90.5 c 128,-1,9
 232 121 232 121 249 194 c 2,10,-1
 370 720 l 1,11,-1
 449 720 l 1,12,-1
 327 189 l 2,13,14
 303 84 303 84 241 37 c 128,-1,15
 179 -10 179 -10 77 -10 c 0,0,1
EndSplineSet
Substitution2: "'ss08' Style Set 8 in Latin lookup 29 subtable" J.ss08
Substitution2: "'aalt' Access All Alternates in Latin lookup 0 subtable" J.ss08
EndChar

StartChar: K
Encoding: 75 75 49
Width: 636
GlyphClass: 2
Flags: W
AnchorPoint: "Anchor-2" 271 0 basechar 0
AnchorPoint: "Anchor-0" 425 720 basechar 0
LayerCount: 2
Fore
SplineSet
23 0 m 1,0,-1
 189 720 l 1,1,-1
 268 720 l 1,2,-1
 102 0 l 1,3,-1
 23 0 l 1,0,-1
167 373 m 1,4,-1
 584 720 l 1,5,-1
 701 720 l 1,6,-1
 278 374 l 1,7,-1
 167 373 l 1,4,-1
455 0 m 1,8,-1
 181 381 l 1,9,-1
 278 374 l 1,10,-1
 555 0 l 1,11,-1
 455 0 l 1,8,-1
EndSplineSet
Substitution2: "'ss04' Style Set 4 in Latin lookup 25 subtable" K.ss04
Substitution2: "'aalt' Access All Alternates in Latin lookup 0 subtable" K.ss04
EndChar

StartChar: L
Encoding: 76 76 51
Width: 535
GlyphClass: 2
Flags: W
AnchorPoint: "Anchor-2" 241 0 basechar 0
AnchorPoint: "Anchor-1" 467 720 basechar 0
AnchorPoint: "Anchor-0" 228 720 basechar 0
LayerCount: 2
Fore
SplineSet
23 0 m 1,0,-1
 189 720 l 1,1,-1
 268 720 l 1,2,-1
 102 0 l 1,3,-1
 23 0 l 1,0,-1
65 0 m 1,4,-1
 81 70 l 1,5,-1
 444 70 l 1,6,-1
 428 0 l 1,7,-1
 65 0 l 1,4,-1
EndSplineSet
EndChar

StartChar: Lslash
Encoding: 321 321 55
Width: 535
GlyphClass: 2
Flags: W
AnchorPoint: "Anchor-2" 241 0 basechar 0
AnchorPoint: "Anchor-1" 467 720 basechar 0
AnchorPoint: "Anchor-0" 228 720 basechar 0
LayerCount: 2
Fore
SplineSet
147 345 m 1,0,-1
 9 292 l 1,1,-1
 24 355 l 1,2,-1
 159 407 l 1,3,-1
 147 345 l 1,0,-1
160 411 m 1,4,-1
 353 486 l 1,5,-1
 338 423 l 1,6,-1
 148 349 l 1,7,-1
 160 411 l 1,4,-1
23 0 m 1,8,-1
 189 720 l 1,9,-1
 268 720 l 1,10,-1
 102 0 l 1,11,-1
 23 0 l 1,8,-1
65 0 m 1,12,-1
 81 70 l 1,13,-1
 444 70 l 1,14,-1
 428 0 l 1,15,-1
 65 0 l 1,12,-1
EndSplineSet
EndChar

StartChar: M
Encoding: 77 77 56
Width: 847
GlyphClass: 1
Flags: W
LayerCount: 2
Fore
SplineSet
23 0 m 1,0,-1
 189 720 l 1,1,-1
 306 720 l 1,2,-1
 386 31 l 1,3,-1
 349 31 l 1,4,-1
 745 720 l 1,5,-1
 872 720 l 1,6,-1
 706 0 l 1,7,-1
 628 0 l 1,8,-1
 781 663 l 1,9,-1
 790 663 l 1,10,-1
 408 0 l 1,11,-1
 315 0 l 1,12,-1
 238 659 l 1,13,-1
 247 659 l 1,14,-1
 95 0 l 1,15,-1
 23 0 l 1,0,-1
EndSplineSet
Substitution2: "'ss06' Style Set 6 in Latin lookup 27 subtable" M.ss06
Substitution2: "'aalt' Access All Alternates in Latin lookup 0 subtable" M.ss06
EndChar

StartChar: N
Encoding: 78 78 57
Width: 678
GlyphClass: 2
Flags: W
AnchorPoint: "Anchor-2" 280 0 basechar 0
AnchorPoint: "Anchor-0" 437 720 basechar 0
LayerCount: 2
Fore
SplineSet
23 0 m 1,0,-1
 189 720 l 1,1,-1
 270 720 l 1,2,-1
 496 114 l 1,3,-1
 488 112 l 1,4,-1
 628 720 l 1,5,-1
 703 720 l 1,6,-1
 537 0 l 1,7,-1
 456 0 l 1,8,-1
 230 606 l 1,9,-1
 238 608 l 1,10,-1
 98 0 l 1,11,-1
 23 0 l 1,0,-1
EndSplineSet
EndChar

StartChar: Eng
Encoding: 330 330 62
Width: 678
GlyphClass: 1
Flags: W
LayerCount: 2
Fore
SplineSet
23 0 m 1,0,-1
 189 720 l 1,1,-1
 270 720 l 1,2,-1
 508 114 l 1,3,-1
 488 112 l 1,4,-1
 628 720 l 1,5,-1
 703 720 l 1,6,-1
 537 0 l 1,7,-1
 468 0 l 1,8,-1
 230 606 l 1,9,-1
 238 608 l 1,10,-1
 98 0 l 1,11,-1
 23 0 l 1,0,-1
352 -215 m 0,12,13
 320 -215 320 -215 303.5 -212 c 128,-1,14
 287 -209 287 -209 278 -206 c 1,15,-1
 295 -137 l 1,16,17
 304 -140 304 -140 320 -142.5 c 128,-1,18
 336 -145 336 -145 361 -145 c 0,19,20
 397 -145 397 -145 416 -127 c 128,-1,21
 435 -109 435 -109 445 -65 c 2,22,-1
 467 30 l 1,23,-1
 537 0 l 1,24,-1
 521 -71 l 2,25,26
 506 -139 506 -139 468 -177 c 128,-1,27
 430 -215 430 -215 352 -215 c 0,12,13
EndSplineSet
EndChar

StartChar: O
Encoding: 79 79 63
Width: 715
GlyphClass: 2
Flags: W
AnchorPoint: "Anchor-3" 434 20 basechar 0
AnchorPoint: "Anchor-2" 300 0 basechar 0
AnchorPoint: "Anchor-1" 802 720 basechar 0
AnchorPoint: "Anchor-0" 465 720 basechar 0
LayerCount: 2
Fore
SplineSet
324 -10 m 0,0,1
 248 -10 248 -10 190.5 27 c 128,-1,2
 133 64 133 64 100.5 130 c 128,-1,3
 68 196 68 196 68 283 c 0,4,5
 68 373 68 373 97.5 453.5 c 128,-1,6
 127 534 127 534 178.5 596.5 c 128,-1,7
 230 659 230 659 296.5 694.5 c 128,-1,8
 363 730 363 730 439 730 c 0,9,10
 517 730 517 730 574.5 693.5 c 128,-1,11
 632 657 632 657 664 591 c 128,-1,12
 696 525 696 525 696 437 c 0,13,14
 696 348 696 348 666 267.5 c 128,-1,15
 636 187 636 187 584.5 124.5 c 128,-1,16
 533 62 533 62 466 26 c 128,-1,17
 399 -10 399 -10 324 -10 c 0,0,1
331 62 m 0,18,19
 387 62 387 62 438 92.5 c 128,-1,20
 489 123 489 123 529 176 c 128,-1,21
 569 229 569 229 592 297 c 128,-1,22
 615 365 615 365 615 440 c 0,23,24
 615 506 615 506 592 555 c 128,-1,25
 569 604 569 604 527.5 631.5 c 128,-1,26
 486 659 486 659 429 659 c 0,27,28
 374 659 374 659 323.5 628.5 c 128,-1,29
 273 598 273 598 234 545.5 c 128,-1,30
 195 493 195 493 172.5 425 c 128,-1,31
 150 357 150 357 150 282 c 0,32,33
 150 216 150 216 172.5 166 c 128,-1,34
 195 116 195 116 235.5 89 c 128,-1,35
 276 62 276 62 331 62 c 0,18,19
EndSplineSet
Substitution2: "Single Substitution lookup 17 subtable" ordmasculine
Substitution2: "'aalt' Access All Alternates in Latin lookup 0 subtable" ordmasculine
EndChar

StartChar: Oslash
Encoding: 216 216 70
Width: 715
GlyphClass: 2
Flags: W
AnchorPoint: "Anchor-3" 434 20 basechar 0
AnchorPoint: "Anchor-2" 300 0 basechar 0
AnchorPoint: "Anchor-1" 802 720 basechar 0
AnchorPoint: "Anchor-0" 465 720 basechar 0
LayerCount: 2
Fore
SplineSet
101 -10 m 1,0,-1
 53 27 l 1,1,-1
 614 730 l 1,2,-1
 662 693 l 1,3,-1
 101 -10 l 1,0,-1
324 -10 m 0,4,5
 248 -10 248 -10 190.5 27 c 128,-1,6
 133 64 133 64 100.5 130 c 128,-1,7
 68 196 68 196 68 283 c 0,8,9
 68 373 68 373 97.5 453.5 c 128,-1,10
 127 534 127 534 178.5 596.5 c 128,-1,11
 230 659 230 659 296.5 694.5 c 128,-1,12
 363 730 363 730 439 730 c 0,13,14
 517 730 517 730 574.5 693.5 c 128,-1,15
 632 657 632 657 664 591 c 128,-1,16
 696 525 696 525 696 437 c 0,17,18
 696 348 696 348 666 267.5 c 128,-1,19
 636 187 636 187 584.5 124.5 c 128,-1,20
 533 62 533 62 466 26 c 128,-1,21
 399 -10 399 -10 324 -10 c 0,4,5
331 62 m 0,22,23
 387 62 387 62 438 92.5 c 128,-1,24
 489 123 489 123 529 176 c 128,-1,25
 569 229 569 229 592 297 c 128,-1,26
 615 365 615 365 615 440 c 0,27,28
 615 506 615 506 592 555 c 128,-1,29
 569 604 569 604 527.5 631.5 c 128,-1,30
 486 659 486 659 429 659 c 0,31,32
 374 659 374 659 323.5 628.5 c 128,-1,33
 273 598 273 598 234 545.5 c 128,-1,34
 195 493 195 493 172.5 425 c 128,-1,35
 150 357 150 357 150 282 c 0,36,37
 150 216 150 216 172.5 166 c 128,-1,38
 195 116 195 116 235.5 89 c 128,-1,39
 276 62 276 62 331 62 c 0,22,23
EndSplineSet
EndChar

StartChar: OE
Encoding: 338 338 72
Width: 965
GlyphClass: 1
Flags: W
LayerCount: 2
Fore
SplineSet
335 -10 m 0,0,1
 250 -10 250 -10 190 27.5 c 128,-1,2
 130 65 130 65 99 131.5 c 128,-1,3
 68 198 68 198 68 286 c 0,4,5
 68 356 68 356 87 422 c 128,-1,6
 106 488 106 488 142.5 543.5 c 128,-1,7
 179 599 179 599 231 641.5 c 128,-1,8
 283 684 283 684 350 707 c 128,-1,9
 417 730 417 730 497 730 c 0,10,11
 531 730 531 730 565 726 c 128,-1,12
 599 722 599 722 620 713 c 1,13,-1
 602 632 l 1,14,15
 588 644 588 644 553 651.5 c 128,-1,16
 518 659 518 659 480 659 c 0,17,18
 419 659 419 659 367 639 c 128,-1,19
 315 619 315 619 275 584 c 128,-1,20
 235 549 235 549 206.5 502.5 c 128,-1,21
 178 456 178 456 163.5 401.5 c 128,-1,22
 149 347 149 347 149 289 c 0,23,24
 149 186 149 186 198.5 124 c 128,-1,25
 248 62 248 62 348 62 c 0,26,27
 372 62 372 62 397 65.5 c 128,-1,28
 422 69 422 69 443.5 74.5 c 128,-1,29
 465 80 465 80 477 88 c 1,30,-1
 458 8 l 1,31,32
 430 -2 430 -2 396 -6 c 128,-1,33
 362 -10 362 -10 335 -10 c 0,0,1
423 0 m 1,34,-1
 589 720 l 1,35,-1
 999 720 l 1,36,-1
 983 651 l 1,37,-1
 652 651 l 1,38,-1
 596 410 l 1,39,-1
 902 410 l 1,40,-1
 887 340 l 1,41,-1
 581 340 l 1,42,-1
 518 70 l 1,43,-1
 857 70 l 1,44,-1
 841 0 l 1,45,-1
 423 0 l 1,34,-1
EndSplineSet
EndChar

StartChar: P
Encoding: 80 80 73
Width: 601
GlyphClass: 1
Flags: W
LayerCount: 2
Fore
SplineSet
23 0 m 1,0,-1
 189 720 l 1,1,-1
 435 720 l 2,2,3
 491 720 491 720 532.5 697 c 128,-1,4
 574 674 574 674 597.5 633 c 128,-1,5
 621 592 621 592 621 537 c 0,6,7
 621 488 621 488 602 444 c 128,-1,8
 583 400 583 400 549.5 367 c 128,-1,9
 516 334 516 334 469.5 315.5 c 128,-1,10
 423 297 423 297 366 297 c 2,11,-1
 148 297 l 1,12,-1
 164 367 l 1,13,-1
 372 367 l 2,14,15
 412 367 412 367 443 380.5 c 128,-1,16
 474 394 474 394 496.5 417.5 c 128,-1,17
 519 441 519 441 530 471 c 128,-1,18
 541 501 541 501 541 533 c 0,19,20
 541 585 541 585 511 618 c 128,-1,21
 481 651 481 651 415 651 c 2,22,-1
 252 651 l 1,23,-1
 102 0 l 1,24,-1
 23 0 l 1,0,-1
EndSplineSet
EndChar

StartChar: Thorn
Encoding: 222 222 74
Width: 601
GlyphClass: 1
Flags: W
LayerCount: 2
Fore
SplineSet
117 163 m 1,0,-1
 133 232 l 1,1,-1
 335 232 l 2,2,3
 389 232 389 232 428.5 253.5 c 128,-1,4
 468 275 468 275 489 312.5 c 128,-1,5
 510 350 510 350 510 395 c 0,6,7
 510 443 510 443 479.5 475.5 c 128,-1,8
 449 508 449 508 384 508 c 2,9,-1
 197 508 l 1,10,-1
 212 578 l 1,11,-1
 401 578 l 2,12,13
 459 578 459 578 500.5 555 c 128,-1,14
 542 532 542 532 565.5 491 c 128,-1,15
 589 450 589 450 589 397 c 0,16,17
 589 332 589 332 555.5 278.5 c 128,-1,18
 522 225 522 225 464 194 c 128,-1,19
 406 163 406 163 329 163 c 2,20,-1
 117 163 l 1,0,-1
23 0 m 1,21,-1
 189 720 l 1,22,-1
 268 720 l 1,23,-1
 102 0 l 1,24,-1
 23 0 l 1,21,-1
EndSplineSet
EndChar

StartChar: Q
Encoding: 81 81 75
Width: 715
GlyphClass: 1
Flags: W
LayerCount: 2
Fore
SplineSet
325 -10 m 1,0,1
 249 -10 249 -10 191 27 c 128,-1,2
 133 64 133 64 100.5 130 c 128,-1,3
 68 196 68 196 68 283 c 0,4,5
 68 373 68 373 97.5 453.5 c 128,-1,6
 127 534 127 534 178.5 596.5 c 128,-1,7
 230 659 230 659 297 694.5 c 128,-1,8
 364 730 364 730 440 730 c 0,9,10
 518 730 518 730 575.5 694 c 128,-1,11
 633 658 633 658 665 592.5 c 128,-1,12
 697 527 697 527 697 439 c 0,13,14
 697 366 697 366 675.5 298 c 128,-1,15
 654 230 654 230 613.5 174.5 c 128,-1,16
 573 119 573 119 518 80.5 c 128,-1,17
 463 42 463 42 396 27 c 1,18,-1
 325 -10 l 1,0,1
332 62 m 0,19,20
 388 62 388 62 439 92.5 c 128,-1,21
 490 123 490 123 530 176 c 128,-1,22
 570 229 570 229 593 297 c 128,-1,23
 616 365 616 365 616 440 c 0,24,25
 616 506 616 506 593 555 c 128,-1,26
 570 604 570 604 528.5 631.5 c 128,-1,27
 487 659 487 659 430 659 c 0,28,29
 374 659 374 659 323.5 628.5 c 128,-1,30
 273 598 273 598 234 545.5 c 128,-1,31
 195 493 195 493 172.5 425 c 128,-1,32
 150 357 150 357 150 282 c 0,33,34
 150 216 150 216 172.5 166 c 128,-1,35
 195 116 195 116 236 89 c 128,-1,36
 277 62 277 62 332 62 c 0,19,20
325 -10 m 1,37,-1
 321 44 l 1,38,-1
 688 84 l 5,39,-1
 668 0 l 1,40,41
 613 0 613 0 557.5 -1.5 c 128,-1,42
 502 -3 502 -3 470 -5 c 128,-1,43
 438 -7 438 -7 404.5 -8.5 c 128,-1,44
 371 -10 371 -10 325 -10 c 1,37,-1
EndSplineSet
Substitution2: "'ss09' Style Set 9 in Latin lookup 30 subtable" Q.ss09
Substitution2: "'aalt' Access All Alternates in Latin lookup 0 subtable" Q.ss09
EndChar

StartChar: R
Encoding: 65537 -1 76
Width: 601
GlyphClass: 2
Flags: W
AnchorPoint: "Anchor-2" 241 0 basechar 0
AnchorPoint: "Anchor-0" 407 720 basechar 0
LayerCount: 2
Fore
SplineSet
23 0 m 1,0,-1
 189 720 l 1,1,-1
 424 720 l 2,2,3
 486 720 486 720 528 696.5 c 128,-1,4
 570 673 570 673 591 632 c 128,-1,5
 612 591 612 591 611 539 c 0,6,7
 610 476 610 476 578 425.5 c 128,-1,8
 546 375 546 375 488 346 c 128,-1,9
 430 317 430 317 350 317 c 2,10,-1
 153 317 l 1,11,-1
 170 387 l 1,12,-1
 364 387 l 2,13,14
 416 387 416 387 453.5 406 c 128,-1,15
 491 425 491 425 511 459 c 128,-1,16
 531 493 531 493 532 535 c 0,17,18
 533 586 533 586 502.5 618.5 c 128,-1,19
 472 651 472 651 407 651 c 2,20,-1
 252 651 l 1,21,-1
 102 0 l 1,22,-1
 23 0 l 1,0,-1
418 0 m 1,23,-1
 155 361 l 1,24,-1
 247 361 l 1,25,-1
 521 0 l 1,26,-1
 418 0 l 1,23,-1
EndSplineSet
Substitution2: "'calt' Contextual Alternates in Latin lookup 26 subtable" R.ss05
Substitution2: "'aalt' Access All Alternates in Latin lookup 0 subtable" R.ss05
EndChar

StartChar: S
Encoding: 83 83 80
Width: 560
GlyphClass: 2
Flags: W
AnchorPoint: "Anchor-2" 246 0 basechar 0
AnchorPoint: "Anchor-0" 372 720 basechar 0
LayerCount: 2
Fore
SplineSet
271 -9 m 0,0,1
 212 -9 212 -9 166.5 9 c 128,-1,2
 121 27 121 27 91 60 c 128,-1,3
 61 93 61 93 46.5 136.5 c 128,-1,4
 32 180 32 180 34 232 c 1,5,-1
 111 232 l 1,6,7
 109 195 109 195 118.5 164 c 128,-1,8
 128 133 128 133 148.5 109.5 c 128,-1,9
 169 86 169 86 201 73 c 128,-1,10
 233 60 233 60 276 60 c 0,11,12
 346 60 346 60 384.5 94 c 128,-1,13
 423 128 423 128 423 188 c 0,14,15
 423 225 423 225 405.5 252 c 128,-1,16
 388 279 388 279 349 302 c 2,17,-1
 250 365 l 2,18,19
 189 401 189 401 160 440.5 c 128,-1,20
 131 480 131 480 131 534 c 0,21,22
 131 593 131 593 160.5 637.5 c 128,-1,23
 190 682 190 682 241.5 707.5 c 128,-1,24
 293 733 293 733 359 733 c 0,25,26
 412 733 412 733 451 717.5 c 128,-1,27
 490 702 490 702 515.5 672.5 c 128,-1,28
 541 643 541 643 553.5 603 c 128,-1,29
 566 563 566 563 564 514 c 1,30,-1
 488 514 l 1,31,32
 490 560 490 560 476 593.5 c 128,-1,33
 462 627 462 627 431 645.5 c 128,-1,34
 400 664 400 664 351 664 c 0,35,36
 307 664 307 664 275.5 649 c 128,-1,37
 244 634 244 634 227 607.5 c 128,-1,38
 210 581 210 581 210 544 c 0,39,40
 210 511 210 511 228 485 c 128,-1,41
 246 459 246 459 287 435 c 2,42,-1
 391 371 l 2,43,44
 447 338 447 338 474 296 c 128,-1,45
 501 254 501 254 501 197 c 0,46,47
 501 134 501 134 472.5 88 c 128,-1,48
 444 42 444 42 392.5 16.5 c 128,-1,49
 341 -9 341 -9 271 -9 c 0,0,1
EndSplineSet
EndChar

StartChar: uni1E9E
Encoding: 7838 7838 85
Width: 655
GlyphClass: 1
Flags: W
LayerCount: 2
Fore
SplineSet
367 -13 m 0,0,1
 338 -13 338 -13 307 -8.5 c 128,-1,2
 276 -4 276 -4 249 3.5 c 128,-1,3
 222 11 222 11 204 20 c 1,4,-1
 221 93 l 1,5,6
 248 78 248 78 290 67.5 c 128,-1,7
 332 57 332 57 369 57 c 0,8,9
 415 57 415 57 448 75 c 128,-1,10
 481 93 481 93 499 125 c 128,-1,11
 517 157 517 157 517 200 c 0,12,13
 517 250 517 250 485.5 288 c 128,-1,14
 454 326 454 326 378 365 c 2,15,-1
 355 378 l 1,16,-1
 617 625 l 1,17,-1
 605 567 l 1,18,19
 580 612 580 612 531.5 637 c 128,-1,20
 483 662 483 662 420 662 c 0,21,22
 255 662 255 662 212 474 c 2,23,-1
 103 0 l 1,24,-1
 24 0 l 1,25,-1
 134 481 l 2,26,27
 163 606 163 606 236.5 668.5 c 128,-1,28
 310 731 310 731 430 731 c 0,29,30
 515 731 515 731 580 698 c 128,-1,31
 645 665 645 665 690 597 c 1,32,-1
 443 364 l 1,33,-1
 429 424 l 1,34,35
 515 381 515 381 556 325.5 c 128,-1,36
 597 270 597 270 597 202 c 0,37,38
 597 138 597 138 568 90 c 128,-1,39
 539 42 539 42 487.5 14.5 c 128,-1,40
 436 -13 436 -13 367 -13 c 0,0,1
EndSplineSet
EndChar

StartChar: T
Encoding: 84 84 86
Width: 590
GlyphClass: 2
Flags: W
AnchorPoint: "Anchor-2" 236 0 basechar 0
AnchorPoint: "Anchor-0" 402 720 basechar 0
LayerCount: 2
Fore
SplineSet
196 0 m 1,0,-1
 346 651 l 1,1,-1
 123 651 l 1,2,-1
 139 720 l 1,3,-1
 666 720 l 1,4,-1
 649 651 l 1,5,-1
 425 651 l 1,6,-1
 275 0 l 1,7,-1
 196 0 l 1,0,-1
EndSplineSet
EndChar

StartChar: U
Encoding: 85 85 89
Width: 653
GlyphClass: 2
Flags: W
AnchorPoint: "Anchor-3" 400 20 basechar 0
AnchorPoint: "Anchor-2" 268 0 basechar 0
AnchorPoint: "Anchor-1" 740 720 basechar 0
AnchorPoint: "Anchor-0" 434 720 basechar 0
LayerCount: 2
Fore
SplineSet
296 -10 m 0,0,1
 211 -10 211 -10 156.5 27.5 c 128,-1,2
 102 65 102 65 83 133.5 c 128,-1,3
 64 202 64 202 85 293 c 2,4,-1
 183 720 l 1,5,-1
 262 720 l 1,6,-1
 161 281 l 2,7,8
 146 218 146 218 155 168.5 c 128,-1,9
 164 119 164 119 199.5 90.5 c 128,-1,10
 235 62 235 62 302 62 c 0,11,12
 381 62 381 62 428 108 c 128,-1,13
 475 154 475 154 495 244 c 2,14,-1
 605 720 l 1,15,-1
 684 720 l 1,16,-1
 574 240 l 2,17,18
 545 118 545 118 475 54 c 128,-1,19
 405 -10 405 -10 296 -10 c 0,0,1
EndSplineSet
EndChar

StartChar: V
Encoding: 86 86 99
Width: 658
GlyphClass: 1
Flags: W
LayerCount: 2
Fore
SplineSet
221 0 m 1,0,-1
 140 720 l 1,1,-1
 220 720 l 1,2,-1
 292 40 l 1,3,-1
 264 40 l 1,4,-1
 647 720 l 1,5,-1
 732 720 l 1,6,-1
 319 0 l 1,7,-1
 221 0 l 1,0,-1
EndSplineSet
EndChar

StartChar: W
Encoding: 87 87 100
Width: 957
GlyphClass: 2
Flags: W
AnchorPoint: "Anchor-2" 420 0 basechar 0
AnchorPoint: "Anchor-0" 586 720 basechar 0
LayerCount: 2
Fore
SplineSet
165 0 m 1,0,-1
 146 720 l 1,1,-1
 224 720 l 1,2,-1
 237 62 l 1,3,-1
 221 62 l 1,4,-1
 534 720 l 1,5,-1
 635 720 l 1,6,-1
 646 62 l 1,7,-1
 630 62 l 1,8,-1
 946 720 l 1,9,-1
 1026 720 l 1,10,-1
 675 0 l 1,11,-1
 577 0 l 1,12,-1
 561 638 l 1,13,-1
 572 638 l 1,14,-1
 262 0 l 1,15,-1
 165 0 l 1,0,-1
EndSplineSet
EndChar

StartChar: X
Encoding: 88 88 105
Width: 627
GlyphClass: 1
Flags: W
LayerCount: 2
Fore
SplineSet
447 0 m 1,0,-1
 313 339 l 1,1,-1
 157 720 l 1,2,-1
 243 720 l 1,3,-1
 368 405 l 1,4,-1
 533 0 l 1,5,-1
 447 0 l 1,0,-1
332 405 m 1,6,-1
 604 720 l 1,7,-1
 696 720 l 1,8,-1
 364 335 l 1,9,-1
 332 405 l 1,6,-1
350 332 m 1,10,-1
 68 0 l 1,11,-1
 -25 0 l 1,12,-1
 319 402 l 1,13,-1
 350 332 l 1,10,-1
EndSplineSet
EndChar

StartChar: Y
Encoding: 89 89 106
Width: 620
GlyphClass: 2
Flags: W
AnchorPoint: "Anchor-2" 251 0 basechar 0
AnchorPoint: "Anchor-0" 417 720 basechar 0
LayerCount: 2
Fore
SplineSet
212 0 m 1,0,-1
 287 329 l 1,1,-1
 128 720 l 1,2,-1
 215 720 l 1,3,-1
 352 377 l 1,4,-1
 316 377 l 1,5,-1
 611 720 l 1,6,-1
 706 720 l 1,7,-1
 366 329 l 1,8,-1
 291 0 l 1,9,-1
 212 0 l 1,0,-1
EndSplineSet
EndChar

StartChar: Z
Encoding: 90 90 111
Width: 580
GlyphClass: 2
Flags: W
AnchorPoint: "Anchor-2" 232 0 basechar 0
AnchorPoint: "Anchor-0" 398 720 basechar 0
LayerCount: 2
Fore
SplineSet
2 0 m 1,0,-1
 15 60 l 1,1,-1
 534 689 l 1,2,-1
 561 651 l 1,3,-1
 161 651 l 1,4,-1
 178 720 l 1,5,-1
 624 720 l 1,6,-1
 609 661 l 1,7,-1
 91 31 l 1,8,-1
 64 70 l 1,9,-1
 483 70 l 1,10,-1
 466 0 l 1,11,-1
 2 0 l 1,0,-1
EndSplineSet
EndChar

StartChar: K.ss04
Encoding: 65559 -1 133
Width: 636
GlyphClass: 2
Flags: W
AnchorPoint: "Anchor-2" 271 0 basechar 0
AnchorPoint: "Anchor-0" 425 720 basechar 0
LayerCount: 2
Fore
SplineSet
23 0 m 1,0,-1
 189 720 l 1,1,-1
 268 720 l 1,2,-1
 102 0 l 1,3,-1
 23 0 l 1,0,-1
91 257 m 1,4,-1
 589 720 l 1,5,-1
 701 720 l 1,6,-1
 344 395 l 1,7,-1
 326 386 l 1,8,-1
 114 192 l 1,9,-1
 91 257 l 1,4,-1
464 0 m 1,10,-1
 282 412 l 1,11,-1
 363 416 l 1,12,-1
 555 0 l 1,13,-1
 464 0 l 1,10,-1
EndSplineSet
EndChar

StartChar: R.ss05
Encoding: 82 82 135
Width: 594
GlyphClass: 2
Flags: W
AnchorPoint: "Anchor-2" 248 0 basechar 0
AnchorPoint: "Anchor-0" 407 720 basechar 0
LayerCount: 2
Fore
SplineSet
23 0 m 1,0,-1
 189 720 l 1,1,-1
 422 720 l 2,2,3
 481 720 481 720 523 700 c 128,-1,4
 565 680 565 680 586.5 643 c 128,-1,5
 608 606 608 606 608 554 c 0,6,7
 608 498 608 498 581.5 451 c 128,-1,8
 555 404 555 404 507 373 c 128,-1,9
 459 342 459 342 393 333 c 1,10,-1
 396 358 l 1,11,12
 458 353 458 353 484 328 c 0,13,14
 512.967476636 301.030280374 512.967476636 301.030280374 517 191 c 2,15,-1
 524 0 l 5,16,-1
 435 0 l 5,17,-1
 436 183 l 2,18,19
 437 277 437 277 408.5 300.5 c 0,20,21
 384 321 384 321 336 321 c 2,22,-1
 154 321 l 1,23,-1
 170 387 l 1,24,-1
 371 387 l 2,25,26
 417 387 417 387 452.5 407.5 c 128,-1,27
 488 428 488 428 508 463 c 128,-1,28
 528 498 528 498 528 540 c 0,29,30
 528 590 528 590 494.5 620.5 c 128,-1,31
 461 651 461 651 403 651 c 2,32,-1
 252 651 l 1,33,-1
 102 0 l 1,34,-1
 23 0 l 1,0,-1
EndSplineSet
EndChar

StartChar: M.ss06
Encoding: 65561 -1 139
Width: 826
GlyphClass: 1
Flags: W
LayerCount: 2
Fore
SplineSet
3 0 m 1,0,-1
 230 720 l 1,1,-1
 340 720 l 1,2,-1
 372 31 l 1,3,-1
 344 31 l 1,4,-1
 693 720 l 1,5,-1
 809 720 l 1,6,-1
 705 0 l 1,7,-1
 626 0 l 1,8,-1
 720 663 l 1,9,-1
 741 663 l 1,10,-1
 407 0 l 1,11,-1
 297 0 l 1,12,-1
 268 659 l 1,13,-1
 289 659 l 1,14,-1
 78 0 l 1,15,-1
 3 0 l 1,0,-1
EndSplineSet
EndChar

StartChar: G.ss07
Encoding: 65562 -1 140
Width: 692
GlyphClass: 2
Flags: W
AnchorPoint: "Anchor-2" 329 0 basechar 0
AnchorPoint: "Anchor-0" 434 720 basechar 0
LayerCount: 2
Fore
SplineSet
334 -10 m 0,0,1
 251 -10 251 -10 191 25 c 128,-1,2
 131 60 131 60 98.5 124 c 128,-1,3
 66 188 66 188 66 274 c 0,4,5
 66 328 66 328 78 382.5 c 128,-1,6
 90 437 90 437 113.5 488 c 128,-1,7
 137 539 137 539 170 582.5 c 128,-1,8
 203 626 203 626 244.5 658.5 c 128,-1,9
 286 691 286 691 335 709.5 c 128,-1,10
 384 728 384 728 438 728 c 0,11,12
 495 728 495 728 542 709 c 128,-1,13
 589 690 589 690 622 656.5 c 128,-1,14
 655 623 655 623 671.5 580 c 128,-1,15
 688 537 688 537 685 491 c 1,16,-1
 607 491 l 1,17,18
 609 523 609 523 597.5 552.5 c 128,-1,19
 586 582 586 582 562.5 605.5 c 128,-1,20
 539 629 539 629 506 643 c 128,-1,21
 473 657 473 657 432 657 c 256,22,23
 391 657 391 657 353.5 641 c 128,-1,24
 316 625 316 625 284 597.5 c 128,-1,25
 252 570 252 570 226.5 533 c 128,-1,26
 201 496 201 496 183 453.5 c 128,-1,27
 165 411 165 411 155.5 366 c 128,-1,28
 146 321 146 321 146 277 c 0,29,30
 146 175 146 175 197.5 118.5 c 128,-1,31
 249 62 249 62 340 62 c 0,32,33
 404 62 404 62 452 91 c 128,-1,34
 500 120 500 120 533.5 182.5 c 128,-1,35
 567 245 567 245 587 342 c 1,36,-1
 662 333 l 1,37,38
 637 218 637 218 591.5 141.5 c 128,-1,39
 546 65 546 65 482 27.5 c 128,-1,40
 418 -10 418 -10 334 -10 c 0,0,1
599 302 m 1,41,-1
 390 302 l 1,42,-1
 406 371 l 1,43,-1
 670 371 l 1,44,-1
 662 333 l 1,45,-1
 599 302 l 1,41,-1
EndSplineSet
EndChar

StartChar: J.ss08
Encoding: 65566 -1 144
Width: 574
GlyphClass: 1
Flags: W
LayerCount: 2
Fore
SplineSet
240 -10 m 0,0,1
 188 -10 188 -10 148 7 c 128,-1,2
 108 24 108 24 82.5 55.5 c 128,-1,3
 57 87 57 87 48 128.5 c 128,-1,4
 39 170 39 170 48 219 c 1,5,-1
 125 219 l 1,6,7
 115 174 115 174 127.5 138 c 128,-1,8
 140 102 140 102 170 82 c 128,-1,9
 200 62 200 62 245 62 c 0,10,11
 309 62 309 62 351 102.5 c 128,-1,12
 393 143 393 143 412 225 c 2,13,-1
 526 720 l 1,14,-1
 605 720 l 1,15,-1
 487 210 l 2,16,17
 461 101 461 101 398.5 45.5 c 128,-1,18
 336 -10 336 -10 240 -10 c 0,0,1
EndSplineSet
EndChar

StartChar: Q.ss09
Encoding: 65567 -1 145
Width: 715
GlyphClass: 1
Flags: W
LayerCount: 2
Fore
SplineSet
325 -10 m 0,0,1
 249 -10 249 -10 191 27 c 128,-1,2
 133 64 133 64 100.5 130 c 128,-1,3
 68 196 68 196 68 283 c 0,4,5
 68 373 68 373 97.5 453.5 c 128,-1,6
 127 534 127 534 178.5 596.5 c 128,-1,7
 230 659 230 659 297 694.5 c 128,-1,8
 364 730 364 730 440 730 c 256,9,10
 516 730 516 730 573.5 693.5 c 128,-1,11
 631 657 631 657 663.5 591 c 128,-1,12
 696 525 696 525 696 437 c 0,13,14
 696 348 696 348 666 267.5 c 128,-1,15
 636 187 636 187 584.5 124.5 c 128,-1,16
 533 62 533 62 466 26 c 128,-1,17
 399 -10 399 -10 325 -10 c 0,0,1
332 62 m 0,18,19
 388 62 388 62 438.5 92.5 c 128,-1,20
 489 123 489 123 529 176 c 128,-1,21
 569 229 569 229 592 297 c 128,-1,22
 615 365 615 365 615 440 c 0,23,24
 615 506 615 506 592 555 c 128,-1,25
 569 604 569 604 527.5 631.5 c 128,-1,26
 486 659 486 659 430 659 c 256,27,28
 374 659 374 659 323.5 628.5 c 128,-1,29
 273 598 273 598 234 545.5 c 128,-1,30
 195 493 195 493 172.5 425 c 128,-1,31
 150 357 150 357 150 282 c 0,32,33
 150 216 150 216 172.5 166 c 128,-1,34
 195 116 195 116 236 89 c 128,-1,35
 277 62 277 62 332 62 c 0,18,19
353 225 m 1,36,-1
 420 249 l 1,37,-1
 534 -81 l 1,38,-1
 467 -105 l 1,39,-1
 353 225 l 1,36,-1
EndSplineSet
EndChar

StartChar: a
Encoding: 65572 -1 150
Width: 497
GlyphClass: 2
Flags: W
AnchorPoint: "Anchor-3" 382 0 basechar 0
AnchorPoint: "Anchor-2" 194 0 basechar 0
AnchorPoint: "Anchor-0" 302 510 basechar 0
LayerCount: 2
Fore
SplineSet
305 0 m 1,0,1
 304 12 304 12 307.5 33.5 c 128,-1,2
 311 55 311 55 317 82 c 1,3,-1
 311 83 l 1,4,-1
 370 337 l 2,5,6
 377 367 377 367 372.5 394 c 128,-1,7
 368 421 368 421 347 437.5 c 128,-1,8
 326 454 326 454 281 454 c 0,9,10
 230 454 230 454 199.5 430.5 c 128,-1,11
 169 407 169 407 156 362 c 1,12,-1
 84 362 l 1,13,14
 103 439 103 439 156.5 479.5 c 128,-1,15
 210 520 210 520 293 520 c 0,16,17
 364 520 364 520 400.5 492.5 c 128,-1,18
 437 465 437 465 446 421.5 c 128,-1,19
 455 378 455 378 444 329 c 2,20,-1
 387 83 l 2,21,22
 383 63 383 63 380 40.5 c 128,-1,23
 377 18 377 18 378 0 c 1,24,-1
 305 0 l 1,0,1
158 -10 m 0,25,26
 94 -10 94 -10 56 25 c 128,-1,27
 18 60 18 60 18 118 c 0,28,29
 18 164 18 164 40.5 198 c 128,-1,30
 63 232 63 232 106.5 255 c 128,-1,31
 150 278 150 278 215 288 c 2,32,-1
 382 315 l 1,33,-1
 368 251 l 1,34,-1
 217 228 l 2,35,36
 154 218 154 218 124 192 c 128,-1,37
 94 166 94 166 94 124 c 0,38,39
 94 90 94 90 116 73 c 128,-1,40
 138 56 138 56 180 56 c 0,41,42
 236 56 236 56 277 84.5 c 128,-1,43
 318 113 318 113 330 163 c 1,44,-1
 326 88 l 1,45,46
 299 41 299 41 255.5 15.5 c 128,-1,47
 212 -10 212 -10 158 -10 c 0,25,26
EndSplineSet
Substitution2: "'calt' Contextual Alternates in Latin lookup 23 subtable" a.ss02
Substitution2: "Single Substitution lookup 17 subtable" ordfeminine
AlternateSubs2: "'aalt' Access All Alternates in Latin lookup 1 subtable" a.ss02 ordfeminine
EndChar

StartChar: ae
Encoding: 230 230 161
Width: 803
GlyphClass: 1
Flags: W
LayerCount: 2
Fore
SplineSet
321 125 m 1,0,-1
 370 337 l 2,1,2
 377 367 377 367 372.5 394 c 128,-1,3
 368 421 368 421 347 437.5 c 128,-1,4
 326 454 326 454 281 454 c 0,5,6
 230 454 230 454 199.5 430.5 c 128,-1,7
 169 407 169 407 156 362 c 1,8,-1
 84 362 l 1,9,10
 103 439 103 439 156.5 479.5 c 128,-1,11
 210 520 210 520 293 520 c 0,12,13
 364 520 364 520 400.5 492.5 c 128,-1,14
 437 465 437 465 446 421.5 c 128,-1,15
 455 378 455 378 444 329 c 2,16,-1
 396 124 l 1,17,-1
 321 125 l 1,0,-1
161 -10 m 0,18,19
 96 -10 96 -10 57 25 c 128,-1,20
 18 60 18 60 18 118 c 0,21,22
 18 164 18 164 40.5 198 c 128,-1,23
 63 232 63 232 106.5 255 c 128,-1,24
 150 278 150 278 215 288 c 2,25,-1
 382 315 l 1,26,-1
 368 251 l 1,27,-1
 217 228 l 2,28,29
 154 218 154 218 124 192 c 128,-1,30
 94 166 94 166 94 124 c 0,31,32
 94 90 94 90 116 73 c 128,-1,33
 138 56 138 56 180 56 c 0,34,35
 236 56 236 56 277 84.5 c 128,-1,36
 318 113 318 113 330 162 c 1,37,-1
 379 129 l 1,38,39
 338 56 338 56 282.5 23 c 128,-1,40
 227 -10 227 -10 161 -10 c 0,18,19
528 -10 m 0,41,42
 473 -10 473 -10 432.5 16 c 128,-1,43
 392 42 392 42 370 89.5 c 128,-1,44
 348 137 348 137 348 201 c 0,45,46
 348 248 348 248 359.5 294 c 128,-1,47
 371 340 371 340 394 380.5 c 128,-1,48
 417 421 417 421 448.5 452.5 c 128,-1,49
 480 484 480 484 519.5 502 c 128,-1,50
 559 520 559 520 605 520 c 0,51,52
 658 520 658 520 695.5 497 c 128,-1,53
 733 474 733 474 753.5 432 c 128,-1,54
 774 390 774 390 774 333 c 0,55,56
 774 307 774 307 769 280.5 c 128,-1,57
 764 254 764 254 755 233 c 1,58,-1
 408 233 l 1,59,-1
 422 298 l 1,60,-1
 723 298 l 1,61,-1
 688 245 l 1,62,63
 697 280 697 280 699 316.5 c 128,-1,64
 701 353 701 353 693 384 c 128,-1,65
 685 415 685 415 663 434.5 c 128,-1,66
 641 454 641 454 601 454 c 0,67,68
 569 454 569 454 542.5 439 c 128,-1,69
 516 424 516 424 494.5 399 c 128,-1,70
 473 374 473 374 458 341.5 c 128,-1,71
 443 309 443 309 435 273 c 128,-1,72
 427 237 427 237 427 202 c 0,73,74
 427 133 427 133 456 94.5 c 128,-1,75
 485 56 485 56 538 56 c 0,76,77
 576 56 576 56 606.5 78.5 c 128,-1,78
 637 101 637 101 653 146 c 1,79,-1
 726 146 l 1,80,81
 697 68 697 68 645 29 c 128,-1,82
 593 -10 593 -10 528 -10 c 0,41,42
EndSplineSet
EndChar

StartChar: b
Encoding: 98 98 162
Width: 567
GlyphClass: 1
Flags: W
LayerCount: 2
Fore
SplineSet
267 -9 m 0,0,1
 220 -9 220 -9 185 9.5 c 128,-1,2
 150 28 150 28 131 61.5 c 128,-1,3
 112 95 112 95 112 138 c 1,4,-1
 122 141 l 1,5,-1
 88 0 l 1,6,-1
 17 0 l 1,7,-1
 183 720 l 1,8,-1
 260 720 l 1,9,-1
 188 411 l 1,10,-1
 180 416 l 1,11,12
 207 466 207 466 254 493 c 128,-1,13
 301 520 301 520 357 520 c 0,14,15
 438 520 438 520 484 466 c 128,-1,16
 530 412 530 412 530 319 c 0,17,18
 530 252 530 252 509.5 192.5 c 128,-1,19
 489 133 489 133 452.5 88 c 128,-1,20
 416 43 416 43 368.5 17 c 128,-1,21
 321 -9 321 -9 267 -9 c 0,0,1
263 59 m 0,22,23
 303 59 303 59 337 78.5 c 128,-1,24
 371 98 371 98 396.5 132.5 c 128,-1,25
 422 167 422 167 436.5 212.5 c 128,-1,26
 451 258 451 258 451 308 c 0,27,28
 451 376 451 376 420 414 c 128,-1,29
 389 452 389 452 333 452 c 0,30,31
 299 452 299 452 270 437.5 c 128,-1,32
 241 423 241 423 217.5 398 c 128,-1,33
 194 373 194 373 177 340.5 c 128,-1,34
 160 308 160 308 151 272.5 c 128,-1,35
 142 237 142 237 142 203 c 0,36,37
 142 135 142 135 175.5 97 c 128,-1,38
 209 59 209 59 263 59 c 0,22,23
EndSplineSet
EndChar

StartChar: c
Encoding: 99 99 163
Width: 496
GlyphClass: 2
Flags: W
AnchorPoint: "Anchor-2" 201 0 basechar 0
AnchorPoint: "Anchor-0" 322 510 basechar 0
LayerCount: 2
Fore
SplineSet
218 -11 m 0,0,1
 162 -11 162 -11 121.5 14.5 c 128,-1,2
 81 40 81 40 58.5 87.5 c 128,-1,3
 36 135 36 135 36 199 c 0,4,5
 36 252 36 252 49.5 299 c 128,-1,6
 63 346 63 346 88 386.5 c 128,-1,7
 113 427 113 427 147 456.5 c 128,-1,8
 181 486 181 486 222 502.5 c 128,-1,9
 263 519 263 519 309 519 c 0,10,11
 350 519 350 519 381.5 504.5 c 128,-1,12
 413 490 413 490 435 464.5 c 128,-1,13
 457 439 457 439 468 406 c 128,-1,14
 479 373 479 373 477 337 c 1,15,-1
 397.60546875 337.16796875 l 5,16,17
 399 369 399 369 387.55078125 395.3125 c 4
 377 421 377 421 354.99609375 437.41796875 c 4
 333 453 333 453 299.940429688 453.45703125 c 4,20,21
 269 453 269 453 242.01171875 440.424804688 c 4
 215 427 215 427 192.221679688 403.33203125 c 4
 170 379 170 379 153.442382812 347.192382812 c 4
 137 315 137 315 128.547851562 276.516601562 c 132,-1,25
 120 238 120 238 119.9296875 196.817382812 c 4,26,27
 120 129 120 129 147.21875 91.5546875 c 4
 175 54 175 54 225.254882812 54.462890625 c 4,29,30
 273 54 273 54 309.994140625 86.041015625 c 132,-1,31
 347 118 347 118 364.092773438 172.7578125 c 5,32,-1
 442 173 l 1,33,34
 416 89 416 89 356.5 39 c 128,-1,35
 297 -11 297 -11 218 -11 c 0,0,1
EndSplineSet
EndChar

StartChar: d
Encoding: 100 100 168
Width: 567
GlyphClass: 2
Flags: W
AnchorPoint: "Anchor-2" 224 0 basechar 0
AnchorPoint: "Anchor-1" 663 720 basechar 0
AnchorPoint: "Anchor-0" 393 735 basechar 0
LayerCount: 2
Fore
SplineSet
360 0 m 1,0,-1
 383 100 l 1,1,-1
 387 95 l 1,2,3
 360 44 360 44 313.5 17 c 128,-1,4
 267 -10 267 -10 210 -10 c 0,5,6
 129 -10 129 -10 83 44.5 c 128,-1,7
 37 99 37 99 37 191 c 0,8,9
 37 258 37 258 57.5 317.5 c 128,-1,10
 78 377 78 377 114.5 422 c 128,-1,11
 151 467 151 467 198 493 c 128,-1,12
 245 519 245 519 299 519 c 0,13,14
 346 519 346 519 381 500.5 c 128,-1,15
 416 482 416 482 436 449 c 128,-1,16
 456 416 456 416 455 372 c 1,17,-1
 439 370 l 1,18,-1
 521 720 l 1,19,-1
 598 720 l 1,20,-1
 432 0 l 1,21,-1
 360 0 l 1,0,-1
234 58 m 0,22,23
 267 58 267 58 296.5 72.5 c 128,-1,24
 326 87 326 87 349 112 c 128,-1,25
 372 137 372 137 389.5 169.5 c 128,-1,26
 407 202 407 202 415.5 237.5 c 128,-1,27
 424 273 424 273 424 307 c 0,28,29
 424 375 424 375 391.5 413 c 128,-1,30
 359 451 359 451 303 451 c 0,31,32
 250 451 250 451 207.5 417.5 c 128,-1,33
 165 384 165 384 140.5 328 c 128,-1,34
 116 272 116 272 116 204 c 0,35,36
 116 137 116 137 147 97.5 c 128,-1,37
 178 58 178 58 234 58 c 0,22,23
EndSplineSet
EndChar

StartChar: eth
Encoding: 240 240 169
Width: 552
GlyphClass: 1
Flags: W
LayerCount: 2
Fore
SplineSet
231 -9 m 0,0,1
 177 -9 177 -9 131.5 13.5 c 128,-1,2
 86 36 86 36 59 81 c 128,-1,3
 32 126 32 126 32 194 c 0,4,5
 32 237 32 237 44 280.5 c 128,-1,6
 56 324 56 324 79 363.5 c 128,-1,7
 102 403 102 403 134 433.5 c 128,-1,8
 166 464 166 464 206 481.5 c 128,-1,9
 246 499 246 499 292 499 c 0,10,11
 345 499 345 499 385 477.5 c 128,-1,12
 425 456 425 456 447 417.5 c 128,-1,13
 469 379 469 379 467 330 c 1,14,-1
 439 292 l 1,15,-1
 450 343 l 2,16,17
 466 410 466 410 459.5 467.5 c 128,-1,18
 453 525 453 525 421.5 569.5 c 128,-1,19
 390 614 390 614 333 639.5 c 128,-1,20
 276 665 276 665 192 668 c 1,21,-1
 217 730 l 1,22,23
 322 726 322 726 392.5 688.5 c 128,-1,24
 463 651 463 651 499.5 584.5 c 128,-1,25
 536 518 536 518 536 427 c 0,26,27
 536 378 536 378 525 319.5 c 128,-1,28
 514 261 514 261 490.5 203 c 128,-1,29
 467 145 467 145 431.5 97 c 128,-1,30
 396 49 396 49 346 20 c 128,-1,31
 296 -9 296 -9 231 -9 c 0,0,1
236 61 m 0,32,33
 271 61 271 61 300.5 75.5 c 128,-1,34
 330 90 330 90 353 114.5 c 128,-1,35
 376 139 376 139 391 169 c 128,-1,36
 406 199 406 199 414 231 c 128,-1,37
 422 263 422 263 422 293 c 0,38,39
 422 337 422 337 404.5 368 c 128,-1,40
 387 399 387 399 357.5 415 c 128,-1,41
 328 431 328 431 290 431 c 0,42,43
 251 431 251 431 221.5 415 c 128,-1,44
 192 399 192 399 171 373 c 128,-1,45
 150 347 150 347 136.5 315.5 c 128,-1,46
 123 284 123 284 117 252.5 c 128,-1,47
 111 221 111 221 111 195 c 0,48,49
 111 128 111 128 147 94.5 c 128,-1,50
 183 61 183 61 236 61 c 0,32,33
243 541 m 1,51,-1
 223 591 l 1,52,-1
 523 738 l 1,53,-1
 542 689 l 1,54,-1
 243 541 l 1,51,-1
EndSplineSet
EndChar

StartChar: dcroat
Encoding: 273 273 171
Width: 567
GlyphClass: 2
Flags: W
AnchorPoint: "Anchor-2" 224 0 basechar 0
AnchorPoint: "Anchor-1" 663 720 basechar 0
AnchorPoint: "Anchor-0" 393 735 basechar 0
LayerCount: 2
Fore
SplineSet
327 595 m 1,0,-1
 340 651 l 1,1,-1
 658 651 l 1,2,-1
 645 595 l 1,3,-1
 327 595 l 1,0,-1
360 0 m 1,4,-1
 383 100 l 1,5,-1
 387 95 l 1,6,7
 360 44 360 44 313.5 17 c 128,-1,8
 267 -10 267 -10 210 -10 c 0,9,10
 129 -10 129 -10 83 44.5 c 128,-1,11
 37 99 37 99 37 191 c 0,12,13
 37 258 37 258 57.5 317.5 c 128,-1,14
 78 377 78 377 114.5 422 c 128,-1,15
 151 467 151 467 198 493 c 128,-1,16
 245 519 245 519 299 519 c 0,17,18
 346 519 346 519 381 500.5 c 128,-1,19
 416 482 416 482 436 449 c 128,-1,20
 456 416 456 416 455 372 c 1,21,-1
 439 370 l 1,22,-1
 521 720 l 1,23,-1
 598 720 l 1,24,-1
 432 0 l 1,25,-1
 360 0 l 1,4,-1
234 58 m 0,26,27
 267 58 267 58 296.5 72.5 c 128,-1,28
 326 87 326 87 349 112 c 128,-1,29
 372 137 372 137 389.5 169.5 c 128,-1,30
 407 202 407 202 415.5 237.5 c 128,-1,31
 424 273 424 273 424 307 c 0,32,33
 424 375 424 375 391.5 413 c 128,-1,34
 359 451 359 451 303 451 c 0,35,36
 250 451 250 451 207.5 417.5 c 128,-1,37
 165 384 165 384 140.5 328 c 128,-1,38
 116 272 116 272 116 204 c 0,39,40
 116 137 116 137 147 97.5 c 128,-1,41
 178 58 178 58 234 58 c 0,26,27
EndSplineSet
EndChar

StartChar: e
Encoding: 101 101 172
Width: 523
GlyphClass: 2
Flags: W
AnchorPoint: "Anchor-3" 326 20 basechar 0
AnchorPoint: "Anchor-2" 202 0 basechar 0
AnchorPoint: "Anchor-0" 318 510 basechar 0
LayerCount: 2
Fore
SplineSet
232 -10 m 0,0,1
 173 -10 173 -10 128.5 16 c 128,-1,2
 84 42 84 42 60 89.5 c 128,-1,3
 36 137 36 137 36 201 c 0,4,5
 36 248 36 248 49 294 c 128,-1,6
 62 340 62 340 85.5 380.5 c 128,-1,7
 109 421 109 421 143 452.5 c 128,-1,8
 177 484 177 484 219 502 c 128,-1,9
 261 520 261 520 310 520 c 0,10,11
 366 520 366 520 407.5 497 c 128,-1,12
 449 474 449 474 471.5 432 c 128,-1,13
 494 390 494 390 494 333 c 0,14,15
 494 283.333333333 494 283.333333333 481 253 c 5,16,-1
 96 233 l 1,17,-1
 110 298 l 1,18,-1
 443 318 l 1,19,-1
 408 285 l 1,20,21
 411 301 411 301 411.0703125 316.061523438 c 0,22,23
 412 352 412 352 401.997070312 383.0546875 c 128,-1,24
 392 414 392 414 368.572265625 433.17578125 c 0,25,26
 346 452 346 452 303.155273438 452.530273438 c 0,27,28
 272 453 272 453 243.9453125 437.642578125 c 0,29,30
 216 423 216 423 193.807617188 397.942382812 c 0,31,32
 171 373 171 373 155.129882812 340.874023438 c 0,33,34
 139 309 139 309 130.299804688 272.887695312 c 0,35,36
 122 237 122 237 121.705078125 202.419921875 c 0,37,38
 122 134 122 134 154.174804688 95.7265625 c 0,39,40
 188 57 188 57 243.9453125 57.5146484375 c 0,41,42
 285 58 285 58 316.047851562 79.8466796875 c 0,43,44
 347 102 347 102 368.094726562 146.83984375 c 1,45,-1
 446 146 l 1,46,47
 412 68 412 68 357.5 29 c 128,-1,48
 303 -10 303 -10 232 -10 c 0,0,1
EndSplineSet
EndChar

StartChar: f
Encoding: 102 102 181
Width: 329
GlyphClass: 1
Flags: W
LayerCount: 2
Fore
SplineSet
53 0 m 1,0,-1
 192 605 l 2,1,2
 205 663 205 663 245 696.5 c 128,-1,3
 285 730 285 730 355 730 c 0,4,5
 372 730 372 730 389.5 727.5 c 128,-1,6
 407 725 407 725 420 720 c 1,7,-1
 405 659 l 1,8,9
 398 663 398 663 385 665 c 128,-1,10
 372 667 372 667 358 667 c 0,11,12
 317 667 317 667 295.5 646.5 c 128,-1,13
 274 626 274 626 266 592 c 2,14,-1
 130 0 l 1,15,-1
 53 0 l 1,0,-1
60 445 m 1,16,-1
 75 510 l 1,17,-1
 361 510 l 1,18,-1
 347 445 l 1,19,-1
 60 445 l 1,16,-1
EndSplineSet
EndChar

StartChar: g
Encoding: 103 103 182
Width: 567
GlyphClass: 2
Flags: WO
AnchorPoint: "Anchor-2" 185 -158 basechar 0
AnchorPoint: "Anchor-0" 323 510 basechar 0
LayerCount: 2
Fore
SplineSet
192 -168 m 0,0,1
 129 -168 129 -168 84.5 -148 c 128,-1,2
 40 -128 40 -128 14 -93.5 c 128,-1,3
 -12 -59 -12 -59 -15 -16 c 1,4,-1
 56 -16 l 1,5,6
 63 -61 63 -61 101 -81.5 c 128,-1,7
 139 -102 139 -102 194 -102 c 0,8,9
 254 -102 254 -102 296.5 -67 c 0,10,11
 335.636343709 -35.2946076282 335.636343709 -35.2946076282 354 22 c 2,12,-1
 379 100 l 1,13,-1
 394 108 l 1,14,15
 366 60 366 60 321 35 c 128,-1,16
 276 10 276 10 221 10 c 0,17,18
 140 10 140 10 93.5 65 c 0,19,20
 45 124 45 124 45 193 c 0,21,22
 45 260 45 260 61.5 319 c 128,-1,23
 78 378 78 378 114 423 c 128,-1,24
 150 468 150 468 197.5 493.5 c 128,-1,25
 245 519 245 519 298 519 c 0,26,27
 344 519 344 519 378.5 502 c 128,-1,28
 413 485 413 485 433 453.5 c 128,-1,29
 453 422 453 422 454 381 c 1,30,-1
 445 372 l 1,31,-1
 477 510 l 1,32,-1
 548 510 l 1,33,-1
 430 17 l 2,34,35
 409 -72 409 -72 345.5 -116 c 0,36,37
 271 -168 271 -168 192 -168 c 0,0,1
245 78 m 0,38,39
 278 78 278 78 307 92.5 c 0,40,41
 339.414012739 108.707006369 339.414012739 108.707006369 359.5 132 c 4,42,43
 417 201 417 201 424 306 c 0,44,45
 427.550047401 370.91206663 427.550047401 370.91206663 391 413 c 0,46,47
 358 451 358 451 302 451 c 0,48,49
 250 451 250 451 209.5 417.5 c 128,-1,50
 169 384 169 384 149.5 338 c 4,51,52
 126 284 126 284 126 224 c 0,53,54
 126 157 126 157 157.5 117.5 c 128,-1,55
 189 78 189 78 245 78 c 0,38,39
EndSplineSet
EndChar

StartChar: h
Encoding: 104 104 186
Width: 560
GlyphClass: 2
Flags: W
AnchorPoint: "Anchor-2" 236 0 basechar 0
AnchorPoint: "Anchor-0" 353 510 basechar 0
LayerCount: 2
Fore
SplineSet
17 0 m 1,0,-1
 183 720 l 1,1,-1
 260 720 l 1,2,-1
 94 0 l 1,3,-1
 17 0 l 1,0,-1
353 0 m 1,4,-1
 429 329 l 2,5,6
 443 390 443 390 420 422 c 128,-1,7
 397 454 397 454 343 454 c 0,8,9
 278 454 278 454 229 411 c 128,-1,10
 180 368 180 368 162 294 c 1,11,-1
 176 408 l 1,12,13
 211 462 211 462 260.5 491 c 128,-1,14
 310 520 310 520 367 520 c 0,15,16
 449 520 449 520 487.5 469 c 128,-1,17
 526 418 526 418 507 332 c 2,18,-1
 430 0 l 1,19,-1
 353 0 l 1,4,-1
EndSplineSet
EndChar

StartChar: hbar
Encoding: 295 295 187
Width: 560
GlyphClass: 2
Flags: W
AnchorPoint: "Anchor-2" 236 0 basechar 0
AnchorPoint: "Anchor-0" 353 510 basechar 0
LayerCount: 2
Fore
SplineSet
78 595 m 1,0,-1
 92 651 l 1,1,-1
 410 651 l 1,2,-1
 396 595 l 1,3,-1
 78 595 l 1,0,-1
17 0 m 1,4,-1
 183 720 l 1,5,-1
 260 720 l 1,6,-1
 94 0 l 1,7,-1
 17 0 l 1,4,-1
353 0 m 1,8,-1
 429 329 l 2,9,10
 443 390 443 390 420 422 c 128,-1,11
 397 454 397 454 343 454 c 0,12,13
 278 454 278 454 229 411 c 128,-1,14
 180 368 180 368 162 294 c 1,15,-1
 176 408 l 1,16,17
 211 462 211 462 260.5 491 c 128,-1,18
 310 520 310 520 367 520 c 0,19,20
 449 520 449 520 487.5 469 c 128,-1,21
 526 418 526 418 507 332 c 2,22,-1
 430 0 l 1,23,-1
 353 0 l 1,8,-1
EndSplineSet
EndChar

StartChar: dotlessi
Encoding: 305 305 189
Width: 230
GlyphClass: 2
Flags: W
AnchorPoint: "Anchor-3" 95 0 basechar 0
AnchorPoint: "Anchor-2" 57 0 basechar 0
AnchorPoint: "Anchor-0" 174 510 basechar 0
LayerCount: 2
Fore
SplineSet
18 0 m 1,0,-1
 135 510 l 1,1,-1
 212 510 l 1,2,-1
 95 0 l 1,3,-1
 18 0 l 1,0,-1
EndSplineSet
EndChar

StartChar: uni0237
Encoding: 567 567 199
Width: 229
GlyphClass: 2
Flags: W
AnchorPoint: "Anchor-2" 9 -159 basechar 0
AnchorPoint: "Anchor-0" 174 510 basechar 0
LayerCount: 2
Fore
SplineSet
-64 -169 m 4,0,1
 -76 -169 -76 -169 -98.5 -166 c 132,-1,2
 -121 -163 -121 -163 -136 -155 c 5,3,-1
 -122 -95 l 5,4,5
 -115 -99 -115 -99 -100 -102.5 c 132,-1,6
 -85 -106 -85 -106 -69 -106 c 4,7,8
 -41 -106 -41 -106 -26 -91.5 c 4,9,10
 -10.2760069002 -75.2846321158 -10.2760069002 -75.2846321158 -4 -50 c 6,11,-1
 135 510 l 1,12,-1
 212 510 l 1,13,-1
 70 -61 l 6,14,15
 57 -113 57 -113 25.5 -140.5 c 4,16,17
 -7 -169 -7 -169 -64 -169 c 4,0,1
EndSplineSet
EndChar

StartChar: k
Encoding: 107 107 200
Width: 501
GlyphClass: 2
Flags: W
AnchorPoint: "Anchor-2" 212 0 basechar 0
AnchorPoint: "Anchor-0" 363 740 basechar 0
LayerCount: 2
Fore
SplineSet
17 0 m 1,0,-1
 187 735 l 1,1,-1
 264 735 l 1,2,-1
 94 0 l 1,3,-1
 17 0 l 1,0,-1
338 0 m 1,4,-1
 155 265 l 5,5,-1
 427 510 l 1,6,-1
 538 510 l 1,7,-1
 233 243 l 5,8,-1
 228 289 l 5,9,-1
 430 0 l 1,10,-1
 338 0 l 1,4,-1
EndSplineSet
Substitution2: "'ss04' Style Set 4 in Latin lookup 25 subtable" k.ss04
Substitution2: "'aalt' Access All Alternates in Latin lookup 0 subtable" k.ss04
EndChar

StartChar: l
Encoding: 108 108 202
Width: 229
GlyphClass: 2
Flags: W
AnchorPoint: "Anchor-2" 56 0 basechar 0
AnchorPoint: "Anchor-1" 325 720 basechar 0
AnchorPoint: "Anchor-0" 222 720 basechar 0
LayerCount: 2
Fore
SplineSet
17 0 m 1,0,-1
 183 720 l 1,1,-1
 260 720 l 1,2,-1
 94 0 l 1,3,-1
 17 0 l 1,0,-1
EndSplineSet
EndChar

StartChar: lslash
Encoding: 322 322 206
Width: 244
GlyphClass: 2
Flags: W
AnchorPoint: "Anchor-2" 63 0 basechar 0
AnchorPoint: "Anchor-1" 333 720 basechar 0
AnchorPoint: "Anchor-0" 229 720 basechar 0
LayerCount: 2
Fore
SplineSet
147 348 m 1,0,-1
 9 295 l 1,1,-1
 24 356 l 1,2,-1
 159 408 l 1,3,-1
 147 348 l 1,0,-1
160 412 m 1,4,-1
 292 464 l 1,5,-1
 278 403 l 1,6,-1
 148 352 l 1,7,-1
 160 412 l 1,4,-1
25 0 m 1,8,-1
 191 720 l 1,9,-1
 268 720 l 1,10,-1
 102 0 l 1,11,-1
 25 0 l 1,8,-1
EndSplineSet
EndChar

StartChar: m
Encoding: 109 109 207
Width: 861
GlyphClass: 1
Flags: W
LayerCount: 2
Fore
SplineSet
18 0 m 1,0,-1
 135 510 l 1,1,-1
 207 510 l 1,2,-1
 181 396 l 1,3,-1
 186 396 l 1,4,-1
 95 0 l 1,5,-1
 18 0 l 1,0,-1
336 0 m 1,6,-1
 411 329 l 2,7,8
 425 390 425 390 403.5 422 c 128,-1,9
 382 454 382 454 334 454 c 0,10,11
 275 454 275 454 227.5 411 c 128,-1,12
 180 368 180 368 163 294 c 1,13,-1
 177 408 l 1,14,15
 211 462 211 462 260.5 491 c 128,-1,16
 310 520 310 520 366 520 c 0,17,18
 439 520 439 520 475 474 c 128,-1,19
 511 428 511 428 489 332 c 2,20,-1
 413 0 l 1,21,-1
 336 0 l 1,6,-1
654 0 m 1,22,-1
 730 329 l 2,23,24
 744 390 744 390 722.5 422 c 128,-1,25
 701 454 701 454 653 454 c 0,26,27
 594 454 594 454 546 411 c 128,-1,28
 498 368 498 368 479 293 c 1,29,-1
 480 397 l 1,30,31
 517 459 517 459 570.5 489.5 c 128,-1,32
 624 520 624 520 677 520 c 0,33,34
 727 520 727 520 761.5 496.5 c 128,-1,35
 796 473 796 473 808.5 431 c 128,-1,36
 821 389 821 389 808 332 c 2,37,-1
 731 0 l 1,38,-1
 654 0 l 1,22,-1
EndSplineSet
EndChar

StartChar: n
Encoding: 110 110 208
Width: 560
GlyphClass: 2
Flags: W
AnchorPoint: "Anchor-2" 234 0 basechar 0
AnchorPoint: "Anchor-0" 365 510 basechar 0
LayerCount: 2
Fore
SplineSet
18 0 m 1,0,-1
 135 510 l 1,1,-1
 207 510 l 1,2,-1
 181 396 l 1,3,-1
 186 396 l 1,4,-1
 95 0 l 1,5,-1
 18 0 l 1,0,-1
354 0 m 1,6,-1
 429 329 l 2,7,8
 443 390 443 390 420 422 c 128,-1,9
 397 454 397 454 343 454 c 0,10,11
 278 454 278 454 229 411 c 128,-1,12
 180 368 180 368 163 294 c 1,13,-1
 177 408 l 1,14,15
 211 462 211 462 260.5 491 c 128,-1,16
 310 520 310 520 367 520 c 0,17,18
 449 520 449 520 487.5 469 c 128,-1,19
 526 418 526 418 507 332 c 2,20,-1
 431 0 l 1,21,-1
 354 0 l 1,6,-1
EndSplineSet
EndChar

StartChar: eng
Encoding: 331 331 213
Width: 560
GlyphClass: 1
Flags: W
LayerCount: 2
Fore
SplineSet
272 -215 m 0,0,1
 259 -215 259 -215 237 -212 c 128,-1,2
 215 -209 215 -209 199 -201 c 1,3,-1
 213 -141 l 1,4,5
 220 -145 220 -145 235.5 -148.5 c 128,-1,6
 251 -152 251 -152 266 -152 c 0,7,8
 294 -152 294 -152 309.5 -137.5 c 128,-1,9
 325 -123 325 -123 331 -96 c 2,10,-1
 429 329 l 2,11,12
 443 390 443 390 420 422 c 128,-1,13
 397 454 397 454 343 454 c 0,14,15
 278 454 278 454 229 411 c 128,-1,16
 180 368 180 368 163 294 c 1,17,-1
 177 408 l 1,18,19
 211 462 211 462 260.5 491 c 128,-1,20
 310 520 310 520 367 520 c 0,21,22
 449 520 449 520 488 469 c 128,-1,23
 527 418 527 418 507 332 c 2,24,-1
 405 -107 l 2,25,26
 393 -158 393 -158 360.5 -186.5 c 128,-1,27
 328 -215 328 -215 272 -215 c 0,0,1
18 0 m 1,28,-1
 135 510 l 1,29,-1
 207 510 l 1,30,-1
 181 396 l 1,31,-1
 186 396 l 1,32,-1
 95 0 l 1,33,-1
 18 0 l 1,28,-1
EndSplineSet
EndChar

StartChar: o
Encoding: 111 111 214
Width: 546
GlyphClass: 2
Flags: W
AnchorPoint: "Anchor-3" 333 20 basechar 0
AnchorPoint: "Anchor-2" 213 0 basechar 0
AnchorPoint: "Anchor-1" 583 510 basechar 0
AnchorPoint: "Anchor-0" 330 510 basechar 0
LayerCount: 2
Fore
SplineSet
235 -10 m 0,0,1
 176 -10 176 -10 131.5 17 c 128,-1,2
 87 44 87 44 62 92.5 c 128,-1,3
 37 141 37 141 37 206 c 0,4,5
 37 270 37 270 58.5 327 c 128,-1,6
 80 384 80 384 117.5 427.5 c 128,-1,7
 155 471 155 471 204.5 495.5 c 128,-1,8
 254 520 254 520 311 520 c 0,9,10
 371 520 371 520 416 493.5 c 128,-1,11
 461 467 461 467 485.5 419 c 128,-1,12
 510 371 510 371 510 307 c 0,13,14
 510 242 510 242 488 185 c 128,-1,15
 466 128 466 128 427.5 84 c 128,-1,16
 389 40 389 40 340 15 c 128,-1,17
 291 -10 291 -10 235 -10 c 0,0,1
240 56 m 0,18,19
 276 56 276 56 309.32421875 76.4326171875 c 4
 342 96 342 96 367.12109375 131.294921875 c 4
 392 166 392 166 406.916503906 211.094726562 c 128,-1,22
 422 256 422 256 421.602539062 306.85546875 c 4,23,24
 422 375 422 375 389.861328125 414.0859375 c 4
 358 453 358 453 303.165039062 453.487304688 c 4,26,27
 266 453 266 453 233.5234375 434.036132812 c 132,-1,28
 201 415 201 415 176.200195312 380.669921875 c 4
 152 347 152 347 137.352539062 301.8671875 c 4
 123 257 123 257 123.139648438 206.107421875 c 4,31,32
 123 137 123 137 154.880859375 96.880859375 c 4
 187 56 187 56 240 56 c 0,18,19
EndSplineSet
Substitution2: "Single Substitution lookup 17 subtable" ordmasculine
Substitution2: "'aalt' Access All Alternates in Latin lookup 0 subtable" ordmasculine
EndChar

StartChar: oslash
Encoding: 248 248 221
Width: 546
GlyphClass: 1
Flags: W
LayerCount: 2
Fore
SplineSet
235 -10 m 0,0,1
 176 -10 176 -10 131.5 17 c 128,-1,2
 87 44 87 44 62 92.5 c 128,-1,3
 37 141 37 141 37 206 c 0,4,5
 37 270 37 270 58.5 327 c 128,-1,6
 80 384 80 384 117.5 427.5 c 128,-1,7
 155 471 155 471 204.5 495.5 c 128,-1,8
 254 520 254 520 311 520 c 0,9,10
 371 520 371 520 416 493.5 c 128,-1,11
 461 467 461 467 485.5 419 c 128,-1,12
 510 371 510 371 510 307 c 0,13,14
 510 242 510 242 488 185 c 128,-1,15
 466 128 466 128 427.5 84 c 128,-1,16
 389 40 389 40 340 15 c 128,-1,17
 291 -10 291 -10 235 -10 c 0,0,1
240 56 m 0,18,19
 278 56 278 56 312.5 76 c 128,-1,20
 347 96 347 96 373.5 131 c 128,-1,21
 400 166 400 166 415.5 211 c 128,-1,22
 431 256 431 256 431 307 c 0,23,24
 431 375 431 375 397.5 414.5 c 128,-1,25
 364 454 364 454 306 454 c 0,26,27
 267 454 267 454 232.5 434.5 c 128,-1,28
 198 415 198 415 172 381 c 128,-1,29
 146 347 146 347 131 302 c 128,-1,30
 116 257 116 257 116 206 c 0,31,32
 116 137 116 137 149.5 96.5 c 128,-1,33
 183 56 183 56 240 56 c 0,18,19
17 -4 m 1,34,-1
 -15 37 l 1,35,-1
 529 514 l 1,36,-1
 561 473 l 1,37,-1
 17 -4 l 1,34,-1
EndSplineSet
EndChar

StartChar: oe
Encoding: 339 339 223
Width: 873
GlyphClass: 1
Flags: W
LayerCount: 2
Fore
SplineSet
225 -10 m 0,0,1
 171 -10 171 -10 128.5 17 c 128,-1,2
 86 44 86 44 61.5 92.5 c 128,-1,3
 37 141 37 141 37 206 c 0,4,5
 37 270 37 270 58 327 c 128,-1,6
 79 384 79 384 116 427.5 c 128,-1,7
 153 471 153 471 200.5 495.5 c 128,-1,8
 248 520 248 520 301 520 c 0,9,10
 356 520 356 520 398 493.5 c 128,-1,11
 440 467 440 467 463.5 419 c 128,-1,12
 487 371 487 371 487 307 c 0,13,14
 487 242 487 242 466 185 c 128,-1,15
 445 128 445 128 408 84 c 128,-1,16
 371 40 371 40 324 15 c 128,-1,17
 277 -10 277 -10 225 -10 c 0,0,1
230 56 m 0,18,19
 265 56 265 56 297 76 c 128,-1,20
 329 96 329 96 354.5 131 c 128,-1,21
 380 166 380 166 395.5 211 c 128,-1,22
 411 256 411 256 411 307 c 0,23,24
 411 375 411 375 378.5 414.5 c 128,-1,25
 346 454 346 454 296 454 c 0,26,27
 259 454 259 454 226.5 434.5 c 128,-1,28
 194 415 194 415 169 381 c 128,-1,29
 144 347 144 347 130 302 c 128,-1,30
 116 257 116 257 116 206 c 0,31,32
 116 137 116 137 148.5 96.5 c 128,-1,33
 181 56 181 56 230 56 c 0,18,19
592 -10 m 0,34,35
 537 -10 537 -10 495.5 16 c 128,-1,36
 454 42 454 42 431 89.5 c 128,-1,37
 408 137 408 137 408 201 c 0,38,39
 408 248 408 248 420.5 294 c 128,-1,40
 433 340 433 340 456 380.5 c 128,-1,41
 479 421 479 421 511.5 452.5 c 128,-1,42
 544 484 544 484 583.5 502 c 128,-1,43
 623 520 623 520 669 520 c 0,44,45
 721 520 721 520 760.5 497 c 128,-1,46
 800 474 800 474 822 432 c 128,-1,47
 844 390 844 390 844 333 c 0,48,49
 844 307 844 307 839 280.5 c 128,-1,50
 834 254 834 254 825 233 c 1,51,-1
 465 233 l 1,52,-1
 479 298 l 1,53,-1
 793 298 l 1,54,-1
 758 245 l 1,55,56
 767 280 767 280 768 316.5 c 128,-1,57
 769 353 769 353 759.5 384 c 128,-1,58
 750 415 750 415 727 434.5 c 128,-1,59
 704 454 704 454 665 454 c 0,60,61
 634 454 634 454 607 439 c 128,-1,62
 580 424 580 424 557.5 399 c 128,-1,63
 535 374 535 374 518.5 341.5 c 128,-1,64
 502 309 502 309 493 273 c 128,-1,65
 484 237 484 237 484 202 c 0,66,67
 484 133 484 133 517 94.5 c 128,-1,68
 550 56 550 56 602 56 c 0,69,70
 640 56 640 56 671.5 78.5 c 128,-1,71
 703 101 703 101 723 146 c 1,72,-1
 796 146 l 1,73,74
 764 68 764 68 711 29 c 128,-1,75
 658 -10 658 -10 592 -10 c 0,34,35
EndSplineSet
EndChar

StartChar: p
Encoding: 112 112 224
Width: 567
GlyphClass: 1
Flags: W
LayerCount: 2
Fore
SplineSet
267 -9 m 0,0,1
 220 -9 220 -9 185 9.5 c 128,-1,2
 150 28 150 28 131 61.5 c 128,-1,3
 112 95 112 95 112 138 c 1,4,-1
 128 141 l 1,5,-1
 59 -155 l 5,6,-1
 -19 -155 l 5,7,-1
 135 510 l 1,8,-1
 207 510 l 1,9,-1
 183 411 l 1,10,-1
 180 416 l 1,11,12
 207 466 207 466 254 493 c 128,-1,13
 301 520 301 520 357 520 c 0,14,15
 438 520 438 520 484 466 c 128,-1,16
 530 412 530 412 530 319 c 0,17,18
 530 252 530 252 509.5 192.5 c 128,-1,19
 489 133 489 133 452.5 88 c 128,-1,20
 416 43 416 43 368.5 17 c 128,-1,21
 321 -9 321 -9 267 -9 c 0,0,1
263 59 m 0,22,23
 303 59 303 59 337 78.5 c 128,-1,24
 371 98 371 98 396.5 132.5 c 128,-1,25
 422 167 422 167 436.5 212.5 c 128,-1,26
 451 258 451 258 451 308 c 0,27,28
 451 376 451 376 420 414 c 128,-1,29
 389 452 389 452 333 452 c 0,30,31
 299 452 299 452 270 437.5 c 128,-1,32
 241 423 241 423 217.5 398 c 128,-1,33
 194 373 194 373 177 340.5 c 128,-1,34
 160 308 160 308 151 272.5 c 128,-1,35
 142 237 142 237 142 203 c 0,36,37
 142 135 142 135 175.5 97 c 128,-1,38
 209 59 209 59 263 59 c 0,22,23
EndSplineSet
EndChar

StartChar: thorn
Encoding: 254 254 225
Width: 567
GlyphClass: 1
Flags: W
LayerCount: 2
Fore
SplineSet
267 -9 m 0,0,1
 220 -9 220 -9 185 9.5 c 128,-1,2
 150 28 150 28 131 61.5 c 128,-1,3
 112 95 112 95 112 138 c 1,4,-1
 127 141 l 1,5,-1
 47 -205 l 1,6,-1
 -30 -205 l 1,7,-1
 183 720 l 1,8,-1
 260 720 l 1,9,-1
 188 411 l 1,10,-1
 180 416 l 1,11,12
 207 466 207 466 254 493 c 128,-1,13
 301 520 301 520 357 520 c 0,14,15
 438 520 438 520 484 466 c 128,-1,16
 530 412 530 412 530 319 c 0,17,18
 530 252 530 252 509.5 192.5 c 128,-1,19
 489 133 489 133 452.5 88 c 128,-1,20
 416 43 416 43 368.5 17 c 128,-1,21
 321 -9 321 -9 267 -9 c 0,0,1
263 59 m 0,22,23
 303 59 303 59 337 78.5 c 128,-1,24
 371 98 371 98 396.5 132.5 c 128,-1,25
 422 167 422 167 436.5 212.5 c 128,-1,26
 451 258 451 258 451 308 c 0,27,28
 451 376 451 376 420 414 c 128,-1,29
 389 452 389 452 333 452 c 0,30,31
 299 452 299 452 270 437.5 c 128,-1,32
 241 423 241 423 217.5 398 c 128,-1,33
 194 373 194 373 177 340.5 c 128,-1,34
 160 308 160 308 151 272.5 c 128,-1,35
 142 237 142 237 142 203 c 0,36,37
 142 135 142 135 175.5 97 c 128,-1,38
 209 59 209 59 263 59 c 0,22,23
EndSplineSet
EndChar

StartChar: q
Encoding: 113 113 226
Width: 568
GlyphClass: 1
Flags: W
LayerCount: 2
Fore
SplineSet
311 -156.799804688 m 5,0,-1
 378 100 l 1,1,-1
 387 95 l 1,2,3
 360 44 360 44 313.5 17 c 128,-1,4
 267 -10 267 -10 210 -10 c 0,5,6
 129 -10 129 -10 83 44.5 c 128,-1,7
 37 99 37 99 37 191 c 0,8,9
 37 258 37 258 57.5 317.5 c 128,-1,10
 78 377 78 377 114.5 422 c 128,-1,11
 151 467 151 467 198 493 c 128,-1,12
 245 519 245 519 299 519 c 0,13,14
 346 519 346 519 381 500.5 c 128,-1,15
 416 482 416 482 436 449 c 128,-1,16
 456 416 456 416 455 372 c 1,17,-1
 444 370 l 1,18,-1
 479 510 l 1,19,-1
 551 510 l 1,20,-1
 388 -156.799804688 l 5,21,-1
 311 -156.799804688 l 5,0,-1
234 58 m 0,22,23
 267 58 267 58 296.5 72.5 c 128,-1,24
 326 87 326 87 349 112 c 128,-1,25
 372 137 372 137 389.5 169.5 c 128,-1,26
 407 202 407 202 415.5 237.5 c 128,-1,27
 424 273 424 273 424 307 c 0,28,29
 424 375 424 375 391.5 413 c 128,-1,30
 359 451 359 451 303 451 c 0,31,32
 250 451 250 451 207.5 417.5 c 128,-1,33
 165 384 165 384 140.5 328 c 128,-1,34
 116 272 116 272 116 204 c 0,35,36
 116 137 116 137 147 97.5 c 128,-1,37
 178 58 178 58 234 58 c 0,22,23
EndSplineSet
EndChar

StartChar: r
Encoding: 114 114 227
Width: 350
GlyphClass: 2
Flags: W
AnchorPoint: "Anchor-2" 55 0 basechar 0
AnchorPoint: "Anchor-0" 260 510 basechar 0
LayerCount: 2
Fore
SplineSet
17 0 m 1,0,-1
 135 510 l 1,1,-1
 207 510 l 1,2,-1
 178 386 l 1,3,-1
 183 386 l 1,4,-1
 94 0 l 1,5,-1
 17 0 l 1,0,-1
162 297 m 1,6,-1
 173 407 l 1,7,8
 201 459 201 459 245.5 489.5 c 128,-1,9
 290 520 290 520 343 520 c 0,10,11
 358 520 358 520 369 518 c 128,-1,12
 380 516 380 516 387 513 c 1,13,-1
 370 439 l 1,14,15
 363 441 363 441 348.5 443.5 c 128,-1,16
 334 446 334 446 320 446 c 0,17,18
 261 446 261 446 219.5 408 c 128,-1,19
 178 370 178 370 162 297 c 1,6,-1
EndSplineSet
EndChar

StartChar: s
Encoding: 115 115 231
Width: 432
GlyphClass: 2
Flags: W
AnchorPoint: "Anchor-2" 171 0 basechar 0
AnchorPoint: "Anchor-0" 280 510 basechar 0
LayerCount: 2
Fore
SplineSet
194 -10 m 0,0,1
 135 -10 135 -10 93.5 12 c 128,-1,2
 52 34 52 34 31 72 c 128,-1,3
 10 110 10 110 13 156 c 1,4,-1
 86 156 l 1,5,6
 86 127 86 127 99 104 c 128,-1,7
 112 81 112 81 137.5 67.5 c 128,-1,8
 163 54 163 54 198 54 c 0,9,10
 245 54 245 54 272.5 76.5 c 128,-1,11
 300 99 300 99 300 136 c 0,12,13
 300 161 300 161 286 178 c 128,-1,14
 272 195 272 195 242 210 c 2,15,-1
 175 245 l 2,16,17
 128 268 128 268 104.5 298 c 128,-1,18
 81 328 81 328 81 370 c 0,19,20
 81 414 81 414 103.5 448 c 128,-1,21
 126 482 126 482 165.5 501 c 128,-1,22
 205 520 205 520 256 520 c 0,23,24
 308 520 308 520 344.5 500 c 128,-1,25
 381 480 381 480 400 446.5 c 128,-1,26
 419 413 419 413 419 370 c 1,27,-1
 346 370 l 1,28,29
 345 395 345 395 333.5 414.5 c 128,-1,30
 322 434 322 434 301 445 c 128,-1,31
 280 456 280 456 248 456 c 0,32,33
 205 456 205 456 180.5 435.5 c 128,-1,34
 156 415 156 415 156 380 c 0,35,36
 156 357 156 357 170 340 c 128,-1,37
 184 323 184 323 215 307 c 2,38,-1
 280 273 l 2,39,40
 328 249 328 249 351 217.5 c 128,-1,41
 374 186 374 186 374 145 c 0,42,43
 374 99 374 99 351.5 63.5 c 128,-1,44
 329 28 329 28 289 9 c 128,-1,45
 249 -10 249 -10 194 -10 c 0,0,1
EndSplineSet
EndChar

StartChar: germandbls
Encoding: 223 223 236
Width: 572
GlyphClass: 1
Flags: W
LayerCount: 2
Fore
SplineSet
274 -9 m 0,0,1
 260 -9 260 -9 242 -7.5 c 128,-1,2
 224 -6 224 -6 205.5 -2 c 128,-1,3
 187 2 187 2 174 8 c 1,4,-1
 188 73 l 1,5,6
 215 63 215 63 238 60 c 128,-1,7
 261 57 261 57 275 57 c 0,8,9
 329 57 329 57 365.5 77.5 c 128,-1,10
 402 98 402 98 421 134 c 128,-1,11
 440 170 440 170 440 214 c 0,12,13
 441 271 441 271 408 308.5 c 128,-1,14
 375 346 375 346 320 346 c 2,15,-1
 270 346 l 1,16,-1
 286 413 l 1,17,-1
 334 413 l 2,18,19
 363 413 363 413 390 423 c 128,-1,20
 417 433 417 433 438 452 c 128,-1,21
 459 471 459 471 471 498 c 128,-1,22
 483 525 483 525 483 559 c 0,23,24
 483 609 483 609 454.5 638.5 c 128,-1,25
 426 668 426 668 372 668 c 0,26,27
 314 668 314 668 272.5 631 c 128,-1,28
 231 594 231 594 213 516 c 2,29,-1
 94 0 l 1,30,-1
 17 0 l 1,31,-1
 139 529 l 2,32,33
 162 627 162 627 224 678.5 c 128,-1,34
 286 730 286 730 372 730 c 0,35,36
 409 730 409 730 443 720 c 128,-1,37
 477 710 477 710 504 690 c 128,-1,38
 531 670 531 670 547 639.5 c 128,-1,39
 563 609 563 609 563 567 c 0,40,41
 563 521 563 521 544.5 482 c 128,-1,42
 526 443 526 443 495 416 c 128,-1,43
 464 389 464 389 426 376 c 128,-1,44
 388 363 388 363 349 368 c 1,45,-1
 348 390 l 1,46,47
 430 380 430 380 474 333 c 128,-1,48
 518 286 518 286 518 215 c 0,49,50
 518 150 518 150 485.5 99.5 c 128,-1,51
 453 49 453 49 398 20 c 128,-1,52
 343 -9 343 -9 274 -9 c 0,0,1
EndSplineSet
EndChar

StartChar: t
Encoding: 116 116 237
Width: 350
GlyphClass: 2
Flags: W
AnchorPoint: "Anchor-2" 170 0 basechar 0
AnchorPoint: "Anchor-1" 405 775 basechar 0
AnchorPoint: "Anchor-0" 231 510 basechar 0
LayerCount: 2
Fore
SplineSet
208 -9 m 0,0,1
 129 -9 129 -9 100 32 c 128,-1,2
 71 73 71 73 87 142 c 2,3,-1
 197 622 l 1,4,-1
 281 652 l 1,5,-1
 161 132 l 2,6,7
 152 93 152 93 168.5 74.5 c 128,-1,8
 185 56 185 56 230 56 c 0,9,10
 247 56 247 56 261 58.5 c 128,-1,11
 275 61 275 61 284 64 c 1,12,-1
 269 -1 l 1,13,14
 259 -5 259 -5 243.5 -7 c 128,-1,15
 228 -9 228 -9 208 -9 c 0,0,1
60 445 m 1,16,-1
 75 510 l 1,17,-1
 387 510 l 1,18,-1
 372 445 l 1,19,-1
 60 445 l 1,16,-1
EndSplineSet
EndChar

StartChar: u
Encoding: 117 117 240
Width: 550
GlyphClass: 2
Flags: W
AnchorPoint: "Anchor-3" 415 0 basechar 0
AnchorPoint: "Anchor-2" 217 0 basechar 0
AnchorPoint: "Anchor-1" 589 510 basechar 0
AnchorPoint: "Anchor-0" 335 510 basechar 0
LayerCount: 2
Fore
SplineSet
190 -10 m 0,0,1
 110 -10 110 -10 71.5 41.5 c 128,-1,2
 33 93 33 93 53 178 c 2,3,-1
 130 510 l 1,4,-1
 207 510 l 1,5,-1
 131 181 l 2,6,7
 117 121 117 121 139.5 88.5 c 128,-1,8
 162 56 162 56 214 56 c 0,9,10
 276 56 276 56 323.5 99 c 128,-1,11
 371 142 371 142 389 216 c 1,12,-1
 375 102 l 1,13,14
 341 48 341 48 292 19 c 128,-1,15
 243 -10 243 -10 190 -10 c 0,0,1
344 0 m 1,16,-1
 371 114 l 1,17,-1
 365 114 l 1,18,-1
 456 510 l 1,19,-1
 533 510 l 1,20,-1
 415 0 l 1,21,-1
 344 0 l 1,16,-1
EndSplineSet
EndChar

StartChar: v
Encoding: 118 118 250
Width: 489
GlyphClass: 1
Flags: W
LayerCount: 2
Fore
SplineSet
156 0 m 1,0,-1
 78 510 l 1,1,-1
 156 510 l 1,2,-1
 214 59 l 1,3,-1
 180 59 l 1,4,-1
 446 510 l 1,5,-1
 530 510 l 1,6,-1
 216 0 l 1,7,-1
 156 0 l 1,0,-1
EndSplineSet
EndChar

StartChar: w
Encoding: 119 119 251
Width: 727
GlyphClass: 2
Flags: W
AnchorPoint: "Anchor-2" 305 0 basechar 0
AnchorPoint: "Anchor-0" 423 510 basechar 0
LayerCount: 2
Fore
SplineSet
118 0 m 1,0,-1
 88 510 l 1,1,-1
 163 510 l 1,2,-1
 176 79 l 1,3,-1
 156 79 l 1,4,-1
 392 510 l 1,5,-1
 452 510 l 1,6,-1
 488 79 l 1,7,-1
 466 79 l 1,8,-1
 678 510 l 1,9,-1
 757 510 l 1,10,-1
 491 0 l 1,11,-1
 431 0 l 1,12,-1
 394 422 l 1,13,-1
 416 422 l 1,14,-1
 181 0 l 1,15,-1
 118 0 l 1,0,-1
EndSplineSet
EndChar

StartChar: x
Encoding: 120 120 256
Width: 510
GlyphClass: 1
Flags: W
LayerCount: 2
Fore
SplineSet
339 0 m 1,0,-1
 238 238 l 1,1,-1
 109 510 l 1,2,-1
 190 510 l 1,3,-1
 284 290 l 1,4,-1
 421 0 l 1,5,-1
 339 0 l 1,0,-1
246 288 m 1,6,-1
 443 510 l 1,7,-1
 532 510 l 1,8,-1
 279 234 l 1,9,-1
 246 288 l 1,6,-1
270 230 m 1,10,-1
 61 0 l 1,11,-1
 -29 0 l 1,12,-1
 240 287 l 1,13,-1
 270 230 l 1,10,-1
EndSplineSet
EndChar

StartChar: y
Encoding: 65584 -1 257
Width: 489
GlyphClass: 2
Flags: W
AnchorPoint: "Anchor-2" 186 0 basechar 0
AnchorPoint: "Anchor-0" 307 510 basechar 0
LayerCount: 2
Fore
SplineSet
3 -215 m 0,0,1
 -13 -215 -13 -215 -24.5 -212.5 c 128,-1,2
 -36 -210 -36 -210 -44 -208 c 1,3,-1
 -29 -147 l 1,4,5
 -23 -149 -23 -149 -12 -151 c 128,-1,6
 -1 -153 -1 -153 13 -153 c 0,7,8
 46 -153 46 -153 66 -139 c 128,-1,9
 86 -125 86 -125 111 -82 c 2,10,-1
 183 47 l 1,11,-1
 201 79 l 1,12,-1
 447 510 l 1,13,-1
 530 510 l 1,14,-1
 165 -113 l 2,15,16
 141 -152 141 -152 117 -174.5 c 128,-1,17
 93 -197 93 -197 65.5 -206 c 128,-1,18
 38 -215 38 -215 3 -215 c 0,0,1
170 -2 m 1,19,-1
 78 510 l 1,20,-1
 157 510 l 1,21,-1
 231 57 l 1,22,-1
 170 -2 l 1,19,-1
EndSplineSet
Substitution2: "'calt' Contextual Alternates in Latin lookup 24 subtable" y.ss03
Substitution2: "'aalt' Access All Alternates in Latin lookup 0 subtable" y.ss03
EndChar

StartChar: z
Encoding: 122 122 262
Width: 459
GlyphClass: 2
Flags: W
AnchorPoint: "Anchor-2" 171 0 basechar 0
AnchorPoint: "Anchor-0" 289 510 basechar 0
LayerCount: 2
Fore
SplineSet
-10 0 m 1,0,-1
 2 56 l 1,1,-1
 379 479 l 1,2,-1
 407 445 l 1,3,-1
 103 445 l 1,4,-1
 118 510 l 1,5,-1
 468 510 l 1,6,-1
 455 455 l 1,7,-1
 79 31 l 1,8,-1
 51 66 l 1,9,-1
 374 66 l 1,10,-1
 359 0 l 1,11,-1
 -10 0 l 1,0,-1
EndSplineSet
EndChar

StartChar: a.ss02
Encoding: 97 97 289
Width: 567
GlyphClass: 2
Flags: W
AnchorPoint: "Anchor-3" 460 -5 basechar 0
AnchorPoint: "Anchor-2" 225 0 basechar 0
AnchorPoint: "Anchor-0" 343 510 basechar 0
LayerCount: 2
Fore
SplineSet
488 224 m 1048,0,-1
210 -10 m 0,1,2
 129 -10 129 -10 83 44.5 c 128,-1,3
 37 99 37 99 37 191 c 0,4,5
 37 258 37 258 57.5 317.5 c 128,-1,6
 78 377 78 377 114.5 422 c 128,-1,7
 151 467 151 467 198 493 c 128,-1,8
 245 519 245 519 299 519 c 0,9,10
 346 519 346 519 381 500.5 c 128,-1,11
 416 482 416 482 436 449 c 128,-1,12
 456 416 456 416 455 372 c 1,13,-1
 444 370 l 1,14,-1
 480 502 l 1,15,-1
 562 502 l 1,16,17
 535.841463415 427.012195122 535.841463415 427.012195122 490 224 c 4,18,19
 462 102 462 102 459 -5 c 1,20,-1
 377 -5 l 1,21,-1
 383 100 l 1,22,-1
 387 95 l 1,23,24
 360 44 360 44 313.5 17 c 128,-1,25
 267 -10 267 -10 210 -10 c 0,1,2
234 58 m 0,26,27
 267 58 267 58 296.5 72.5 c 128,-1,28
 326 87 326 87 349 112 c 128,-1,29
 372 137 372 137 389.5 169.5 c 128,-1,30
 407 202 407 202 415.5 237.5 c 128,-1,31
 424 273 424 273 424 307 c 0,32,33
 424 375 424 375 391.5 413 c 128,-1,34
 359 451 359 451 303 451 c 0,35,36
 250 451 250 451 207.5 417.5 c 128,-1,37
 165 384 165 384 140.5 328 c 128,-1,38
 116 272 116 272 116 204 c 0,39,40
 116 137 116 137 147 97.5 c 128,-1,41
 178 58 178 58 234 58 c 0,26,27
EndSplineSet
EndChar

StartChar: y.ss03
Encoding: 121 121 300
Width: 489
GlyphClass: 2
Flags: W
AnchorPoint: "Anchor-2" 186 0 basechar 0
AnchorPoint: "Anchor-0" 304 510 basechar 0
LayerCount: 2
Fore
SplineSet
33 -156.799804688 m 5,0,-1
 171 61 l 1,1,-1
 192 88 l 1,2,-1
 445 510 l 1,3,-1
 530 510 l 1,4,-1
 120 -156.799804688 l 5,5,-1
 33 -156.799804688 l 5,0,-1
170 -2 m 1,6,-1
 78 510 l 1,7,-1
 157 510 l 1,8,-1
 231 57 l 1,9,-1
 170 -2 l 1,6,-1
EndSplineSet
EndChar

StartChar: k.ss04
Encoding: 65612 -1 305
Width: 501
GlyphClass: 2
Flags: W
AnchorPoint: "Anchor-2" 212 0 basechar 0
AnchorPoint: "Anchor-0" 363 740 basechar 0
LayerCount: 2
Fore
SplineSet
17 0 m 1,0,-1
 183 720 l 1,1,-1
 260 720 l 1,2,-1
 94 0 l 1,3,-1
 17 0 l 1,0,-1
130 232 m 1,4,-1
 433 510 l 1,5,-1
 536 510 l 1,6,-1
 280 277 l 1,7,-1
 269 275 l 1,8,-1
 111 136 l 1,9,-1
 130 232 l 1,4,-1
301 304 m 1,10,-1
 430 0 l 1,11,-1
 349 0 l 1,12,-1
 235 280 l 1,13,-1
 301 304 l 1,10,-1
EndSplineSet
EndChar

StartChar: f_f_i
Encoding: 65617 -1 310
Width: 869
GlyphClass: 3
LigCaretCntFixed: 1
Flags: W
LayerCount: 2
Fore
SplineSet
53 0 m 1,0,-1
 192 605 l 2,1,2
 205 663 205 663 245 696.5 c 128,-1,3
 285 730 285 730 355 730 c 0,4,5
 372 730 372 730 389.5 727.5 c 128,-1,6
 407 725 407 725 420 720 c 1,7,-1
 405 659 l 1,8,9
 398 663 398 663 385 665 c 128,-1,10
 372 667 372 667 358 667 c 0,11,12
 317 667 317 667 295.5 646.5 c 128,-1,13
 274 626 274 626 266 592 c 2,14,-1
 130 0 l 1,15,-1
 53 0 l 1,0,-1
354 0 m 1,16,-1
 493 605 l 2,17,18
 506 663 506 663 546 696.5 c 128,-1,19
 586 730 586 730 655 730 c 0,20,21
 672 730 672 730 690 727.5 c 128,-1,22
 708 725 708 725 721 720 c 1,23,-1
 706 659 l 1,24,25
 699 663 699 663 685.5 665 c 128,-1,26
 672 667 672 667 659 667 c 0,27,28
 618 667 618 667 596.5 646.5 c 128,-1,29
 575 626 575 626 567 592 c 2,30,-1
 431 0 l 1,31,-1
 354 0 l 1,16,-1
655 0 m 1,32,-1
 773 510 l 1,33,-1
 850 510 l 1,34,-1
 732 0 l 1,35,-1
 655 0 l 1,32,-1
60 445 m 1,36,-1
 75 510 l 1,37,-1
 813 510 l 1,38,-1
 798 445 l 1,39,-1
 60 445 l 1,36,-1
793 628 m 1,40,-1
 814 720 l 1,41,-1
 904 720 l 1,42,-1
 883 628 l 1,43,-1
 793 628 l 1,40,-1
EndSplineSet
Substitution2: "'ss01' Style Set 1 in Latin lookup 22 subtable" f_f_i.ss01
Ligature2: "'liga' Standard Ligatures in Latin lookup 21 subtable" f f i
Substitution2: "'aalt' Access All Alternates in Latin lookup 0 subtable" f_f_i.ss01
LCarets2: 2 289 579
EndChar

StartChar: f_f_l
Encoding: 65618 -1 311
Width: 867
GlyphClass: 3
LigCaretCntFixed: 1
Flags: W
LayerCount: 2
Fore
SplineSet
354 0 m 1,0,-1
 491 595 l 2,1,2
 504 653 504 653 544 686.5 c 128,-1,3
 584 720 584 720 654 720 c 2,4,-1
 849 720 l 1,5,-1
 834 658 l 1,6,-1
 657 658 l 2,7,8
 616 658 616 658 594.5 637 c 128,-1,9
 573 616 573 616 565 582 c 2,10,-1
 431 0 l 1,11,-1
 354 0 l 1,0,-1
53 0 m 1,12,-1
 190 595 l 2,13,14
 203 653 203 653 243 686.5 c 128,-1,15
 283 720 283 720 353 720 c 0,16,17
 370 720 370 720 387.5 717.5 c 128,-1,18
 405 715 405 715 418 710 c 1,19,-1
 403 649 l 1,20,21
 396 653 396 653 383 655 c 128,-1,22
 370 657 370 657 356 657 c 0,23,24
 315 657 315 657 293.5 636.5 c 128,-1,25
 272 616 272 616 264 582 c 2,26,-1
 130 0 l 1,27,-1
 53 0 l 1,12,-1
60 445 m 1,28,-1
 75 510 l 1,29,-1
 656 510 l 1,30,-1
 642 445 l 1,31,-1
 60 445 l 1,28,-1
655 0 m 1,32,-1
 821 720 l 1,33,-1
 898 720 l 1,34,-1
 732 0 l 1,35,-1
 655 0 l 1,32,-1
EndSplineSet
Ligature2: "'liga' Standard Ligatures in Latin lookup 21 subtable" f f l
LCarets2: 2 289 578
EndChar

StartChar: f_i
Encoding: 65619 -1 312
Width: 558
GlyphClass: 3
LigCaretCntFixed: 1
Flags: W
AnchorPoint: "Anchor-5" 82 0 baselig 0
AnchorPoint: "Anchor-4" 253 740 baselig 0
AnchorPoint: "Anchor-5" 362 0 baselig 1
AnchorPoint: "Anchor-4" 533 740 baselig 1
LayerCount: 2
Fore
SplineSet
53 0 m 1,0,-1
 192 605 l 2,1,2
 205 663 205 663 245 696.5 c 128,-1,3
 285 730 285 730 354 730 c 0,4,5
 371 730 371 730 389 727.5 c 128,-1,6
 407 725 407 725 420 720 c 1,7,-1
 405 659 l 1,8,9
 398 663 398 663 384.5 665 c 128,-1,10
 371 667 371 667 358 667 c 0,11,12
 317 667 317 667 295.5 646.5 c 128,-1,13
 274 626 274 626 266 592 c 2,14,-1
 130 0 l 1,15,-1
 53 0 l 1,0,-1
354 0 m 1,16,-1
 472 510 l 1,17,-1
 549 510 l 1,18,-1
 431 0 l 1,19,-1
 354 0 l 1,16,-1
60 445 m 1,20,-1
 75 510 l 1,21,-1
 512 510 l 1,22,-1
 497 445 l 1,23,-1
 60 445 l 1,20,-1
492 628 m 1,24,-1
 513 720 l 1,25,-1
 603 720 l 1,26,-1
 582 628 l 1,27,-1
 492 628 l 1,24,-1
EndSplineSet
Substitution2: "'ss01' Style Set 1 in Latin lookup 22 subtable" f_i.ss01
Ligature2: "'liga' Standard Ligatures in Latin lookup 21 subtable" f i
Substitution2: "'aalt' Access All Alternates in Latin lookup 0 subtable" f_i.ss01
LCarets2: 1 281
EndChar

StartChar: f_l
Encoding: 65620 -1 313
Width: 566
GlyphClass: 3
LigCaretCntFixed: 1
Flags: W
AnchorPoint: "Anchor-5" 83 0 baselig 0
AnchorPoint: "Anchor-4" 254 740 baselig 0
AnchorPoint: "Anchor-5" 365 0 baselig 1
AnchorPoint: "Anchor-4" 536 740 baselig 1
LayerCount: 2
Fore
SplineSet
53 0 m 1,0,-1
 190 595 l 2,1,2
 203 653 203 653 243 686.5 c 128,-1,3
 283 720 283 720 353 720 c 2,4,-1
 548 720 l 1,5,-1
 533 658 l 1,6,-1
 356 658 l 2,7,8
 315 658 315 658 293.5 637 c 128,-1,9
 272 616 272 616 264 582 c 2,10,-1
 130 0 l 1,11,-1
 53 0 l 1,0,-1
60 445 m 1,12,-1
 75 510 l 1,13,-1
 355 510 l 1,14,-1
 341 445 l 1,15,-1
 60 445 l 1,12,-1
354 0 m 1,16,-1
 520 720 l 1,17,-1
 597 720 l 1,18,-1
 431 0 l 1,19,-1
 354 0 l 1,16,-1
EndSplineSet
Ligature2: "'liga' Standard Ligatures in Latin lookup 21 subtable" f l
LCarets2: 1 283
EndChar

StartChar: w_w_w.liga
Encoding: 65621 -1 314
Width: 1975
GlyphClass: 3
LigCaretCntFixed: 1
Flags: W
AnchorPoint: "Anchor-5" 270 0 baselig 0
AnchorPoint: "Anchor-4" 388 510 baselig 0
AnchorPoint: "Anchor-5" 929 0 baselig 1
AnchorPoint: "Anchor-4" 1047 510 baselig 1
AnchorPoint: "Anchor-5" 1587 0 baselig 2
AnchorPoint: "Anchor-4" 1705 510 baselig 2
LayerCount: 2
Fore
SplineSet
118 0 m 1,0,-1
 88 510 l 1,1,-1
 163 510 l 1,2,-1
 176 79 l 1,3,-1
 156 79 l 1,4,-1
 391 510 l 1,5,-1
 451 510 l 1,6,-1
 488 79 l 1,7,-1
 468 79 l 1,8,-1
 702 510 l 1,9,-1
 763 510 l 1,10,-1
 799 79 l 1,11,-1
 779 79 l 1,12,-1
 1014 510 l 1,13,-1
 1075 510 l 1,14,-1
 1112 79 l 1,15,-1
 1092 79 l 1,16,-1
 1327 510 l 1,17,-1
 1387 510 l 1,18,-1
 1424 79 l 1,19,-1
 1404 79 l 1,20,-1
 1639 510 l 1,21,-1
 1700 510 l 1,22,-1
 1736 79 l 1,23,-1
 1716 79 l 1,24,-1
 1927 510 l 1,25,-1
 2005 510 l 1,26,-1
 1739 0 l 1,27,-1
 1679 0 l 1,28,-1
 1641 422 l 1,29,-1
 1661 422 l 1,30,-1
 1427 0 l 1,31,-1
 1366 0 l 1,32,-1
 1329 422 l 1,33,-1
 1349 422 l 1,34,-1
 1114 0 l 1,35,-1
 1054 0 l 1,36,-1
 1017 422 l 1,37,-1
 1037 422 l 1,38,-1
 802 0 l 1,39,-1
 742 0 l 1,40,-1
 705 422 l 1,41,-1
 725 422 l 1,42,-1
 491 0 l 1,43,-1
 430 0 l 1,44,-1
 393 422 l 1,45,-1
 413 422 l 1,46,-1
 178 0 l 1,47,-1
 118 0 l 1,0,-1
EndSplineSet
Ligature2: "'liga' Standard Ligatures in Latin lookup 21 subtable" w w w
LCarets2: 2 659 1316
EndChar

StartChar: f_f_i.ss01
Encoding: 65622 -1 315
Width: 868
GlyphClass: 3
LigCaretCntFixed: 1
Flags: W
AnchorPoint: "Anchor-5" 87 0 baselig 0
AnchorPoint: "Anchor-4" 258 740 baselig 0
AnchorPoint: "Anchor-5" 377 0 baselig 1
AnchorPoint: "Anchor-4" 548 740 baselig 1
AnchorPoint: "Anchor-5" 667 0 baselig 2
AnchorPoint: "Anchor-4" 838 740 baselig 2
LayerCount: 2
Fore
SplineSet
354 0 m 1,0,-1
 493 605 l 2,1,2
 506 663 506 663 546 696.5 c 128,-1,3
 586 730 586 730 655 730 c 0,4,5
 672 730 672 730 690 727.5 c 128,-1,6
 708 725 708 725 721 720 c 1,7,-1
 706 659 l 1,8,9
 699 663 699 663 685.5 665 c 128,-1,10
 672 667 672 667 659 667 c 0,11,12
 618 667 618 667 596.5 646.5 c 128,-1,13
 575 626 575 626 567 592 c 2,14,-1
 431 0 l 1,15,-1
 354 0 l 1,0,-1
53 0 m 1,16,-1
 192 605 l 2,17,18
 205 663 205 663 245 696.5 c 128,-1,19
 285 730 285 730 355 730 c 0,20,21
 372 730 372 730 389.5 727.5 c 128,-1,22
 407 725 407 725 420 720 c 1,23,-1
 405 659 l 1,24,25
 398 663 398 663 385 665 c 128,-1,26
 372 667 372 667 358 667 c 0,27,28
 317 667 317 667 295.5 646.5 c 128,-1,29
 274 626 274 626 266 592 c 2,30,-1
 130 0 l 1,31,-1
 53 0 l 1,16,-1
60 445 m 1,32,-1
 75 510 l 1,33,-1
 813 510 l 1,34,-1
 798 445 l 1,35,-1
 60 445 l 1,32,-1
655 0 m 1,36,-1
 773 510 l 1,37,-1
 850 510 l 1,38,-1
 732 0 l 1,39,-1
 655 0 l 1,36,-1
839 606 m 0,40,41
 817 606 817 606 804.5 621 c 128,-1,42
 792 636 792 636 792 656 c 0,43,44
 792 683 792 683 810 699.5 c 128,-1,45
 828 716 828 716 853 716 c 0,46,47
 874 716 874 716 887 702.5 c 128,-1,48
 900 689 900 689 900 668 c 0,49,50
 900 641 900 641 881.5 623.5 c 128,-1,51
 863 606 863 606 839 606 c 0,40,41
EndSplineSet
LCarets2: 2 290 582
EndChar

StartChar: f_i.ss01
Encoding: 65623 -1 316
Width: 577
GlyphClass: 3
LigCaretCntFixed: 1
Flags: W
AnchorPoint: "Anchor-5" 85 0 baselig 0
AnchorPoint: "Anchor-4" 256 740 baselig 0
AnchorPoint: "Anchor-5" 374 0 baselig 1
AnchorPoint: "Anchor-4" 545 740 baselig 1
LayerCount: 2
Fore
SplineSet
53 0 m 1,0,-1
 192 605 l 2,1,2
 205 663 205 663 245 696.5 c 128,-1,3
 285 730 285 730 354 730 c 0,4,5
 371 730 371 730 389 727.5 c 128,-1,6
 407 725 407 725 420 720 c 1,7,-1
 405 659 l 1,8,9
 398 663 398 663 384.5 665 c 128,-1,10
 371 667 371 667 358 667 c 0,11,12
 317 667 317 667 295.5 646.5 c 128,-1,13
 274 626 274 626 266 592 c 2,14,-1
 130 0 l 1,15,-1
 53 0 l 1,0,-1
354 0 m 1,16,-1
 472 510 l 1,17,-1
 549 510 l 1,18,-1
 431 0 l 1,19,-1
 354 0 l 1,16,-1
538 606 m 0,20,21
 516 606 516 606 503.5 621 c 128,-1,22
 491 636 491 636 491 656 c 0,23,24
 491 683 491 683 509 699.5 c 128,-1,25
 527 716 527 716 552 716 c 0,26,27
 573 716 573 716 586 702.5 c 128,-1,28
 599 689 599 689 599 668 c 0,29,30
 599 641 599 641 580.5 623.5 c 128,-1,31
 562 606 562 606 538 606 c 0,20,21
60 445 m 1,32,-1
 75 510 l 1,33,-1
 512 510 l 1,34,-1
 497 445 l 1,35,-1
 60 445 l 1,32,-1
EndSplineSet
LCarets2: 1 289
EndChar

StartChar: ordfeminine
Encoding: 170 170 317
Width: 349
GlyphClass: 1
Flags: W
LayerCount: 2
Fore
SplineSet
270 418 m 1,0,1
 269 427 269 427 270.5 439.5 c 128,-1,2
 272 452 272 452 276 468 c 1,3,-1
 273 469 l 1,4,-1
 307 620 l 2,5,6
 311 642 311 642 303 661 c 128,-1,7
 295 680 295 680 261 680 c 0,8,9
 234 680 234 680 220.5 667.5 c 128,-1,10
 207 655 207 655 199 635 c 1,11,-1
 142 635 l 1,12,13
 156 680 156 680 186 705 c 128,-1,14
 216 730 216 730 266 730 c 0,15,16
 307 730 307 730 331.5 714 c 128,-1,17
 356 698 356 698 364.5 671 c 128,-1,18
 373 644 373 644 365 611 c 2,19,-1
 331 461 l 2,20,21
 328 448 328 448 327 437.5 c 128,-1,22
 326 427 326 427 327 418 c 1,23,-1
 270 418 l 1,0,1
187 412 m 0,24,25
 148 412 148 412 124.5 433 c 128,-1,26
 101 454 101 454 101 488 c 0,27,28
 101 526 101 526 130.5 552 c 128,-1,29
 160 578 160 578 222 591 c 2,30,-1
 317 613 l 1,31,-1
 306 567 l 1,32,-1
 224 548 l 2,33,34
 198 542 198 542 180.5 531 c 128,-1,35
 163 520 163 520 163 495 c 0,36,37
 163 459 163 459 212 459 c 0,38,39
 238 459 238 459 258 474 c 128,-1,40
 278 489 278 489 285 520 c 1,41,-1
 282 472 l 1,42,43
 262 438 262 438 237.5 425 c 128,-1,44
 213 412 213 412 187 412 c 0,24,25
EndSplineSet
EndChar

StartChar: ordmasculine
Encoding: 186 186 318
Width: 388
GlyphClass: 1
Flags: W
LayerCount: 2
Fore
SplineSet
247 412 m 0,0,1
 188 412 188 412 154 449.5 c 128,-1,2
 120 487 120 487 120 545 c 0,3,4
 120 578 120 578 131 610.5 c 128,-1,5
 142 643 142 643 163.5 670.5 c 128,-1,6
 185 698 185 698 216 714 c 128,-1,7
 247 730 247 730 285 730 c 0,8,9
 322 730 322 730 351 714 c 128,-1,10
 380 698 380 698 397 669 c 128,-1,11
 414 640 414 640 414 598 c 0,12,13
 414 565 414 565 402 532.5 c 128,-1,14
 390 500 390 500 368.5 472.5 c 128,-1,15
 347 445 347 445 316.5 428.5 c 128,-1,16
 286 412 286 412 247 412 c 0,0,1
252 464 m 0,17,18
 278 464 278 464 297 478 c 128,-1,19
 316 492 316 492 328.5 514 c 128,-1,20
 341 536 341 536 347 559 c 128,-1,21
 353 582 353 582 353 601 c 0,22,23
 353 636 353 636 333.5 657 c 128,-1,24
 314 678 314 678 282 678 c 0,25,26
 255 678 255 678 235.5 664 c 128,-1,27
 216 650 216 650 204 628.5 c 128,-1,28
 192 607 192 607 186.5 584 c 128,-1,29
 181 561 181 561 181 544 c 0,30,31
 181 509 181 509 200.5 486.5 c 128,-1,32
 220 464 220 464 252 464 c 0,17,18
EndSplineSet
EndChar

StartChar: zero
Encoding: 48 48 319
Width: 615
GlyphClass: 1
Flags: W
LayerCount: 2
Fore
SplineSet
275 -9 m 0,0,1
 209 -9 209 -9 161.5 24.5 c 128,-1,2
 114 58 114 58 88.5 117 c 128,-1,3
 63 176 63 176 63 255 c 0,4,5
 63 301 63 301 72 353.5 c 128,-1,6
 81 406 81 406 99 459.5 c 128,-1,7
 117 513 117 513 144 561 c 128,-1,8
 171 609 171 609 207 647 c 128,-1,9
 243 685 243 685 288.5 707 c 128,-1,10
 334 729 334 729 387 729 c 0,11,12
 453 729 453 729 500.5 697 c 128,-1,13
 548 665 548 665 574.5 606.5 c 128,-1,14
 601 548 601 548 601 468 c 0,15,16
 601 422 601 422 591.5 369.5 c 128,-1,17
 582 317 582 317 564 263.5 c 128,-1,18
 546 210 546 210 518.5 161 c 128,-1,19
 491 112 491 112 455 74 c 128,-1,20
 419 36 419 36 373.5 13.5 c 128,-1,21
 328 -9 328 -9 275 -9 c 0,0,1
278 61 m 0,22,23
 320 61 320 61 354 82 c 128,-1,24
 388 103 388 103 414.5 139 c 128,-1,25
 441 175 441 175 460.5 220 c 128,-1,26
 480 265 480 265 493 312 c 128,-1,27
 506 359 506 359 512 403 c 128,-1,28
 518 447 518 447 518 481 c 0,29,30
 518 567 518 567 482 613.5 c 128,-1,31
 446 660 446 660 384 660 c 0,32,33
 342 660 342 660 308 638.5 c 128,-1,34
 274 617 274 617 247.5 582 c 128,-1,35
 221 547 221 547 202 503 c 128,-1,36
 183 459 183 459 170.5 412 c 128,-1,37
 158 365 158 365 152 321.5 c 128,-1,38
 146 278 146 278 146 244 c 0,39,40
 146 159 146 159 180.5 110 c 128,-1,41
 215 61 215 61 278 61 c 0,22,23
EndSplineSet
Substitution2: "'tnum' Tabular Numbers in Latin lookup 19 subtable" zero.tf
Substitution2: "'aalt' Access All Alternates in Latin lookup 0 subtable" zero.tf
EndChar

StartChar: one
Encoding: 49 49 320
Width: 367
GlyphClass: 1
Flags: W
LayerCount: 2
Fore
SplineSet
149 0 m 1,0,-1
 295 636 l 1,1,-1
 313 626 l 1,2,3
 313 626 313 626 156 549 c 5,4,-1
 172 623 l 5,5,6
 172 623 172 623 335 720 c 1,7,-1
 392 720 l 1,8,-1
 226 0 l 1,9,-1
 149 0 l 1,0,-1
EndSplineSet
Substitution2: "'tnum' Tabular Numbers in Latin lookup 19 subtable" one.tf
Substitution2: "'aalt' Access All Alternates in Latin lookup 0 subtable" one.tf
EndChar

StartChar: two
Encoding: 50 50 321
Width: 510
GlyphClass: 1
Flags: W
LayerCount: 2
Fore
SplineSet
-17 0 m 1,0,-1
 -1 67 l 1,1,2
 119 156 119 156 205 227.5 c 128,-1,3
 291 299 291 299 345 357 c 128,-1,4
 399 415 399 415 425 464 c 128,-1,5
 451 513 451 513 451 557 c 0,6,7
 451 606 451 606 421.5 633 c 128,-1,8
 392 660 392 660 339 660 c 0,9,10
 279 660 279 660 237 623 c 128,-1,11
 195 586 195 586 173 514 c 1,12,-1
 94 514 l 1,13,14
 121 618 121 618 187 673.5 c 128,-1,15
 253 729 253 729 346 729 c 0,16,17
 405 729 405 729 447 708.5 c 128,-1,18
 489 688 489 688 512 651 c 128,-1,19
 535 614 535 614 535 563 c 0,20,21
 535 510 535 510 507 452.5 c 128,-1,22
 479 395 479 395 422.5 331 c 128,-1,23
 366 267 366 267 279 194 c 128,-1,24
 192 121 192 121 73 36 c 1,25,-1
 61 69 l 1,26,-1
 439 69 l 1,27,-1
 423 0 l 1,28,-1
 -17 0 l 1,0,-1
EndSplineSet
Substitution2: "'ss10' Style Set 10 in Latin lookup 31 subtable" two.ss10
Substitution2: "'tnum' Tabular Numbers in Latin lookup 19 subtable" two.tf
AlternateSubs2: "'aalt' Access All Alternates in Latin lookup 1 subtable" two.ss10 two.tf
EndChar

StartChar: three
Encoding: 51 51 322
Width: 533
GlyphClass: 1
Flags: W
LayerCount: 2
Fore
SplineSet
240 -10 m 0,0,1
 185 -10 185 -10 141.5 8 c 128,-1,2
 98 26 98 26 70.5 57.5 c 128,-1,3
 43 89 43 89 32 130.5 c 128,-1,4
 21 172 21 172 29 217 c 1,5,-1
 107 217 l 1,6,7
 103 185 103 185 110 156.5 c 128,-1,8
 117 128 117 128 134.5 106 c 128,-1,9
 152 84 152 84 179.5 71.5 c 128,-1,10
 207 59 207 59 243 59 c 256,11,12
 279 59 279 59 307.5 72.5 c 128,-1,13
 336 86 336 86 356 109 c 128,-1,14
 376 132 376 132 386 161.5 c 128,-1,15
 396 191 396 191 396 224 c 0,16,17
 396 277 396 277 368 310 c 128,-1,18
 340 343 340 343 291 343 c 2,19,-1
 212 343 l 1,20,-1
 227 411 l 1,21,-1
 304 411 l 2,22,23
 352 411 352 411 386.5 430 c 128,-1,24
 421 449 421 449 440 481 c 128,-1,25
 459 513 459 513 459 553 c 0,26,27
 459 604 459 604 428.5 631.5 c 128,-1,28
 398 659 398 659 342 659 c 0,29,30
 285 659 285 659 245 624.5 c 128,-1,31
 205 590 205 590 187 521 c 1,32,-1
 106 521 l 1,33,34
 131 622 131 622 193.5 675.5 c 128,-1,35
 256 729 256 729 344 729 c 0,36,37
 404 729 404 729 449 708 c 128,-1,38
 494 687 494 687 519 649.5 c 128,-1,39
 544 612 544 612 544 561 c 0,40,41
 544 518 544 518 527 480.5 c 128,-1,42
 510 443 510 443 480 415.5 c 128,-1,43
 450 388 450 388 412 375 c 128,-1,44
 374 362 374 362 331 368 c 1,45,-1
 330 388 l 1,46,47
 400 379 400 379 439.5 334.5 c 128,-1,48
 479 290 479 290 479 219 c 0,49,50
 479 173 479 173 462.5 132 c 128,-1,51
 446 91 446 91 415 58.5 c 128,-1,52
 384 26 384 26 340 8 c 128,-1,53
 296 -10 296 -10 240 -10 c 0,0,1
EndSplineSet
Substitution2: "'tnum' Tabular Numbers in Latin lookup 19 subtable" three.tf
Substitution2: "'aalt' Access All Alternates in Latin lookup 0 subtable" three.tf
EndChar

StartChar: four
Encoding: 52 52 323
Width: 553
GlyphClass: 1
Flags: W
LayerCount: 2
Fore
SplineSet
297 0 m 1,0,-1
 341 188 l 1,1,-1
 346 208 l 1,2,-1
 439 610 l 1,3,-1
 467 610 l 1,4,-1
 101 202 l 1,5,-1
 79 234 l 1,6,-1
 521 234 l 1,7,-1
 505 165 l 1,8,-1
 9 165 l 1,9,-1
 23 224 l 1,10,-1
 467 720 l 1,11,-1
 545 720 l 1,12,-1
 379 0 l 1,13,-1
 297 0 l 1,0,-1
EndSplineSet
Substitution2: "'tnum' Tabular Numbers in Latin lookup 19 subtable" four.tf
Substitution2: "'aalt' Access All Alternates in Latin lookup 0 subtable" four.tf
EndChar

StartChar: five
Encoding: 53 53 324
Width: 537
GlyphClass: 1
Flags: W
LayerCount: 2
Fore
SplineSet
236 -10 m 0,0,1
 179 -10 179 -10 138 8.5 c 128,-1,2
 97 27 97 27 71 58 c 128,-1,3
 45 89 45 89 34.5 126 c 128,-1,4
 24 163 24 163 30 200 c 1,5,-1
 110 200 l 1,6,7
 106 164 106 164 119 131.5 c 128,-1,8
 132 99 132 99 162 79.5 c 128,-1,9
 192 60 192 60 238 60 c 0,10,11
 270 60 270 60 296.5 72 c 128,-1,12
 323 84 323 84 343.5 105 c 128,-1,13
 364 126 364 126 378.5 153 c 128,-1,14
 393 180 393 180 400 210.5 c 128,-1,15
 407 241 407 241 407 270 c 0,16,17
 407 337 407 337 372.5 370.5 c 128,-1,18
 338 404 338 404 278 404 c 0,19,20
 239 404 239 404 207 389 c 128,-1,21
 175 374 175 374 155 344 c 1,22,-1
 89 344 l 1,23,-1
 203 720 l 1,24,-1
 560 720 l 1,25,-1
 544 651 l 1,26,-1
 237 651 l 1,27,-1
 268 678 l 1,28,-1
 183 396 l 1,29,-1
 171 414 l 1,30,31
 191 438 191 438 225 453 c 128,-1,32
 259 468 259 468 304 468 c 0,33,34
 360 468 360 468 402 444 c 128,-1,35
 444 420 444 420 468 375 c 128,-1,36
 492 330 492 330 492 267 c 0,37,38
 492 225 492 225 480 184.5 c 128,-1,39
 468 144 468 144 446.5 108.5 c 128,-1,40
 425 73 425 73 393.5 46.5 c 128,-1,41
 362 20 362 20 322.5 5 c 128,-1,42
 283 -10 283 -10 236 -10 c 0,0,1
EndSplineSet
Substitution2: "'tnum' Tabular Numbers in Latin lookup 19 subtable" five.tf
Substitution2: "'aalt' Access All Alternates in Latin lookup 0 subtable" five.tf
EndChar

StartChar: six
Encoding: 54 54 325
Width: 558
GlyphClass: 1
Flags: W
LayerCount: 2
Fore
SplineSet
263 -11 m 0,0,1
 200 -11 200 -11 154 16.5 c 128,-1,2
 108 44 108 44 83 97 c 128,-1,3
 58 150 58 150 58 228 c 0,4,5
 58 270 58 270 66 323.5 c 128,-1,6
 74 377 74 377 91 433 c 128,-1,7
 108 489 108 489 134.5 541.5 c 128,-1,8
 161 594 161 594 197 636.5 c 128,-1,9
 233 679 233 679 279.5 703.5 c 128,-1,10
 326 728 326 728 384 728 c 0,11,12
 447 728 447 728 490 699 c 128,-1,13
 533 670 533 670 552.5 626 c 128,-1,14
 572 582 572 582 565 534 c 1,15,-1
 484 534 l 1,16,17
 489 560 489 560 479.5 589 c 128,-1,18
 470 618 470 618 445 638 c 128,-1,19
 420 658 420 658 377 658 c 0,20,21
 329 658 329 658 287 627.5 c 128,-1,22
 245 597 245 597 212 533.5 c 128,-1,23
 179 470 179 470 157 372 c 2,24,-1
 145 316 l 1,25,-1
 131 324 l 1,26,27
 156 383 156 383 210 417.5 c 128,-1,28
 264 452 264 452 328 452 c 0,29,30
 379 452 379 452 421 429 c 128,-1,31
 463 406 463 406 488 363 c 128,-1,32
 513 320 513 320 513 257 c 0,33,34
 513 208 513 208 496.5 160 c 128,-1,35
 480 112 480 112 447.5 73.5 c 128,-1,36
 415 35 415 35 369 12 c 128,-1,37
 323 -11 323 -11 263 -11 c 0,0,1
269 60 m 0,38,39
 312 60 312 60 342 80 c 128,-1,40
 372 100 372 100 391 131 c 128,-1,41
 410 162 410 162 418.5 196.5 c 128,-1,42
 427 231 427 231 427 258 c 0,43,44
 427 301 427 301 410 329 c 128,-1,45
 393 357 393 357 365 370.5 c 128,-1,46
 337 384 337 384 303 384 c 0,47,48
 263 384 263 384 232.5 367.5 c 128,-1,49
 202 351 202 351 181 323.5 c 128,-1,50
 160 296 160 296 149.5 263 c 128,-1,51
 139 230 139 230 139 197 c 0,52,53
 139 134 139 134 175.5 97 c 128,-1,54
 212 60 212 60 269 60 c 0,38,39
EndSplineSet
Substitution2: "'tnum' Tabular Numbers in Latin lookup 19 subtable" six.tf
Substitution2: "'aalt' Access All Alternates in Latin lookup 0 subtable" six.tf
EndChar

StartChar: seven
Encoding: 55 55 326
Width: 495
GlyphClass: 1
Flags: W
LayerCount: 2
Fore
SplineSet
92 0 m 1,0,1
 144 170 144 170 242 338 c 128,-1,2
 340 506 340 506 495 680 c 1,3,-1
 508 651 l 1,4,-1
 114 651 l 1,5,-1
 129 720 l 1,6,-1
 581 720 l 1,7,-1
 568 663 l 1,8,9
 466 546 466 546 391.5 436.5 c 128,-1,10
 317 327 317 327 266.5 219.5 c 128,-1,11
 216 112 216 112 182 0 c 1,12,-1
 92 0 l 1,0,1
EndSplineSet
Substitution2: "'tnum' Tabular Numbers in Latin lookup 19 subtable" seven.tf
Substitution2: "'aalt' Access All Alternates in Latin lookup 0 subtable" seven.tf
EndChar

StartChar: eight
Encoding: 56 56 327
Width: 542
GlyphClass: 1
Flags: W
LayerCount: 2
Fore
SplineSet
245 -10 m 0,0,1
 184 -10 184 -10 135.5 13 c 128,-1,2
 87 36 87 36 58 78 c 128,-1,3
 29 120 29 120 29 177 c 0,4,5
 29 222 29 222 46.5 261 c 128,-1,6
 64 300 64 300 94 329.5 c 128,-1,7
 124 359 124 359 163.5 376.5 c 128,-1,8
 203 394 203 394 247 394 c 1,9,-1
 250 378 l 1,10,11
 214 378 214 378 185 398 c 128,-1,12
 156 418 156 418 140 450.5 c 128,-1,13
 124 483 124 483 124 523 c 0,14,15
 124 564 124 564 140 601.5 c 128,-1,16
 156 639 156 639 185.5 667.5 c 128,-1,17
 215 696 215 696 256.5 713 c 128,-1,18
 298 730 298 730 348 730 c 0,19,20
 406 730 406 730 451.5 708 c 128,-1,21
 497 686 497 686 523 647.5 c 128,-1,22
 549 609 549 609 549 557 c 0,23,24
 549 519 549 519 534 484.5 c 128,-1,25
 519 450 519 450 492.5 423 c 128,-1,26
 466 396 466 396 430 380.5 c 128,-1,27
 394 365 394 365 351 365 c 1,28,-1
 350 379 l 1,29,30
 389 379 389 379 419.5 357.5 c 128,-1,31
 450 336 450 336 468.5 299.5 c 128,-1,32
 487 263 487 263 487 218 c 0,33,34
 487 174 487 174 470 133 c 128,-1,35
 453 92 453 92 421 59.5 c 128,-1,36
 389 27 389 27 344.5 8.5 c 128,-1,37
 300 -10 300 -10 245 -10 c 0,0,1
245 60 m 0,38,39
 281 60 281 60 310 73.5 c 128,-1,40
 339 87 339 87 359.5 109.5 c 128,-1,41
 380 132 380 132 391 161 c 128,-1,42
 402 190 402 190 402 221 c 0,43,44
 402 279 402 279 364.5 311.5 c 128,-1,45
 327 344 327 344 270 344 c 0,46,47
 233 344 233 344 204 330.5 c 128,-1,48
 175 317 175 317 155 293.5 c 128,-1,49
 135 270 135 270 124.5 241.5 c 128,-1,50
 114 213 114 213 114 184 c 0,51,52
 114 123 114 123 153 91.5 c 128,-1,53
 192 60 192 60 245 60 c 0,38,39
325 411 m 0,54,55
 357 411 357 411 383 422.5 c 128,-1,56
 409 434 409 434 427.5 454 c 128,-1,57
 446 474 446 474 455.5 499 c 128,-1,58
 465 524 465 524 465 551 c 0,59,60
 465 602 465 602 432 631.5 c 128,-1,61
 399 661 399 661 349 661 c 0,62,63
 317 661 317 661 291 649 c 128,-1,64
 265 637 265 637 246 616.5 c 128,-1,65
 227 596 227 596 217.5 571 c 128,-1,66
 208 546 208 546 208 519 c 0,67,68
 208 469 208 469 241 440 c 128,-1,69
 274 411 274 411 325 411 c 0,54,55
EndSplineSet
Substitution2: "'tnum' Tabular Numbers in Latin lookup 19 subtable" eight.tf
Substitution2: "'aalt' Access All Alternates in Latin lookup 0 subtable" eight.tf
EndChar

StartChar: nine
Encoding: 57 57 328
Width: 566
GlyphClass: 1
Flags: W
LayerCount: 2
Fore
SplineSet
225 -11 m 0,0,1
 161 -11 161 -11 117.5 18.5 c 128,-1,2
 74 48 74 48 54.5 97.5 c 128,-1,3
 35 147 35 147 42 207 c 1,4,-1
 124 207 l 1,5,6
 119 168 119 168 127.5 134.5 c 128,-1,7
 136 101 136 101 161.5 80 c 128,-1,8
 187 59 187 59 233 59 c 0,9,10
 285 59 285 59 326 91 c 128,-1,11
 367 123 367 123 397.5 189 c 128,-1,12
 428 255 428 255 449 355 c 2,13,-1
 461 411 l 1,14,-1
 474 403 l 1,15,16
 458 364 458 364 428 335.5 c 128,-1,17
 398 307 398 307 359.5 291.5 c 128,-1,18
 321 276 321 276 280 276 c 0,19,20
 230 276 230 276 188.5 298 c 128,-1,21
 147 320 147 320 122 362.5 c 128,-1,22
 97 405 97 405 97 465 c 0,23,24
 97 513 97 513 113.5 559.5 c 128,-1,25
 130 606 130 606 161.5 644 c 128,-1,26
 193 682 193 682 239.5 705 c 128,-1,27
 286 728 286 728 344 728 c 0,28,29
 407 728 407 728 453 701 c 128,-1,30
 499 674 499 674 523.5 621.5 c 128,-1,31
 548 569 548 569 548 492 c 0,32,33
 548 452 548 452 540.5 399.5 c 128,-1,34
 533 347 533 347 517 290 c 128,-1,35
 501 233 501 233 475.5 179.5 c 128,-1,36
 450 126 450 126 414 83.5 c 128,-1,37
 378 41 378 41 331.5 15 c 128,-1,38
 285 -11 285 -11 225 -11 c 0,0,1
305 343 m 0,39,40
 344 343 344 343 374 359.5 c 128,-1,41
 404 376 404 376 425 403 c 128,-1,42
 446 430 446 430 456.5 462 c 128,-1,43
 467 494 467 494 467 525 c 0,44,45
 467 584 467 584 431 621 c 128,-1,46
 395 658 395 658 338 658 c 0,47,48
 296 658 296 658 266 637.5 c 128,-1,49
 236 617 236 617 217.5 586.5 c 128,-1,50
 199 556 199 556 190.5 523 c 128,-1,51
 182 490 182 490 182 464 c 0,52,53
 182 424 182 424 199 397 c 128,-1,54
 216 370 216 370 244 356.5 c 128,-1,55
 272 343 272 343 305 343 c 0,39,40
EndSplineSet
Substitution2: "'tnum' Tabular Numbers in Latin lookup 19 subtable" nine.tf
Substitution2: "'aalt' Access All Alternates in Latin lookup 0 subtable" nine.tf
EndChar

StartChar: two.ss10
Encoding: 65624 -1 329
Width: 510
GlyphClass: 1
Flags: W
LayerCount: 2
Fore
SplineSet
-17 0 m 1,0,-1
 2 80 l 2,1,2
 16 137 16 137 47 179.5 c 128,-1,3
 78 222 78 222 119 254.5 c 128,-1,4
 160 287 160 287 205 313.5 c 128,-1,5
 250 340 250 340 293.5 365 c 128,-1,6
 337 390 337 390 372 416.5 c 128,-1,7
 407 443 407 443 428 477 c 128,-1,8
 449 511 449 511 449 555 c 0,9,10
 449 606 449 606 420.5 633.5 c 128,-1,11
 392 661 392 661 341 661 c 0,12,13
 284 661 284 661 239 624.5 c 128,-1,14
 194 588 194 588 174 514 c 1,15,-1
 94 514 l 1,16,17
 121 621 121 621 187.5 675.5 c 128,-1,18
 254 730 254 730 345 730 c 0,19,20
 398 730 398 730 441 711 c 128,-1,21
 484 692 484 692 509 653.5 c 128,-1,22
 534 615 534 615 534 555 c 0,23,24
 534 498 534 498 511 455.5 c 128,-1,25
 488 413 488 413 451 380 c 128,-1,26
 414 347 414 347 368 320 c 128,-1,27
 322 293 322 293 275.5 266.5 c 128,-1,28
 229 240 229 240 187.5 211 c 128,-1,29
 146 182 146 182 116.5 145.5 c 128,-1,30
 87 109 87 109 78 60 c 1,31,-1
 60 69 l 1,32,-1
 439 69 l 1,33,-1
 423 0 l 1,34,-1
 -17 0 l 1,0,-1
EndSplineSet
EndChar

StartChar: zero.tf
Encoding: 65625 -1 330
Width: 575
GlyphClass: 1
Flags: W
LayerCount: 2
Fore
SplineSet
253 -10 m 0,0,1
 191 -10 191 -10 146 22 c 128,-1,2
 101 54 101 54 76.5 112.5 c 128,-1,3
 52 171 52 171 52 249 c 0,4,5
 52 296 52 296 61 349 c 128,-1,6
 70 402 70 402 88 456 c 128,-1,7
 106 510 106 510 132.5 559 c 128,-1,8
 159 608 159 608 194 646.5 c 128,-1,9
 229 685 229 685 273.5 707.5 c 128,-1,10
 318 730 318 730 370 730 c 0,11,12
 433 730 433 730 478 698.5 c 128,-1,13
 523 667 523 667 548 609.5 c 128,-1,14
 573 552 573 552 573 473 c 0,15,16
 573 428 573 428 564 374 c 128,-1,17
 555 320 555 320 536.5 266 c 128,-1,18
 518 212 518 212 491.5 162.5 c 128,-1,19
 465 113 465 113 429 74 c 128,-1,20
 393 35 393 35 349 12.5 c 128,-1,21
 305 -10 305 -10 253 -10 c 0,0,1
257 60 m 0,22,23
 298 60 298 60 330 82 c 128,-1,24
 362 104 362 104 387.5 141.5 c 128,-1,25
 413 179 413 179 431.5 225 c 128,-1,26
 450 271 450 271 462 319.5 c 128,-1,27
 474 368 474 368 480 412.5 c 128,-1,28
 486 457 486 457 486 491 c 0,29,30
 486 571 486 571 454.5 616 c 128,-1,31
 423 661 423 661 366 661 c 0,32,33
 325 661 325 661 292.5 639 c 128,-1,34
 260 617 260 617 235 580.5 c 128,-1,35
 210 544 210 544 191.5 498.5 c 128,-1,36
 173 453 173 453 161.5 405 c 128,-1,37
 150 357 150 357 144.5 313 c 128,-1,38
 139 269 139 269 139 235 c 0,39,40
 139 155 139 155 168.5 107.5 c 128,-1,41
 198 60 198 60 257 60 c 0,22,23
EndSplineSet
Substitution2: "'pnum' Proportional Numbers in Latin lookup 18 subtable" zero
Substitution2: "'aalt' Access All Alternates in Latin lookup 0 subtable" zero
EndChar

StartChar: one.tf
Encoding: 65626 -1 331
Width: 575
GlyphClass: 1
Flags: W
LayerCount: 2
Fore
SplineSet
237 20 m 1,0,-1
 380 643 l 1,1,-1
 396 633 l 1,2,3
 379 612 379 612 345.5 590 c 128,-1,4
 312 568 312 568 268.5 553.5 c 128,-1,5
 225 539 225 539 177 537 c 1,6,-1
 194 612 l 1,7,8
 240 615 240 615 282.5 629.5 c 128,-1,9
 325 644 325 644 359.5 667.5 c 128,-1,10
 394 691 394 691 416 720 c 1,11,-1
 477 720 l 1,12,-1
 315 12 l 1,13,-1
 237 20 l 1,0,-1
46 0 m 1,14,-1
 62 69 l 1,15,-1
 490 69 l 1,16,-1
 474 0 l 1,17,-1
 46 0 l 1,14,-1
EndSplineSet
Substitution2: "'pnum' Proportional Numbers in Latin lookup 18 subtable" one
Substitution2: "'aalt' Access All Alternates in Latin lookup 0 subtable" one
EndChar

StartChar: two.tf
Encoding: 65627 -1 332
Width: 575
GlyphClass: 1
Flags: W
LayerCount: 2
Fore
SplineSet
22 0 m 1,0,-1
 37 67 l 1,1,2
 153 156 153 156 236 227.5 c 128,-1,3
 319 299 319 299 371 357 c 128,-1,4
 423 415 423 415 447.5 464 c 128,-1,5
 472 513 472 513 472 557 c 0,6,7
 472 606 472 606 444 633.5 c 128,-1,8
 416 661 416 661 366 661 c 0,9,10
 311 661 311 661 274 623.5 c 128,-1,11
 237 586 237 586 216 514 c 1,12,-1
 133 514 l 1,13,14
 159 618 159 618 223 674 c 128,-1,15
 287 730 287 730 377 730 c 0,16,17
 461 730 461 730 510 684.5 c 128,-1,18
 559 639 559 639 559 563 c 0,19,20
 559 510 559 510 531.5 452.5 c 128,-1,21
 504 395 504 395 448.5 331 c 128,-1,22
 393 267 393 267 308 194 c 128,-1,23
 223 121 223 121 108 36 c 1,24,-1
 97 69 l 1,25,-1
 462 69 l 1,26,-1
 446 0 l 1,27,-1
 22 0 l 1,0,-1
EndSplineSet
Substitution2: "'ss10' Style Set 10 in Latin lookup 31 subtable" two.tf.ss10
Substitution2: "'pnum' Proportional Numbers in Latin lookup 18 subtable" two
AlternateSubs2: "'aalt' Access All Alternates in Latin lookup 1 subtable" two two.tf.ss10
EndChar

StartChar: three.tf
Encoding: 65628 -1 333
Width: 575
GlyphClass: 1
Flags: W
LayerCount: 2
Fore
SplineSet
263 -10 m 0,0,1
 208 -10 208 -10 167 8 c 128,-1,2
 126 26 126 26 99 57.5 c 128,-1,3
 72 89 72 89 62 130.5 c 128,-1,4
 52 172 52 172 58 217 c 1,5,-1
 142 217 l 1,6,7
 138 185 138 185 143.5 156.5 c 128,-1,8
 149 128 149 128 164 106 c 128,-1,9
 179 84 179 84 203.5 71.5 c 128,-1,10
 228 59 228 59 262 59 c 0,11,12
 295 59 295 59 322 72 c 128,-1,13
 349 85 349 85 367.5 107 c 128,-1,14
 386 129 386 129 396 159.5 c 128,-1,15
 406 190 406 190 406 224 c 0,16,17
 406 277 406 277 381.5 310 c 128,-1,18
 357 343 357 343 308 343 c 2,19,-1
 235 343 l 1,20,-1
 250 411 l 1,21,-1
 321 411 l 2,22,23
 366 411 366 411 399 430 c 128,-1,24
 432 449 432 449 450.5 481 c 128,-1,25
 469 513 469 513 469 553 c 0,26,27
 469 604 469 604 441.5 631.5 c 128,-1,28
 414 659 414 659 362 659 c 0,29,30
 308 659 308 659 271 624.5 c 128,-1,31
 234 590 234 590 216 521 c 1,32,-1
 133 521 l 1,33,34
 157 622 157 622 219.5 675.5 c 128,-1,35
 282 729 282 729 367 729 c 0,36,37
 424 729 424 729 466 708 c 128,-1,38
 508 687 508 687 531.5 649.5 c 128,-1,39
 555 612 555 612 555 561 c 0,40,41
 555 518 555 518 538.5 480.5 c 128,-1,42
 522 443 522 443 493.5 415.5 c 128,-1,43
 465 388 465 388 428 375 c 128,-1,44
 391 362 391 362 349 368 c 1,45,-1
 348 388 l 1,46,47
 416 379 416 379 454.5 334.5 c 128,-1,48
 493 290 493 290 493 219 c 0,49,50
 493 173 493 173 477 132 c 128,-1,51
 461 91 461 91 431 58.5 c 128,-1,52
 401 26 401 26 358.5 8 c 128,-1,53
 316 -10 316 -10 263 -10 c 0,0,1
EndSplineSet
Substitution2: "'pnum' Proportional Numbers in Latin lookup 18 subtable" three
Substitution2: "'aalt' Access All Alternates in Latin lookup 0 subtable" three
EndChar

StartChar: four.tf
Encoding: 65629 -1 334
Width: 575
GlyphClass: 1
Flags: W
LayerCount: 2
Fore
SplineSet
302 0 m 1,0,-1
 346 188 l 1,1,-1
 351 208 l 1,2,-1
 444 610 l 1,3,-1
 472 610 l 1,4,-1
 120 202 l 1,5,-1
 97 234 l 1,6,-1
 521 234 l 1,7,-1
 505 165 l 1,8,-1
 28 165 l 1,9,-1
 42 224 l 1,10,-1
 472 720 l 1,11,-1
 550 720 l 1,12,-1
 384 0 l 1,13,-1
 302 0 l 1,0,-1
EndSplineSet
Substitution2: "'pnum' Proportional Numbers in Latin lookup 18 subtable" four
Substitution2: "'aalt' Access All Alternates in Latin lookup 0 subtable" four
EndChar

StartChar: five.tf
Encoding: 65630 -1 335
Width: 575
GlyphClass: 1
Flags: W
LayerCount: 2
Fore
SplineSet
254 -10 m 0,0,1
 201 -10 201 -10 162 8.5 c 128,-1,2
 123 27 123 27 98 58 c 128,-1,3
 73 89 73 89 63 126 c 128,-1,4
 53 163 53 163 59 200 c 1,5,-1
 138 200 l 1,6,7
 135 164 135 164 147.5 132 c 128,-1,8
 160 100 160 100 187.5 80 c 128,-1,9
 215 60 215 60 256 60 c 0,10,11
 287 60 287 60 312 72 c 128,-1,12
 337 84 337 84 356.5 105 c 128,-1,13
 376 126 376 126 389.5 153 c 128,-1,14
 403 180 403 180 410 210.5 c 128,-1,15
 417 241 417 241 417 270 c 0,16,17
 417 337 417 337 385 370.5 c 128,-1,18
 353 404 353 404 302 404 c 0,19,20
 266 404 266 404 238 389 c 128,-1,21
 210 374 210 374 190 344 c 1,22,-1
 124 344 l 1,23,-1
 238 720 l 1,24,-1
 581 720 l 1,25,-1
 566 651 l 1,26,-1
 272 651 l 1,27,-1
 302 678 l 1,28,-1
 218 396 l 1,29,-1
 205 414 l 1,30,31
 226 438 226 438 256 453 c 128,-1,32
 286 468 286 468 327 468 c 0,33,34
 378 468 378 468 417.5 444 c 128,-1,35
 457 420 457 420 480.5 375 c 128,-1,36
 504 330 504 330 504 267 c 0,37,38
 504 225 504 225 492.5 184.5 c 128,-1,39
 481 144 481 144 459.5 108.5 c 128,-1,40
 438 73 438 73 407.5 46.5 c 128,-1,41
 377 20 377 20 338 5 c 128,-1,42
 299 -10 299 -10 254 -10 c 0,0,1
EndSplineSet
Substitution2: "'pnum' Proportional Numbers in Latin lookup 18 subtable" five
Substitution2: "'aalt' Access All Alternates in Latin lookup 0 subtable" five
EndChar

StartChar: six.tf
Encoding: 65631 -1 336
Width: 575
GlyphClass: 1
Flags: W
LayerCount: 2
Fore
SplineSet
272 -11 m 0,0,1
 213 -11 213 -11 168.5 16.5 c 128,-1,2
 124 44 124 44 100 96.5 c 128,-1,3
 76 149 76 149 76 227 c 0,4,5
 76 270 76 270 83.5 323 c 128,-1,6
 91 376 91 376 106.5 432.5 c 128,-1,7
 122 489 122 489 147.5 541.5 c 128,-1,8
 173 594 173 594 207.5 636.5 c 128,-1,9
 242 679 242 679 288 703.5 c 128,-1,10
 334 728 334 728 391 728 c 0,11,12
 436 728 436 728 470.5 711.5 c 128,-1,13
 505 695 505 695 528 667.5 c 128,-1,14
 551 640 551 640 561 605 c 128,-1,15
 571 570 571 570 566 534 c 1,16,-1
 485 534 l 1,17,18
 489 562 489 562 480 591 c 128,-1,19
 471 620 471 620 447 639 c 128,-1,20
 423 658 423 658 380 658 c 0,21,22
 332 658 332 658 293 627.5 c 128,-1,23
 254 597 254 597 224.5 533.5 c 128,-1,24
 195 470 195 470 174 372 c 2,25,-1
 162 316 l 1,26,-1
 148 324 l 1,27,28
 165 364 165 364 194.5 392 c 128,-1,29
 224 420 224 420 261 436 c 128,-1,30
 298 452 298 452 337 452 c 0,31,32
 384 452 384 452 424 429 c 128,-1,33
 464 406 464 406 488.5 363 c 128,-1,34
 513 320 513 320 513 257 c 0,35,36
 513 208 513 208 496.5 160 c 128,-1,37
 480 112 480 112 449 73.5 c 128,-1,38
 418 35 418 35 373.5 12 c 128,-1,39
 329 -11 329 -11 272 -11 c 0,0,1
278 60 m 0,40,41
 318 60 318 60 346.5 80 c 128,-1,42
 375 100 375 100 393 131 c 128,-1,43
 411 162 411 162 419.5 196.5 c 128,-1,44
 428 231 428 231 428 258 c 0,45,46
 428 301 428 301 411 328.5 c 128,-1,47
 394 356 394 356 367 370 c 128,-1,48
 340 384 340 384 309 384 c 0,49,50
 274 384 274 384 245.5 367.5 c 128,-1,51
 217 351 217 351 196.5 323.5 c 128,-1,52
 176 296 176 296 165.5 263 c 128,-1,53
 155 230 155 230 155 197 c 0,54,55
 155 134 155 134 190.5 97 c 128,-1,56
 226 60 226 60 278 60 c 0,40,41
EndSplineSet
Substitution2: "'pnum' Proportional Numbers in Latin lookup 18 subtable" six
Substitution2: "'aalt' Access All Alternates in Latin lookup 0 subtable" six
EndChar

StartChar: seven.tf
Encoding: 65632 -1 337
Width: 575
GlyphClass: 1
Flags: W
LayerCount: 2
Fore
SplineSet
133 0 m 1,0,1
 169 114 169 114 220 226 c 128,-1,2
 271 338 271 338 345.5 451 c 128,-1,3
 420 564 420 564 524 680 c 1,4,-1
 536 651 l 1,5,-1
 162 651 l 1,6,-1
 177 720 l 1,7,-1
 613 720 l 1,8,-1
 599 663 l 1,9,10
 454 488 454 488 364 327.5 c 128,-1,11
 274 167 274 167 226 0 c 1,12,-1
 133 0 l 1,0,1
EndSplineSet
Substitution2: "'pnum' Proportional Numbers in Latin lookup 18 subtable" seven
Substitution2: "'aalt' Access All Alternates in Latin lookup 0 subtable" seven
EndChar

StartChar: eight.tf
Encoding: 65633 -1 338
Width: 575
GlyphClass: 1
Flags: W
LayerCount: 2
Fore
SplineSet
257 -10 m 0,0,1
 201 -10 201 -10 154.5 13 c 128,-1,2
 108 36 108 36 81 78 c 128,-1,3
 54 120 54 120 54 177 c 0,4,5
 54 222 54 222 71.5 261 c 128,-1,6
 89 300 89 300 119 329.5 c 128,-1,7
 149 359 149 359 188 376.5 c 128,-1,8
 227 394 227 394 271 394 c 1,9,-1
 275 378 l 1,10,11
 238 378 238 378 209.5 398 c 128,-1,12
 181 418 181 418 165 450.5 c 128,-1,13
 149 483 149 483 149 524 c 0,14,15
 149 564 149 564 165 601.5 c 128,-1,16
 181 639 181 639 210.5 667.5 c 128,-1,17
 240 696 240 696 280 713 c 128,-1,18
 320 730 320 730 367 730 c 0,19,20
 421 730 421 730 464 708 c 128,-1,21
 507 686 507 686 532 647.5 c 128,-1,22
 557 609 557 609 557 557 c 0,23,24
 557 519 557 519 542 484.5 c 128,-1,25
 527 450 527 450 500.5 423 c 128,-1,26
 474 396 474 396 438 380.5 c 128,-1,27
 402 365 402 365 359 365 c 1,28,-1
 358 379 l 1,29,30
 397 379 397 379 428 357.5 c 128,-1,31
 459 336 459 336 477 299.5 c 128,-1,32
 495 263 495 263 495 217 c 0,33,34
 495 173 495 173 477.5 132.5 c 128,-1,35
 460 92 460 92 428.5 59.5 c 128,-1,36
 397 27 397 27 353 8.5 c 128,-1,37
 309 -10 309 -10 257 -10 c 0,0,1
263 60 m 256,38,39
 295 60 295 60 322 73.5 c 128,-1,40
 349 87 349 87 369 109.5 c 128,-1,41
 389 132 389 132 399.5 161 c 128,-1,42
 410 190 410 190 410 221 c 0,43,44
 410 260 410 260 393.5 287.5 c 128,-1,45
 377 315 377 315 349 329.5 c 128,-1,46
 321 344 321 344 287 344 c 256,47,48
 253 344 253 344 225.5 330.5 c 128,-1,49
 198 317 198 317 178.5 293.5 c 128,-1,50
 159 270 159 270 148.5 241.5 c 128,-1,51
 138 213 138 213 138 184 c 0,52,53
 138 144 138 144 156 116 c 128,-1,54
 174 88 174 88 202.5 74 c 128,-1,55
 231 60 231 60 263 60 c 256,38,39
342 411 m 0,56,57
 371 411 371 411 395 422.5 c 128,-1,58
 419 434 419 434 436.5 454 c 128,-1,59
 454 474 454 474 464 499 c 128,-1,60
 474 524 474 524 474 551 c 0,61,62
 474 599 474 599 443.5 630 c 128,-1,63
 413 661 413 661 360 661 c 0,64,65
 329 661 329 661 305 649 c 128,-1,66
 281 637 281 637 264.5 617 c 128,-1,67
 248 597 248 597 240 573 c 128,-1,68
 232 549 232 549 232 523 c 0,69,70
 232 469 232 469 264.5 440 c 128,-1,71
 297 411 297 411 342 411 c 0,56,57
EndSplineSet
Substitution2: "'pnum' Proportional Numbers in Latin lookup 18 subtable" eight
Substitution2: "'aalt' Access All Alternates in Latin lookup 0 subtable" eight
EndChar

StartChar: nine.tf
Encoding: 65634 -1 339
Width: 575
GlyphClass: 1
Flags: W
LayerCount: 2
Fore
SplineSet
232 -11 m 0,0,1
 187 -11 187 -11 151.5 6.5 c 128,-1,2
 116 24 116 24 93 53.5 c 128,-1,3
 70 83 70 83 60.5 122.5 c 128,-1,4
 51 162 51 162 57 207 c 1,5,-1
 138 207 l 1,6,7
 133 168 133 168 141.5 134.5 c 128,-1,8
 150 101 150 101 174 80 c 128,-1,9
 198 59 198 59 240 59 c 0,10,11
 288 59 288 59 327.5 91 c 128,-1,12
 367 123 367 123 397 189 c 128,-1,13
 427 255 427 255 448 355 c 2,14,-1
 459 411 l 1,15,-1
 473 403 l 1,16,17
 457 364 457 364 427 335.5 c 128,-1,18
 397 307 397 307 360.5 291.5 c 128,-1,19
 324 276 324 276 286 276 c 0,20,21
 252 276 252 276 220 288.5 c 128,-1,22
 188 301 188 301 163.5 325.5 c 128,-1,23
 139 350 139 350 125 385 c 128,-1,24
 111 420 111 420 111 465 c 0,25,26
 111 513 111 513 127.5 559.5 c 128,-1,27
 144 606 144 606 175 644 c 128,-1,28
 206 682 206 682 250.5 705 c 128,-1,29
 295 728 295 728 351 728 c 0,30,31
 409 728 409 728 453.5 701 c 128,-1,32
 498 674 498 674 522.5 621.5 c 128,-1,33
 547 569 547 569 547 492 c 0,34,35
 547 452 547 452 539.5 399.5 c 128,-1,36
 532 347 532 347 516 290 c 128,-1,37
 500 233 500 233 475 179.5 c 128,-1,38
 450 126 450 126 415 83.5 c 128,-1,39
 380 41 380 41 334.5 15 c 128,-1,40
 289 -11 289 -11 232 -11 c 0,0,1
313 343 m 0,41,42
 348 343 348 343 376.5 359.5 c 128,-1,43
 405 376 405 376 424.5 403 c 128,-1,44
 444 430 444 430 455 462 c 128,-1,45
 466 494 466 494 466 525 c 0,46,47
 466 584 466 584 431 621 c 128,-1,48
 396 658 396 658 343 658 c 0,49,50
 305 658 305 658 277.5 639 c 128,-1,51
 250 620 250 620 232 590.5 c 128,-1,52
 214 561 214 561 205 528 c 128,-1,53
 196 495 196 495 196 467 c 0,54,55
 196 425 196 425 213 397 c 128,-1,56
 230 369 230 369 257 356 c 128,-1,57
 284 343 284 343 313 343 c 0,41,42
EndSplineSet
Substitution2: "'pnum' Proportional Numbers in Latin lookup 18 subtable" nine
Substitution2: "'aalt' Access All Alternates in Latin lookup 0 subtable" nine
EndChar

StartChar: two.tf.ss10
Encoding: 65635 -1 340
Width: 575
GlyphClass: 1
Flags: W
LayerCount: 2
Fore
SplineSet
23 0 m 1,0,-1
 42 80 l 2,1,2
 55 137 55 137 85 179.5 c 128,-1,3
 115 222 115 222 155 254.5 c 128,-1,4
 195 287 195 287 238 313.5 c 128,-1,5
 281 340 281 340 323 365 c 128,-1,6
 365 390 365 390 398.5 416.5 c 128,-1,7
 432 443 432 443 452.5 476.5 c 128,-1,8
 473 510 473 510 473 555 c 0,9,10
 473 606 473 606 445 633.5 c 128,-1,11
 417 661 417 661 370 661 c 0,12,13
 316 661 316 661 274.5 624.5 c 128,-1,14
 233 588 233 588 213 514 c 1,15,-1
 133 514 l 1,16,17
 160 621 160 621 223 675.5 c 128,-1,18
 286 730 286 730 374 730 c 0,19,20
 425 730 425 730 466.5 711 c 128,-1,21
 508 692 508 692 532.5 653.5 c 128,-1,22
 557 615 557 615 557 555 c 0,23,24
 557 498 557 498 535.5 455.5 c 128,-1,25
 514 413 514 413 478 380.5 c 128,-1,26
 442 348 442 348 398 320.5 c 128,-1,27
 354 293 354 293 308.5 267 c 128,-1,28
 263 241 263 241 223 211.5 c 128,-1,29
 183 182 183 182 155 145.5 c 128,-1,30
 127 109 127 109 117 60 c 1,31,-1
 100 69 l 1,32,-1
 462 69 l 1,33,-1
 446 0 l 1,34,-1
 23 0 l 1,0,-1
EndSplineSet
EndChar

StartChar: hyphen_greater.liga
Encoding: 65636 -1 343
Width: 809
GlyphClass: 3
LigCaretCntFixed: 1
Flags: W
LayerCount: 2
Fore
SplineSet
118 366 m 1,0,-1
 735 366 l 1,1,-1
 705 339 l 1,2,-1
 385 661 l 1,3,-1
 481 661 l 1,4,-1
 808 331 l 1,5,-1
 480 1 l 1,6,-1
 384 1 l 1,7,-1
 705 323 l 1,8,-1
 735 297 l 1,9,-1
 118 297 l 1,10,-1
 118 366 l 1,0,-1
EndSplineSet
Ligature2: "'liga' Standard Ligatures in Latin lookup 21 subtable" hyphen greater
LCarets2: 1 405
EndChar

StartChar: period
Encoding: 46 46 344
Width: 245
GlyphClass: 1
Flags: W
LayerCount: 2
Fore
SplineSet
13 0 m 1,0,-1
 37 100 l 1,1,-1
 137 100 l 1,2,-1
 113 0 l 1,3,-1
 13 0 l 1,0,-1
EndSplineSet
Substitution2: "'ss01' Style Set 1 in Latin lookup 22 subtable" period.ss01
Substitution2: "'aalt' Access All Alternates in Latin lookup 0 subtable" period.ss01
EndChar

StartChar: comma
Encoding: 44 44 345
Width: 156
GlyphClass: 1
InSpiro: 1
Flags: W
LayerCount: 2
Fore
SplineSet
156 99 m 1,0,-1
 51 -115 l 1,1,-1
 -10 -116 l 1,2,-1
 46 98 l 1,3,-1
 156 99 l 1,0,-1
  Spiro
    156 99 v
    51 -115 v
    -10 -116 v
    46 98 v
    0 0 z
  EndSpiro
EndSplineSet
Substitution2: "'ss01' Style Set 1 in Latin lookup 22 subtable" comma.ss01
Substitution2: "'aalt' Access All Alternates in Latin lookup 0 subtable" comma.ss01
EndChar

StartChar: exclam
Encoding: 33 33 349
Width: 263
GlyphClass: 1
Flags: W
LayerCount: 2
Fore
SplineSet
90 208 m 1,0,-1
 201 740 l 1,1,-1
 285 740 l 1,2,-1
 149 208 l 1,3,-1
 90 208 l 1,0,-1
22 0 m 1,4,-1
 46 100 l 1,5,-1
 146 100 l 1,6,-1
 122 0 l 1,7,-1
 22 0 l 1,4,-1
EndSplineSet
Substitution2: "'ss01' Style Set 1 in Latin lookup 22 subtable" exclam.ss01
Substitution2: "'case' Case-Sensitive Forms in Latin lookup 20 subtable" exclam.case
AlternateSubs2: "'aalt' Access All Alternates in Latin lookup 1 subtable" exclam.case exclam.ss01
EndChar

StartChar: exclamdown
Encoding: 161 161 350
Width: 263
GlyphClass: 1
Flags: W
LayerCount: 2
Fore
SplineSet
-11 -205 m 1,0,-1
 117 303 l 1,1,-1
 177 303 l 1,2,-1
 72 -205 l 1,3,-1
 -11 -205 l 1,0,-1
240 510 m 1,4,-1
 217 410 l 1,5,-1
 117 410 l 1,6,-1
 140 510 l 1,7,-1
 240 510 l 1,4,-1
EndSplineSet
Substitution2: "'ss01' Style Set 1 in Latin lookup 22 subtable" exclamdown.ss01
Substitution2: "'case' Case-Sensitive Forms in Latin lookup 20 subtable" exclamdown.case
AlternateSubs2: "'aalt' Access All Alternates in Latin lookup 1 subtable" exclamdown.case exclamdown.ss01
EndChar

StartChar: question
Encoding: 63 63 351
Width: 524
GlyphClass: 1
Flags: W
LayerCount: 2
Fore
SplineSet
219 207 m 5,0,1
 233 272 233 272 258.5 315.5 c 132,-1,2
 284 359 284 359 314.5 388.5 c 132,-1,3
 345 418 345 418 375 439.5 c 132,-1,4
 405 461 405 461 430.5 480.5 c 132,-1,5
 456 500 456 500 471.5 523.5 c 4,6,7
 488 548 488 548 487 581 c 4,8,9
 480 711 480 711 266 671 c 5,10,-1
 280 733 l 5,11,12
 284 749 284 749 369 749 c 4,13,14
 424 749 424 749 468.5 731.5 c 132,-1,15
 513 714 513 714 539 678 c 132,-1,16
 565 642 565 642 565 586 c 4,17,18
 565 541 565 541 549 509.5 c 132,-1,19
 533 478 533 478 506 455 c 132,-1,20
 479 432 479 432 447 410 c 132,-1,21
 415 388 415 388 384 362 c 132,-1,22
 353 336 353 336 328 299 c 132,-1,23
 303 262 303 262 290 207 c 5,24,-1
 219 207 l 5,0,1
164 0 m 5,25,-1
 187 100 l 5,26,-1
 287 100 l 5,27,-1
 264 0 l 5,28,-1
 164 0 l 5,25,-1
EndSplineSet
Substitution2: "'ss01' Style Set 1 in Latin lookup 22 subtable" question.ss01
Substitution2: "'case' Case-Sensitive Forms in Latin lookup 20 subtable" question.case
AlternateSubs2: "'aalt' Access All Alternates in Latin lookup 1 subtable" question.case question.ss01
EndChar

StartChar: questiondown
Encoding: 191 191 352
Width: 523
GlyphClass: 1
Flags: W
LayerCount: 2
Fore
SplineSet
336 396.5 m 5,0,1
 322 331.5 322 331.5 296.5 288 c 132,-1,2
 271 244.5 271 244.5 240.5 215 c 132,-1,3
 210 185.5 210 185.5 180 164 c 132,-1,4
 150 142.5 150 142.5 124.5 123 c 132,-1,5
 99 103.5 99 103.5 83.5 80 c 4,6,7
 67 55.5 67 55.5 68 22.5 c 4,8,9
 75 -107.5 75 -107.5 289 -67.5 c 5,10,-1
 275 -129.5 l 6,11,12
 271 -145.5 271 -145.5 186 -145.5 c 4,13,14
 131 -145.5 131 -145.5 86.5 -128 c 132,-1,15
 42 -110.5 42 -110.5 16 -74.5 c 132,-1,16
 -10 -38.5 -10 -38.5 -10 17.5 c 4,17,18
 -10 62.5 -10 62.5 6 94 c 132,-1,19
 22 125.5 22 125.5 49 148.5 c 132,-1,20
 76 171.5 76 171.5 108 193.5 c 132,-1,21
 140 215.5 140 215.5 171 241.5 c 132,-1,22
 202 267.5 202 267.5 227 304.5 c 132,-1,23
 252 341.5 252 341.5 265 396.5 c 5,24,-1
 336 396.5 l 5,0,1
391 603.5 m 5,25,-1
 368 503.5 l 5,26,-1
 268 503.5 l 5,27,-1
 291 603.5 l 5,28,-1
 391 603.5 l 5,25,-1
EndSplineSet
Substitution2: "'ss01' Style Set 1 in Latin lookup 22 subtable" questiondown.ss01
Substitution2: "'case' Case-Sensitive Forms in Latin lookup 20 subtable" questiondown.case
AlternateSubs2: "'aalt' Access All Alternates in Latin lookup 1 subtable" questiondown.case questiondown.ss01
EndChar

StartChar: bullet
Encoding: 8226 8226 354
Width: 295
GlyphClass: 1
Flags: W
LayerCount: 2
Fore
SplineSet
83 298 m 1,0,-1
 118 449 l 1,1,-1
 267 449 l 1,2,-1
 233 298 l 1,3,-1
 83 298 l 1,0,-1
EndSplineSet
Substitution2: "'ss01' Style Set 1 in Latin lookup 22 subtable" bullet.ss01
Substitution2: "'case' Case-Sensitive Forms in Latin lookup 20 subtable" bullet.case
AlternateSubs2: "'aalt' Access All Alternates in Latin lookup 1 subtable" bullet.case bullet.ss01
EndChar

StartChar: asterisk
Encoding: 42 42 355
Width: 402
GlyphClass: 1
Flags: W
LayerCount: 2
Fore
SplineSet
210 441 m 1,0,-1
 258 566 l 1,1,-1
 140 499 l 1,2,-1
 119 563 l 1,3,-1
 249 593 l 1,4,-1
 140 654 l 1,5,-1
 188 709 l 1,6,-1
 270 617 l 1,7,-1
 279 740 l 1,8,-1
 347 740 l 1,9,-1
 299 614 l 1,10,-1
 417 681 l 1,11,-1
 438 617 l 1,12,-1
 308 586 l 1,13,-1
 417 526 l 1,14,-1
 370 471 l 1,15,-1
 287 563 l 1,16,-1
 279 441 l 1,17,-1
 210 441 l 1,0,-1
EndSplineSet
EndChar

StartChar: numbersign
Encoding: 35 35 356
Width: 652
GlyphClass: 1
Flags: W
LayerCount: 2
Fore
SplineSet
73 0 m 1,0,-1
 339 720 l 1,1,-1
 410 720 l 1,2,-1
 144 0 l 1,3,-1
 73 0 l 1,0,-1
290 0 m 1,4,-1
 556 720 l 1,5,-1
 627 720 l 1,6,-1
 361 0 l 1,7,-1
 290 0 l 1,4,-1
120 503 m 1,8,-1
 673 503 l 1,9,-1
 657 437 l 1,10,-1
 104 437 l 1,11,-1
 120 503 l 1,8,-1
46 293 m 1,12,-1
 599 293 l 1,13,-1
 584 227 l 1,14,-1
 31 227 l 1,15,-1
 46 293 l 1,12,-1
EndSplineSet
EndChar

StartChar: slash
Encoding: 47 47 357
Width: 398
GlyphClass: 1
Flags: W
LayerCount: 2
Fore
SplineSet
-17 -60 m 1,0,-1
 384 750 l 1,1,-1
 456 750 l 1,2,-1
 55 -60 l 1,3,-1
 -17 -60 l 1,0,-1
EndSplineSet
EndChar

StartChar: backslash
Encoding: 92 92 358
Width: 398
GlyphClass: 1
Flags: W
LayerCount: 2
Fore
SplineSet
170 750 m 1,0,-1
 235 750 l 1,1,-1
 269 -60 l 1,2,-1
 204 -60 l 1,3,-1
 170 750 l 1,0,-1
EndSplineSet
EndChar

StartChar: exclam.case
Encoding: 65639 -1 361
Width: 265
GlyphClass: 1
Flags: W
LayerCount: 2
Fore
SplineSet
91 208 m 1,0,-1
 197 720 l 1,1,-1
 281 720 l 1,2,-1
 150 208 l 1,3,-1
 91 208 l 1,0,-1
23 0 m 1,4,-1
 47 100 l 1,5,-1
 147 100 l 1,6,-1
 123 0 l 1,7,-1
 23 0 l 1,4,-1
EndSplineSet
EndChar

StartChar: exclamdown.case
Encoding: 65640 -1 362
Width: 263
GlyphClass: 1
Flags: W
LayerCount: 2
Fore
SplineSet
32 0 m 1,0,-1
 162 513 l 1,1,-1
 222 513 l 1,2,-1
 115 0 l 1,3,-1
 32 0 l 1,0,-1
289 720 m 1,4,-1
 266 620 l 1,5,-1
 166 620 l 1,6,-1
 189 720 l 1,7,-1
 289 720 l 1,4,-1
EndSplineSet
EndChar

StartChar: question.case
Encoding: 65641 -1 363
Width: 524
GlyphClass: 1
Flags: W
LayerCount: 2
Fore
SplineSet
221 207 m 1,0,1
 234 264 234 264 257.5 303 c 128,-1,2
 281 342 281 342 311 369.5 c 128,-1,3
 341 397 341 397 371 418 c 128,-1,4
 401 439 401 439 426 459 c 128,-1,5
 451 479 451 479 467 503 c 128,-1,6
 483 527 483 527 483 560 c 0,7,8
 483 607 483 607 449.5 634 c 128,-1,9
 416 661 416 661 358 661 c 0,10,11
 292 661 292 661 247.5 624.5 c 128,-1,12
 203 588 203 588 180 516 c 1,13,-1
 103 516 l 1,14,15
 123 586 123 586 159 633.5 c 128,-1,16
 195 681 195 681 247.5 705.5 c 128,-1,17
 300 730 300 730 366 730 c 0,18,19
 427 730 427 730 470.5 710 c 128,-1,20
 514 690 514 690 537 653 c 128,-1,21
 560 616 560 616 560 564 c 0,22,23
 560 519 560 519 544 487.5 c 128,-1,24
 528 456 528 456 501.5 433 c 128,-1,25
 475 410 475 410 443.5 389 c 128,-1,26
 412 368 412 368 381.5 344 c 128,-1,27
 351 320 351 320 327.5 287.5 c 128,-1,28
 304 255 304 255 293 207 c 1,29,-1
 221 207 l 1,0,1
159 0 m 1,30,-1
 182 100 l 1,31,-1
 282 100 l 1,32,-1
 259 0 l 1,33,-1
 159 0 l 1,30,-1
EndSplineSet
EndChar

StartChar: questiondown.case
Encoding: 65642 -1 364
Width: 524
GlyphClass: 1
Flags: W
LayerCount: 2
Fore
SplineSet
207 -10 m 0,0,1
 146 -10 146 -10 102.5 10 c 128,-1,2
 59 30 59 30 35.5 67.5 c 128,-1,3
 12 105 12 105 12 156 c 0,4,5
 12 202 12 202 28.5 233 c 128,-1,6
 45 264 45 264 71.5 287 c 128,-1,7
 98 310 98 310 129.5 331.5 c 128,-1,8
 161 353 161 353 191 376.5 c 128,-1,9
 221 400 221 400 245 433 c 128,-1,10
 269 466 269 466 280 513 c 1,11,-1
 352 513 l 1,12,13
 340 457 340 457 315.5 418 c 128,-1,14
 291 379 291 379 261.5 351.5 c 128,-1,15
 232 324 232 324 202 302.5 c 128,-1,16
 172 281 172 281 146.5 261 c 128,-1,17
 121 241 121 241 105.5 217.5 c 128,-1,18
 90 194 90 194 90 160 c 0,19,20
 90 114 90 114 123.5 87 c 128,-1,21
 157 60 157 60 215 60 c 0,22,23
 280 60 280 60 325.5 96.5 c 128,-1,24
 371 133 371 133 393 204 c 1,25,-1
 470 204 l 1,26,27
 451 135 451 135 414 87 c 128,-1,28
 377 39 377 39 325 14.5 c 128,-1,29
 273 -10 273 -10 207 -10 c 0,0,1
414 720 m 1,30,-1
 390 620 l 1,31,-1
 290 620 l 1,32,-1
 314 720 l 1,33,-1
 414 720 l 1,30,-1
EndSplineSet
EndChar

StartChar: bullet.case
Encoding: 65643 -1 365
Width: 673
GlyphClass: 1
Flags: W
LayerCount: 2
Fore
SplineSet
43 127 m 1,0,-1
 166 655 l 1,1,-1
 693 655 l 1,2,-1
 570 127 l 1,3,-1
 43 127 l 1,0,-1
EndSplineSet
Substitution2: "'ss01' Style Set 1 in Latin lookup 22 subtable" bullet.case.ss01
Substitution2: "'aalt' Access All Alternates in Latin lookup 0 subtable" bullet.case.ss01
EndChar

StartChar: period.ss01
Encoding: 65645 -1 367
Width: 245
GlyphClass: 1
Flags: W
LayerCount: 2
Fore
SplineSet
68 -10 m 0,0,1
 47 -10 47 -10 32.5 4 c 128,-1,2
 18 18 18 18 18 40 c 0,3,4
 18 59 18 59 26.5 73 c 128,-1,5
 35 87 35 87 49.5 95.5 c 128,-1,6
 64 104 64 104 79 104 c 0,7,8
 102 104 102 104 116.5 89.5 c 128,-1,9
 131 75 131 75 131 52 c 0,10,11
 131 27 131 27 112.5 8.5 c 128,-1,12
 94 -10 94 -10 68 -10 c 0,0,1
EndSplineSet
EndChar

StartChar: comma.ss01
Encoding: 65646 -1 368
Width: 245
GlyphClass: 1
Flags: W
LayerCount: 2
Fore
SplineSet
-14 -138 m 1,0,-1
 -5 -99 l 1,1,2
 24 -89 24 -89 43.5 -67 c 128,-1,3
 63 -45 63 -45 74 1 c 1,4,-1
 97 1 l 1,5,6
 90 -2 90 -2 82 -4.5 c 128,-1,7
 74 -7 74 -7 66 -7 c 0,8,9
 45 -7 45 -7 32 6.5 c 128,-1,10
 19 20 19 20 19 41 c 0,11,12
 19 57 19 57 26 71 c 128,-1,13
 33 85 33 85 46 94 c 128,-1,14
 59 103 59 103 77 103 c 0,15,16
 97 103 97 103 111.5 89.5 c 128,-1,17
 126 76 126 76 126 43 c 0,18,19
 126 8 126 8 108.5 -30.5 c 128,-1,20
 91 -69 91 -69 60 -99 c 128,-1,21
 29 -129 29 -129 -14 -138 c 1,0,-1
EndSplineSet
EndChar

StartChar: exclam.ss01
Encoding: 65650 -1 372
Width: 265
GlyphClass: 1
Flags: W
LayerCount: 2
Fore
SplineSet
91 208 m 1,0,-1
 202 740 l 1,1,-1
 286 740 l 1,2,-1
 150 208 l 1,3,-1
 91 208 l 1,0,-1
78 -10 m 0,4,5
 57 -10 57 -10 42.5 4 c 128,-1,6
 28 18 28 18 28 40 c 0,7,8
 28 59 28 59 36.5 73 c 128,-1,9
 45 87 45 87 59.5 95.5 c 128,-1,10
 74 104 74 104 89 104 c 0,11,12
 112 104 112 104 126.5 89.5 c 128,-1,13
 141 75 141 75 141 52 c 0,14,15
 141 27 141 27 122.5 8.5 c 128,-1,16
 104 -10 104 -10 78 -10 c 0,4,5
EndSplineSet
EndChar

StartChar: exclamdown.ss01
Encoding: 65651 -1 373
Width: 276
GlyphClass: 1
Flags: W
LayerCount: 2
Fore
SplineSet
-10 -205 m 1,0,-1
 118 303 l 1,1,-1
 178 303 l 1,2,-1
 73 -205 l 1,3,-1
 -10 -205 l 1,0,-1
192 520 m 0,4,5
 215 520 215 520 229 506 c 128,-1,6
 243 492 243 492 243 471 c 0,7,8
 243 452 243 452 234 437.5 c 128,-1,9
 225 423 225 423 211.5 415 c 128,-1,10
 198 407 198 407 181 407 c 0,11,12
 160 407 160 407 145 421.5 c 128,-1,13
 130 436 130 436 130 458 c 0,14,15
 130 484 130 484 148.5 502 c 128,-1,16
 167 520 167 520 192 520 c 0,4,5
EndSplineSet
EndChar

StartChar: question.ss01
Encoding: 65652 -1 374
Width: 524
GlyphClass: 1
Flags: W
LayerCount: 2
Fore
SplineSet
219 207 m 1,0,1
 233 272 233 272 258.5 315.5 c 128,-1,2
 284 359 284 359 314.5 388.5 c 128,-1,3
 345 418 345 418 375 439.5 c 128,-1,4
 405 461 405 461 430.5 480.5 c 128,-1,5
 456 500 456 500 471.5 523.5 c 128,-1,6
 487 547 487 547 487 581 c 0,7,8
 487 632 487 632 451.5 656 c 128,-1,9
 416 680 416 680 362 680 c 0,10,11
 299 680 299 680 253 645.5 c 128,-1,12
 207 611 207 611 184 536 c 1,13,-1
 108 536 l 1,14,15
 126 606 126 606 162.5 653.5 c 128,-1,16
 199 701 199 701 252 725 c 128,-1,17
 305 749 305 749 369 749 c 0,18,19
 424 749 424 749 468.5 731.5 c 128,-1,20
 513 714 513 714 539 678 c 128,-1,21
 565 642 565 642 565 586 c 0,22,23
 565 541 565 541 549 509.5 c 128,-1,24
 533 478 533 478 506 455 c 128,-1,25
 479 432 479 432 447 410 c 128,-1,26
 415 388 415 388 384 362 c 128,-1,27
 353 336 353 336 328 299 c 128,-1,28
 303 262 303 262 290 207 c 1,29,-1
 219 207 l 1,0,1
214 -10 m 0,30,31
 193 -10 193 -10 178.5 4 c 128,-1,32
 164 18 164 18 164 40 c 0,33,34
 164 59 164 59 172.5 73 c 128,-1,35
 181 87 181 87 195.5 95.5 c 128,-1,36
 210 104 210 104 225 104 c 0,37,38
 248 104 248 104 262.5 89.5 c 128,-1,39
 277 75 277 75 277 52 c 0,40,41
 277 27 277 27 258 8.5 c 128,-1,42
 239 -10 239 -10 214 -10 c 0,30,31
EndSplineSet
EndChar

StartChar: questiondown.ss01
Encoding: 65653 -1 375
Width: 523
GlyphClass: 1
Flags: W
LayerCount: 2
Fore
SplineSet
157 -215 m 0,0,1
 104 -215 104 -215 60.5 -197.5 c 128,-1,2
 17 -180 17 -180 -9.5 -144.5 c 128,-1,3
 -36 -109 -36 -109 -36 -54 c 0,4,5
 -36 -8 -36 -8 -20 24 c 128,-1,6
 -4 56 -4 56 22 80.5 c 128,-1,7
 48 105 48 105 79.5 126 c 128,-1,8
 111 147 111 147 141 171 c 128,-1,9
 171 195 171 195 195.5 226.5 c 128,-1,10
 220 258 220 258 231 303 c 1,11,-1
 303 303 l 1,12,13
 290 248 290 248 266 210 c 128,-1,14
 242 172 242 172 212.5 145 c 128,-1,15
 183 118 183 118 153 97 c 128,-1,16
 123 76 123 76 97.5 55.5 c 128,-1,17
 72 35 72 35 57 10 c 128,-1,18
 42 -15 42 -15 42 -49 c 0,19,20
 42 -99 42 -99 77 -122.5 c 128,-1,21
 112 -146 112 -146 163 -146 c 0,22,23
 227 -146 227 -146 273 -112.5 c 128,-1,24
 319 -79 319 -79 341 -16 c 1,25,-1
 418 -16 l 1,26,27
 401 -78 401 -78 364 -122.5 c 128,-1,28
 327 -167 327 -167 274.5 -191 c 128,-1,29
 222 -215 222 -215 157 -215 c 0,0,1
305 520 m 0,30,31
 327 520 327 520 341 506.5 c 128,-1,32
 355 493 355 493 355 471 c 0,33,34
 355 452 355 452 346 437.5 c 128,-1,35
 337 423 337 423 323.5 415 c 128,-1,36
 310 407 310 407 293 407 c 0,37,38
 272 407 272 407 257 421.5 c 128,-1,39
 242 436 242 436 242 458 c 0,40,41
 242 484 242 484 261 502 c 128,-1,42
 280 520 280 520 305 520 c 0,30,31
EndSplineSet
EndChar

StartChar: bullet.ss01
Encoding: 65655 -1 377
Width: 315
GlyphClass: 1
Flags: W
LayerCount: 2
Fore
SplineSet
175 284 m 0,0,1
 141 284 141 284 120 304.5 c 128,-1,2
 99 325 99 325 99 357 c 0,3,4
 99 386 99 386 112 407.5 c 128,-1,5
 125 429 125 429 146.5 441 c 128,-1,6
 168 453 168 453 192 453 c 0,7,8
 224 453 224 453 246 431.5 c 128,-1,9
 268 410 268 410 268 377 c 0,10,11
 268 338 268 338 240 311 c 128,-1,12
 212 284 212 284 175 284 c 0,0,1
EndSplineSet
EndChar

StartChar: bullet.case.ss01
Encoding: 65657 -1 379
Width: 743
GlyphClass: 1
Flags: W
LayerCount: 2
Fore
SplineSet
367 76 m 0,0,1
 251 76 251 76 176 148.5 c 128,-1,2
 101 221 101 221 101 335 c 0,3,4
 101 434 101 434 147 510 c 128,-1,5
 193 586 193 586 267.5 629 c 128,-1,6
 342 672 342 672 426 672 c 0,7,8
 540 672 540 672 618 596 c 128,-1,9
 696 520 696 520 696 403 c 0,10,11
 696 266 696 266 598 171 c 128,-1,12
 500 76 500 76 367 76 c 0,0,1
EndSplineSet
EndChar

StartChar: hyphen
Encoding: 45 45 381
Width: 471
GlyphClass: 1
Flags: W
LayerCount: 2
Fore
SplineSet
71 235 m 1,0,-1
 89 309 l 1,1,-1
 407 309 l 1,2,-1
 390 235 l 1,3,-1
 71 235 l 1,0,-1
EndSplineSet
Substitution2: "'case' Case-Sensitive Forms in Latin lookup 20 subtable" hyphen.case
Substitution2: "'aalt' Access All Alternates in Latin lookup 0 subtable" hyphen.case
EndChar

StartChar: endash
Encoding: 8211 8211 382
Width: 551
GlyphClass: 1
Flags: W
LayerCount: 2
Fore
SplineSet
72 239 m 1,0,-1
 88 305 l 1,1,-1
 486 305 l 1,2,-1
 471 239 l 1,3,-1
 72 239 l 1,0,-1
EndSplineSet
Substitution2: "'case' Case-Sensitive Forms in Latin lookup 20 subtable" endash.case
Substitution2: "'aalt' Access All Alternates in Latin lookup 0 subtable" endash.case
EndChar

StartChar: emdash
Encoding: 8212 8212 383
Width: 826
GlyphClass: 1
Flags: W
LayerCount: 2
Fore
SplineSet
72 239 m 1,0,-1
 88 305 l 1,1,-1
 761 305 l 1,2,-1
 746 239 l 1,3,-1
 72 239 l 1,0,-1
EndSplineSet
Substitution2: "'case' Case-Sensitive Forms in Latin lookup 20 subtable" emdash.case
Substitution2: "'aalt' Access All Alternates in Latin lookup 0 subtable" emdash.case
EndChar

StartChar: hyphen.case
Encoding: 65659 -1 385
Width: 471
GlyphClass: 1
Flags: W
LayerCount: 2
Fore
SplineSet
91 323 m 1,0,-1
 109 397 l 1,1,-1
 427 397 l 1,2,-1
 410 323 l 1,3,-1
 91 323 l 1,0,-1
EndSplineSet
EndChar

StartChar: endash.case
Encoding: 65660 -1 386
Width: 551
GlyphClass: 1
Flags: W
LayerCount: 2
Fore
SplineSet
92 327 m 1,0,-1
 108 393 l 1,1,-1
 506 393 l 1,2,-1
 491 327 l 1,3,-1
 92 327 l 1,0,-1
EndSplineSet
EndChar

StartChar: emdash.case
Encoding: 65661 -1 387
Width: 826
GlyphClass: 1
Flags: W
LayerCount: 2
Fore
SplineSet
92 327 m 1,0,-1
 108 393 l 1,1,-1
 781 393 l 1,2,-1
 766 327 l 1,3,-1
 92 327 l 1,0,-1
EndSplineSet
EndChar

StartChar: parenleft
Encoding: 40 40 388
Width: 389
GlyphClass: 1
Flags: W
LayerCount: 2
Fore
SplineSet
187 -110 m 1,0,1
 133 -33 133 -33 108 48.5 c 128,-1,2
 83 130 83 130 83 212 c 0,3,4
 83 312 83 312 117 409 c 128,-1,5
 151 506 151 506 217.5 593.5 c 128,-1,6
 284 681 284 681 381 750 c 1,7,-1
 452 750 l 1,8,9
 351 673 351 673 284.5 582.5 c 128,-1,10
 218 492 218 492 185.5 396 c 128,-1,11
 153 300 153 300 153 203 c 0,12,13
 153 119 153 119 179.5 40 c 128,-1,14
 206 -39 206 -39 257 -110 c 1,15,-1
 187 -110 l 1,0,1
EndSplineSet
Substitution2: "'case' Case-Sensitive Forms in Latin lookup 20 subtable" parenleft.case
Substitution2: "'aalt' Access All Alternates in Latin lookup 0 subtable" parenleft.case
EndChar

StartChar: parenright
Encoding: 41 41 389
Width: 389
GlyphClass: 1
Flags: W
LayerCount: 2
Fore
SplineSet
233 753 m 1,0,1
 286 677 286 677 311.5 595.5 c 128,-1,2
 337 514 337 514 337 431 c 0,3,4
 337 332 337 332 303 234.5 c 128,-1,5
 269 137 269 137 202.5 49.5 c 128,-1,6
 136 -38 136 -38 39 -107 c 1,7,-1
 -33 -107 l 1,8,9
 69 -30 69 -30 135.5 60.5 c 128,-1,10
 202 151 202 151 234 247.5 c 128,-1,11
 266 344 266 344 266 440 c 0,12,13
 266 524 266 524 240.5 603.5 c 128,-1,14
 215 683 215 683 162 753 c 1,15,-1
 233 753 l 1,0,1
EndSplineSet
Substitution2: "'case' Case-Sensitive Forms in Latin lookup 20 subtable" parenright.case
Substitution2: "'aalt' Access All Alternates in Latin lookup 0 subtable" parenright.case
EndChar

StartChar: braceleft
Encoding: 123 123 390
Width: 389
GlyphClass: 1
Flags: W
LayerCount: 2
Fore
SplineSet
162 -108 m 2,0,1
 113 -108 113 -108 86 -85 c 128,-1,2
 59 -62 59 -62 55 -26 c 128,-1,3
 51 10 51 10 68 49 c 2,4,-1
 135 201 l 2,5,6
 155 247 155 247 144 268.5 c 128,-1,7
 133 290 133 290 91 290 c 2,8,-1
 47 290 l 1,9,-1
 60 352 l 1,10,-1
 105 352 l 2,11,12
 133 352 133 352 150.5 359.5 c 128,-1,13
 168 367 168 367 177.5 385.5 c 128,-1,14
 187 404 187 404 189 437 c 2,15,-1
 196 612 l 2,16,17
 199 674 199 674 240 712 c 128,-1,18
 281 750 281 750 355 750 c 2,19,-1
 445 750 l 1,20,-1
 431 689 l 1,21,-1
 347 689 l 2,22,23
 310 689 310 689 290 668.5 c 128,-1,24
 270 648 270 648 268 607 c 2,25,-1
 262 449 l 2,26,27
 260 388 260 388 237 358 c 128,-1,28
 214 328 214 328 173 317 c 1,29,30
 207 298 207 298 216 263.5 c 128,-1,31
 225 229 225 229 199 171 c 2,32,-1
 138 37 l 2,33,34
 121 -2 121 -2 132 -24 c 128,-1,35
 143 -46 143 -46 180 -46 c 2,36,-1
 262 -46 l 1,37,-1
 247 -108 l 1,38,-1
 162 -108 l 2,0,1
EndSplineSet
Substitution2: "'case' Case-Sensitive Forms in Latin lookup 20 subtable" braceleft.case
Substitution2: "'aalt' Access All Alternates in Latin lookup 0 subtable" braceleft.case
EndChar

StartChar: braceright
Encoding: 125 125 391
Width: 389
GlyphClass: 1
Flags: W
LayerCount: 2
Fore
SplineSet
257 750 m 2,0,1
 308 750 308 750 334.5 727 c 128,-1,2
 361 704 361 704 365 668 c 128,-1,3
 369 632 369 632 352 594 c 2,4,-1
 285 441 l 2,5,6
 265 395 265 395 276 373.5 c 128,-1,7
 287 352 287 352 329 352 c 2,8,-1
 373 352 l 1,9,-1
 359 290 l 1,10,-1
 315 290 l 2,11,12
 287 290 287 290 269 283 c 128,-1,13
 251 276 251 276 242 257.5 c 128,-1,14
 233 239 233 239 231 206 c 2,15,-1
 223 30 l 2,16,17
 222 -32 222 -32 180 -70 c 128,-1,18
 138 -108 138 -108 65 -108 c 2,19,-1
 -25 -108 l 1,20,-1
 -11 -46 l 1,21,-1
 73 -46 l 2,22,23
 110 -46 110 -46 130 -25.5 c 128,-1,24
 150 -5 150 -5 151 36 c 2,25,-1
 158 193 l 2,26,27
 161 255 161 255 183.5 285 c 128,-1,28
 206 315 206 315 247 325 c 1,29,30
 213 345 213 345 204 379 c 128,-1,31
 195 413 195 413 221 471 c 2,32,-1
 281 605 l 2,33,34
 299 644 299 644 288 666.5 c 128,-1,35
 277 689 277 689 240 689 c 2,36,-1
 158 689 l 1,37,-1
 173 750 l 1,38,-1
 257 750 l 2,0,1
EndSplineSet
Substitution2: "'case' Case-Sensitive Forms in Latin lookup 20 subtable" braceright.case
Substitution2: "'aalt' Access All Alternates in Latin lookup 0 subtable" braceright.case
EndChar

StartChar: bracketleft
Encoding: 91 91 392
Width: 389
GlyphClass: 1
Flags: W
LayerCount: 2
Fore
SplineSet
4 -108 m 1,0,-1
 202 750 l 1,1,-1
 445 750 l 1,2,-1
 431 689 l 1,3,-1
 259 689 l 1,4,-1
 90 -46 l 1,5,-1
 262 -46 l 1,6,-1
 247 -108 l 1,7,-1
 4 -108 l 1,0,-1
EndSplineSet
Substitution2: "'case' Case-Sensitive Forms in Latin lookup 20 subtable" bracketleft.case
Substitution2: "'aalt' Access All Alternates in Latin lookup 0 subtable" bracketleft.case
EndChar

StartChar: bracketright
Encoding: 93 93 393
Width: 390
GlyphClass: 1
Flags: W
LayerCount: 2
Fore
SplineSet
416 750 m 1,0,-1
 218 -108 l 1,1,-1
 -25 -108 l 1,2,-1
 -11 -46 l 1,3,-1
 161 -46 l 1,4,-1
 330 689 l 1,5,-1
 158 689 l 1,6,-1
 173 750 l 1,7,-1
 416 750 l 1,0,-1
EndSplineSet
Substitution2: "'case' Case-Sensitive Forms in Latin lookup 20 subtable" bracketright.case
Substitution2: "'aalt' Access All Alternates in Latin lookup 0 subtable" bracketright.case
EndChar

StartChar: parenleft.case
Encoding: 65662 -1 394
Width: 389
GlyphClass: 1
Flags: W
LayerCount: 2
Fore
SplineSet
202 -40 m 1,0,1
 146 34 146 34 120 111.5 c 128,-1,2
 94 189 94 189 94 268 c 0,3,4
 94 360 94 360 127 449 c 128,-1,5
 160 538 160 538 225 618 c 128,-1,6
 290 698 290 698 384 760 c 1,7,-1
 455 760 l 1,8,9
 357 690 357 690 292.5 607.5 c 128,-1,10
 228 525 228 525 196 437 c 128,-1,11
 164 349 164 349 164 260 c 0,12,13
 164 179 164 179 191.5 103.5 c 128,-1,14
 219 28 219 28 273 -40 c 1,15,-1
 202 -40 l 1,0,1
EndSplineSet
EndChar

StartChar: parenright.case
Encoding: 65663 -1 395
Width: 389
GlyphClass: 1
Flags: W
LayerCount: 2
Fore
SplineSet
234 760 m 1,0,1
 290 687 290 687 316.5 609 c 128,-1,2
 343 531 343 531 343 452 c 0,3,4
 343 361 343 361 310 272 c 128,-1,5
 277 183 277 183 212 103 c 128,-1,6
 147 23 147 23 53 -40 c 1,7,-1
 -18 -40 l 1,8,9
 81 31 81 31 145 113 c 128,-1,10
 209 195 209 195 241 284 c 128,-1,11
 273 373 273 373 273 461 c 0,12,13
 273 541 273 541 245.5 617 c 128,-1,14
 218 693 218 693 164 760 c 1,15,-1
 234 760 l 1,0,1
EndSplineSet
EndChar

StartChar: braceleft.case
Encoding: 65664 -1 396
Width: 389
GlyphClass: 1
Flags: W
LayerCount: 2
Fore
SplineSet
177 -40 m 2,0,1
 128 -40 128 -40 100 -17 c 128,-1,2
 72 6 72 6 67.5 41.5 c 128,-1,3
 63 77 63 77 82 116 c 2,4,-1
 143 242 l 2,5,6
 166 288 166 288 153.5 308.5 c 128,-1,7
 141 329 141 329 99 329 c 2,8,-1
 55 329 l 1,9,-1
 69 391 l 1,10,-1
 113 391 l 2,11,12
 155 391 155 391 175.5 409 c 128,-1,13
 196 427 196 427 196 477 c 2,14,-1
 197 621 l 2,15,16
 197 683 197 683 239.5 721.5 c 128,-1,17
 282 760 282 760 355 760 c 2,18,-1
 447 760 l 1,19,-1
 434 699 l 1,20,-1
 348 699 l 2,21,22
 312 699 312 699 290 677.5 c 128,-1,23
 268 656 268 656 268 614 c 2,24,-1
 269 490 l 2,25,26
 270 449 270 449 259 422.5 c 128,-1,27
 248 396 248 396 228 380.5 c 128,-1,28
 208 365 208 365 181 358 c 1,29,30
 215 339 215 339 226 304.5 c 128,-1,31
 237 270 237 270 207 212 c 2,32,-1
 152 104 l 2,33,34
 131 65 131 65 144 43.5 c 128,-1,35
 157 22 157 22 194 22 c 2,36,-1
 277 22 l 1,37,-1
 263 -40 l 1,38,-1
 177 -40 l 2,0,1
EndSplineSet
EndChar

StartChar: braceright.case
Encoding: 65665 -1 397
Width: 389
GlyphClass: 1
Flags: W
LayerCount: 2
Fore
SplineSet
260 760 m 2,0,1
 309 760 309 760 336.5 737 c 128,-1,2
 364 714 364 714 369 678.5 c 128,-1,3
 374 643 374 643 355 604 c 2,4,-1
 294 479 l 2,5,6
 272 432 272 432 284 411.5 c 128,-1,7
 296 391 296 391 338 391 c 2,8,-1
 382 391 l 1,9,-1
 368 329 l 1,10,-1
 324 329 l 2,11,12
 282 329 282 329 261.5 311 c 128,-1,13
 241 293 241 293 241 243 c 2,14,-1
 240 99 l 2,15,16
 240 38 240 38 198 -1 c 128,-1,17
 156 -40 156 -40 82 -40 c 2,18,-1
 -10 -40 l 1,19,-1
 3 22 l 1,20,-1
 88 22 l 2,21,22
 125 22 125 22 147.5 43 c 128,-1,23
 170 64 170 64 169 106 c 2,24,-1
 167 230 l 2,25,26
 167 271 167 271 178 298 c 128,-1,27
 189 325 189 325 209 340.5 c 128,-1,28
 229 356 229 356 256 363 c 1,29,30
 222 383 222 383 211 417 c 128,-1,31
 200 451 200 451 230 508 c 2,32,-1
 285 616 l 2,33,34
 305 655 305 655 292.5 677 c 128,-1,35
 280 699 280 699 243 699 c 2,36,-1
 159 699 l 1,37,-1
 174 760 l 1,38,-1
 260 760 l 2,0,1
EndSplineSet
EndChar

StartChar: bracketleft.case
Encoding: 65666 -1 398
Width: 390
GlyphClass: 1
Flags: W
LayerCount: 2
Fore
SplineSet
21 -40 m 1,0,-1
 205 760 l 1,1,-1
 448 760 l 1,2,-1
 435 699 l 1,3,-1
 263 699 l 1,4,-1
 106 22 l 1,5,-1
 278 22 l 1,6,-1
 264 -40 l 1,7,-1
 21 -40 l 1,0,-1
EndSplineSet
EndChar

StartChar: bracketright.case
Encoding: 65667 -1 399
Width: 390
GlyphClass: 1
Flags: W
LayerCount: 2
Fore
SplineSet
417 760 m 1,0,-1
 233 -40 l 1,1,-1
 -10 -40 l 1,2,-1
 3 22 l 1,3,-1
 175 22 l 1,4,-1
 331 699 l 1,5,-1
 159 699 l 1,6,-1
 174 760 l 1,7,-1
 417 760 l 1,0,-1
EndSplineSet
EndChar

StartChar: quoteleft
Encoding: 8216 8216 404
Width: 246
GlyphClass: 1
Flags: W
LayerCount: 2
Fore
SplineSet
132 511 m 1,0,-1
 154 606 l 2,1,2
 168 668 168 668 200 699.5 c 128,-1,3
 232 731 232 731 287 739 c 1,4,-1
 278 699 l 1,5,6
 248 694 248 694 229 673 c 128,-1,7
 210 652 210 652 199 605 c 1,8,-1
 169 609 l 1,9,-1
 258 609 l 1,10,-1
 236 511 l 1,11,-1
 132 511 l 1,0,-1
EndSplineSet
Substitution2: "'ss01' Style Set 1 in Latin lookup 22 subtable" quoteleft.ss01
Substitution2: "'aalt' Access All Alternates in Latin lookup 0 subtable" quoteleft.ss01
EndChar

StartChar: quoteright
Encoding: 8217 8217 405
Width: 245
GlyphClass: 1
Flags: W
LayerCount: 2
Fore
SplineSet
130 515 m 1,0,-1
 139 555 l 1,1,2
 170 561 170 561 189 581.5 c 128,-1,3
 208 602 208 602 218 649 c 1,4,-1
 248 645 l 1,5,-1
 159 645 l 1,6,-1
 181 744 l 1,7,-1
 286 744 l 1,8,-1
 263 649 l 2,9,10
 249 587 249 587 217.5 555.5 c 128,-1,11
 186 524 186 524 130 515 c 1,0,-1
EndSplineSet
Substitution2: "'ss01' Style Set 1 in Latin lookup 22 subtable" quoteright.ss01
Substitution2: "'aalt' Access All Alternates in Latin lookup 0 subtable" quoteright.ss01
EndChar

StartChar: guillemotright
Encoding: 187 187 407
Width: 474
GlyphClass: 1
Flags: W
LayerCount: 2
Fore
SplineSet
338 434 m 1,0,-1
 418 239 l 1,1,-1
 261 68 l 1,2,-1
 177 68 l 1,3,-1
 343 252 l 1,4,-1
 271 434 l 1,5,-1
 338 434 l 1,0,-1
180 434 m 1,6,-1
 260 239 l 1,7,-1
 104 68 l 1,8,-1
 20 68 l 1,9,-1
 185 252 l 1,10,-1
 113 434 l 1,11,-1
 180 434 l 1,6,-1
EndSplineSet
EndChar

StartChar: guilsinglleft
Encoding: 8249 8249 408
Width: 317
GlyphClass: 1
Flags: W
LayerCount: 2
Fore
SplineSet
134 68 m 1,0,-1
 54 263 l 1,1,-1
 211 434 l 1,2,-1
 295 434 l 1,3,-1
 130 250 l 1,4,-1
 201 68 l 1,5,-1
 134 68 l 1,0,-1
EndSplineSet
EndChar

StartChar: guilsinglright
Encoding: 8250 8250 409
Width: 317
GlyphClass: 1
Flags: W
LayerCount: 2
Fore
SplineSet
97 68 m 1,0,-1
 20 68 l 1,1,-1
 185 254 l 1,2,-1
 109 434 l 1,3,-1
 181 434 l 1,4,-1
 263 251 l 1,5,-1
 97 68 l 1,0,-1
EndSplineSet
EndChar

StartChar: quotesingle
Encoding: 39 39 411
Width: 223
GlyphClass: 1
Flags: W
LayerCount: 2
Fore
SplineSet
154 496 m 1,0,-1
 159 623 l 2,1,2
 160 649 160 649 161.5 669 c 128,-1,3
 163 689 163 689 166 703 c 0,4,5
 170 717 170 717 178 728 c 128,-1,6
 186 739 186 739 196.5 744.5 c 128,-1,7
 207 750 207 750 220 750 c 0,8,9
 234 750 234 750 243.5 744.5 c 128,-1,10
 253 739 253 739 257.5 729 c 128,-1,11
 262 719 262 719 262 707 c 0,12,13
 262 697 262 697 257.5 680.5 c 128,-1,14
 253 664 253 664 246.5 646.5 c 128,-1,15
 240 629 240 629 233 614 c 2,16,-1
 184 496 l 1,17,-1
 154 496 l 1,0,-1
EndSplineSet
EndChar

StartChar: quoteleft.ss01
Encoding: 65672 -1 416
Width: 255
GlyphClass: 1
Flags: W
LayerCount: 2
Fore
SplineSet
195 497 m 0,0,1
 173 497 173 497 159.5 510 c 128,-1,2
 146 523 146 523 146 555 c 0,3,4
 146 581 146 581 155.5 610.5 c 128,-1,5
 165 640 165 640 184 666.5 c 128,-1,6
 203 693 203 693 231 710.5 c 128,-1,7
 259 728 259 728 294 732 c 1,8,-1
 286 693 l 1,9,10
 255 688 255 688 231.5 667 c 128,-1,11
 208 646 208 646 197 598 c 1,12,-1
 173 598 l 1,13,14
 179 602 179 602 187 604.5 c 128,-1,15
 195 607 195 607 204 607 c 0,16,17
 229 607 229 607 243 593 c 128,-1,18
 257 579 257 579 257 558 c 0,19,20
 257 533 257 533 239.5 515 c 128,-1,21
 222 497 222 497 195 497 c 0,0,1
EndSplineSet
EndChar

StartChar: quoteright.ss01
Encoding: 65673 -1 417
Width: 245
GlyphClass: 1
Flags: W
LayerCount: 2
Fore
SplineSet
127 514 m 1,0,-1
 136 554 l 1,1,2
 167 559 167 559 190.5 580 c 128,-1,3
 214 601 214 601 224 649 c 1,4,-1
 248 649 l 1,5,6
 242 645 242 645 234.5 642.5 c 128,-1,7
 227 640 227 640 217 640 c 0,8,9
 193 640 193 640 179 653.5 c 128,-1,10
 165 667 165 667 165 689 c 0,11,12
 165 713 165 713 182 731.5 c 128,-1,13
 199 750 199 750 226 750 c 0,14,15
 248 750 248 750 261.5 736.5 c 128,-1,16
 275 723 275 723 275 692 c 0,17,18
 275 665 275 665 265.5 636 c 128,-1,19
 256 607 256 607 237 580.5 c 128,-1,20
 218 554 218 554 190.5 536 c 128,-1,21
 163 518 163 518 127 514 c 1,0,-1
EndSplineSet
EndChar

StartChar: less_hyphen.liga
Encoding: 65674 -1 418
Width: 800
GlyphClass: 3
LigCaretCntFixed: 1
Flags: W
LayerCount: 2
Fore
SplineSet
781 355 m 1,0,-1
 164 355 l 1,1,-1
 195 381 l 1,2,-1
 515 59 l 1,3,-1
 418 59 l 1,4,-1
 91 389 l 1,5,-1
 419 719 l 1,6,-1
 515 719 l 1,7,-1
 195 397 l 1,8,-1
 164 424 l 1,9,-1
 781 424 l 1,10,-1
 781 355 l 1,0,-1
EndSplineSet
Ligature2: "'liga' Standard Ligatures in Latin lookup 21 subtable" less hyphen
LCarets2: 1 400
EndChar

StartChar: at
Encoding: 64 64 419
Width: 826
GlyphClass: 1
Flags: W
LayerCount: 2
Fore
SplineSet
419 -11 m 0,0,1
 352 -11 352 -11 289 8.5 c 128,-1,2
 226 28 226 28 176 67 c 128,-1,3
 126 106 126 106 97 163.5 c 128,-1,4
 68 221 68 221 68 298 c 0,5,6
 68 364 68 364 89.5 427 c 128,-1,7
 111 490 111 490 151 545 c 128,-1,8
 191 600 191 600 245.5 641.5 c 128,-1,9
 300 683 300 683 367.5 706.5 c 128,-1,10
 435 730 435 730 512 730 c 0,11,12
 573 730 573 730 628 712 c 128,-1,13
 683 694 683 694 725.5 659 c 128,-1,14
 768 624 768 624 792.5 573.5 c 128,-1,15
 817 523 817 523 817 459 c 0,16,17
 817 400 817 400 798 345 c 128,-1,18
 779 290 779 290 745 246.5 c 128,-1,19
 711 203 711 203 665.5 177.5 c 128,-1,20
 620 152 620 152 568 152 c 0,21,22
 527 152 527 152 506 169.5 c 128,-1,23
 485 187 485 187 483.5 217 c 128,-1,24
 482 247 482 247 500 283 c 1,25,-1
 492 234 l 1,26,27
 461 197 461 197 425.5 174.5 c 128,-1,28
 390 152 390 152 346 152 c 0,29,30
 291 152 291 152 258.5 191.5 c 128,-1,31
 226 231 226 231 226 289 c 0,32,33
 226 326 226 326 238 365.5 c 128,-1,34
 250 405 250 405 272 441.5 c 128,-1,35
 294 478 294 478 324.5 507 c 128,-1,36
 355 536 355 536 392.5 553 c 128,-1,37
 430 570 430 570 471 570 c 0,38,39
 516 570 516 570 542.5 550 c 128,-1,40
 569 530 569 530 578 499 c 128,-1,41
 587 468 587 468 577 434 c 1,42,-1
 561 436 l 1,43,-1
 621 555 l 1,44,-1
 697 555 l 1,45,-1
 563 286 l 2,46,47
 553 264 553 264 551 246.5 c 128,-1,48
 549 229 549 229 557 219 c 128,-1,49
 565 209 565 209 583 209 c 0,50,51
 615 209 615 209 645 229 c 128,-1,52
 675 249 675 249 700 284 c 128,-1,53
 725 319 725 319 739.5 363 c 128,-1,54
 754 407 754 407 754 455 c 0,55,56
 754 522 754 522 719.5 570.5 c 128,-1,57
 685 619 685 619 628 645.5 c 128,-1,58
 571 672 571 672 504 672 c 0,59,60
 424 672 424 672 356 641 c 128,-1,61
 288 610 288 610 237.5 558 c 128,-1,62
 187 506 187 506 159 440 c 128,-1,63
 131 374 131 374 131 303 c 0,64,65
 131 239 131 239 155 190.5 c 128,-1,66
 179 142 179 142 220 110.5 c 128,-1,67
 261 79 261 79 314 63 c 128,-1,68
 367 47 367 47 423 47 c 0,69,70
 462 47 462 47 501.5 54 c 128,-1,71
 541 61 541 61 577 75 c 1,72,-1
 590 22 l 1,73,74
 555 6 555 6 510.5 -2.5 c 128,-1,75
 466 -11 466 -11 419 -11 c 0,0,1
370 214 m 0,76,77
 396 214 396 214 421.5 228 c 128,-1,78
 447 242 447 242 469 264.5 c 128,-1,79
 491 287 491 287 508 314.5 c 128,-1,80
 525 342 525 342 534 370 c 128,-1,81
 543 398 543 398 543 423 c 0,82,83
 543 461 543 461 523 484.5 c 128,-1,84
 503 508 503 508 466 508 c 0,85,86
 433 508 433 508 403.5 488 c 128,-1,87
 374 468 374 468 351 436.5 c 128,-1,88
 328 405 328 405 315 369 c 128,-1,89
 302 333 302 333 302 301 c 0,90,91
 302 262 302 262 320 238 c 128,-1,92
 338 214 338 214 370 214 c 0,76,77
EndSplineSet
EndChar

StartChar: ampersand
Encoding: 65675 -1 420
Width: 704
GlyphClass: 1
Flags: W
LayerCount: 2
Fore
SplineSet
524 0 m 1,0,-1
 256 416 l 2,1,2
 231 454 231 454 219 488.5 c 128,-1,3
 207 523 207 523 207 555 c 0,4,5
 207 606 207 606 231 645.5 c 128,-1,6
 255 685 255 685 298 707.5 c 128,-1,7
 341 730 341 730 395 730 c 0,8,9
 444 730 444 730 482 711.5 c 128,-1,10
 520 693 520 693 541.5 661 c 128,-1,11
 563 629 563 629 563 587 c 0,12,13
 563 541 563 541 536 502 c 128,-1,14
 509 463 509 463 457.5 433.5 c 128,-1,15
 406 404 406 404 334 387 c 1,16,-1
 309 442 l 1,17,18
 364 453 364 453 404 472.5 c 128,-1,19
 444 492 444 492 465.5 519.5 c 128,-1,20
 487 547 487 547 487 579 c 0,21,22
 487 617 487 617 460 640.5 c 128,-1,23
 433 664 433 664 389 664 c 0,24,25
 343 664 343 664 313.5 634.5 c 128,-1,26
 284 605 284 605 284 558 c 0,27,28
 284 532 284 532 296.5 502.5 c 128,-1,29
 309 473 309 473 338 429 c 2,30,-1
 623 0 l 1,31,-1
 524 0 l 1,0,-1
268 -10 m 0,32,33
 216 -10 216 -10 173 4 c 128,-1,34
 130 18 130 18 99 43.5 c 128,-1,35
 68 69 68 69 51 104.5 c 128,-1,36
 34 140 34 140 34 183 c 0,37,38
 34 246 34 246 66 297 c 128,-1,39
 98 348 98 348 155 383 c 128,-1,40
 212 418 212 418 286 433 c 1,41,-1
 314 380 l 1,42,43
 249 366 249 366 204 340 c 128,-1,44
 159 314 159 314 136 277.5 c 128,-1,45
 113 241 113 241 113 195 c 0,46,47
 113 150 113 150 133.5 119.5 c 128,-1,48
 154 89 154 89 190.5 73.5 c 128,-1,49
 227 58 227 58 276 58 c 0,50,51
 332 58 332 58 380.5 79.5 c 128,-1,52
 429 101 429 101 468 143 c 128,-1,53
 507 185 507 185 535 246.5 c 128,-1,54
 563 308 563 308 579 388 c 1,55,-1
 655 388 l 1,56,57
 636 295 636 295 600.5 221.5 c 128,-1,58
 565 148 565 148 514.5 96.5 c 128,-1,59
 464 45 464 45 401.5 17.5 c 128,-1,60
 339 -10 339 -10 268 -10 c 0,32,33
EndSplineSet
Substitution2: "'calt' Contextual Alternates in Latin lookup 32 subtable" ampersand.ss11
Substitution2: "'aalt' Access All Alternates in Latin lookup 0 subtable" ampersand.ss11
EndChar

StartChar: paragraph
Encoding: 182 182 421
Width: 659
GlyphClass: 1
Flags: W
LayerCount: 2
Fore
SplineSet
242 -130 m 1,0,-1
 347 326 l 1,1,-1
 262 326 l 2,2,3
 210 326 210 326 174 349.5 c 128,-1,4
 138 373 138 373 119 412 c 128,-1,5
 100 451 100 451 100 495 c 0,6,7
 100 553 100 553 128 604 c 128,-1,8
 156 655 156 655 207 687.5 c 128,-1,9
 258 720 258 720 327 720 c 2,10,-1
 684 720 l 1,11,-1
 488 -130 l 1,12,-1
 424 -130 l 1,13,-1
 605 659 l 1,14,-1
 488 659 l 1,15,-1
 306 -130 l 1,16,-1
 242 -130 l 1,0,-1
EndSplineSet
EndChar

StartChar: section
Encoding: 167 167 422
Width: 457
GlyphClass: 1
Flags: W
LayerCount: 2
Fore
SplineSet
231 183 m 1,0,-1
 235 234 l 1,1,2
 276 234 276 234 303 244.5 c 128,-1,3
 330 255 330 255 344 275 c 128,-1,4
 358 295 358 295 358 324 c 256,5,6
 358 353 358 353 342 372 c 128,-1,7
 326 391 326 391 299 405 c 2,8,-1
 232 439 l 2,9,10
 187 462 187 462 162.5 497 c 128,-1,11
 138 532 138 532 138 576 c 0,12,13
 138 622 138 622 160.5 656.5 c 128,-1,14
 183 691 183 691 223 710.5 c 128,-1,15
 263 730 263 730 314 730 c 0,16,17
 363 730 363 730 400 711.5 c 128,-1,18
 437 693 437 693 457 659 c 128,-1,19
 477 625 477 625 476 580 c 1,20,-1
 404 580 l 1,21,22
 403 622 403 622 377 644 c 128,-1,23
 351 666 351 666 307 666 c 0,24,25
 262 666 262 666 237.5 644 c 128,-1,26
 213 622 213 622 213 582 c 0,27,28
 213 555 213 555 230 536 c 128,-1,29
 247 517 247 517 279 500 c 2,30,-1
 337 468 l 2,31,32
 384 445 384 445 407.5 411 c 128,-1,33
 431 377 431 377 431 332 c 0,34,35
 431 262 431 262 378 222.5 c 128,-1,36
 325 183 325 183 231 183 c 1,0,-1
179 -64 m 0,37,38
 130 -64 130 -64 93 -45.5 c 128,-1,39
 56 -27 56 -27 36 7 c 128,-1,40
 16 41 16 41 17 86 c 1,41,-1
 89 86 l 1,42,43
 91 45 91 45 116.5 22.5 c 128,-1,44
 142 0 142 0 187 0 c 0,45,46
 231 0 231 0 255.5 22 c 128,-1,47
 280 44 280 44 280 83 c 0,48,49
 280 110 280 110 267 128.5 c 128,-1,50
 254 147 254 147 221 163 c 2,51,-1
 156 198 l 2,52,53
 109 221 109 221 85.5 255 c 128,-1,54
 62 289 62 289 62 333 c 0,55,56
 62 404 62 404 115 443.5 c 128,-1,57
 168 483 168 483 262 483 c 1,58,-1
 258 431 l 1,59,60
 218 431 218 431 190.5 421 c 128,-1,61
 163 411 163 411 149 391 c 128,-1,62
 135 371 135 371 135 342 c 256,63,64
 135 313 135 313 148.5 295 c 128,-1,65
 162 277 162 277 194 261 c 2,66,-1
 261 227 l 2,67,68
 307 204 307 204 331 169 c 128,-1,69
 355 134 355 134 355 89 c 0,70,71
 355 45 355 45 332.5 10 c 128,-1,72
 310 -25 310 -25 270.5 -44.5 c 128,-1,73
 231 -64 231 -64 179 -64 c 0,37,38
EndSplineSet
EndChar

StartChar: copyright
Encoding: 169 169 423
Width: 865
GlyphClass: 1
Flags: W
LayerCount: 2
Fore
SplineSet
457 -15 m 256,0,1
 379 -15 379 -15 311 14 c 128,-1,2
 243 43 243 43 191.5 94.5 c 128,-1,3
 140 146 140 146 111 214 c 128,-1,4
 82 282 82 282 82 360 c 256,5,6
 82 438 82 438 111 506 c 128,-1,7
 140 574 140 574 191.5 625.5 c 128,-1,8
 243 677 243 677 311 706 c 128,-1,9
 379 735 379 735 457 735 c 256,10,11
 535 735 535 735 603 706 c 128,-1,12
 671 677 671 677 722.5 625.5 c 128,-1,13
 774 574 774 574 803 506 c 128,-1,14
 832 438 832 438 832 360 c 256,15,16
 832 282 832 282 803 214 c 128,-1,17
 774 146 774 146 722.5 94.5 c 128,-1,18
 671 43 671 43 603 14 c 128,-1,19
 535 -15 535 -15 457 -15 c 256,0,1
457 23 m 256,20,21
 526 23 526 23 587 49.5 c 128,-1,22
 648 76 648 76 694 122.5 c 128,-1,23
 740 169 740 169 766 230 c 128,-1,24
 792 291 792 291 792 360 c 256,25,26
 792 429 792 429 766 490 c 128,-1,27
 740 551 740 551 694 597.5 c 128,-1,28
 648 644 648 644 587 670.5 c 128,-1,29
 526 697 526 697 457 697 c 256,30,31
 388 697 388 697 327 670.5 c 128,-1,32
 266 644 266 644 220 597.5 c 128,-1,33
 174 551 174 551 148 490 c 128,-1,34
 122 429 122 429 122 360 c 256,35,36
 122 291 122 291 148 230 c 128,-1,37
 174 169 174 169 220 122.5 c 128,-1,38
 266 76 266 76 327 49.5 c 128,-1,39
 388 23 388 23 457 23 c 256,20,21
459 140 m 0,40,41
 400 140 400 140 354 168.5 c 128,-1,42
 308 197 308 197 282 246.5 c 128,-1,43
 256 296 256 296 256 360 c 256,44,45
 256 424 256 424 282 473.5 c 128,-1,46
 308 523 308 523 354 551.5 c 128,-1,47
 400 580 400 580 458 580 c 0,48,49
 530 580 530 580 579.5 536.5 c 128,-1,50
 629 493 629 493 639 422 c 1,51,-1
 590 422 l 1,52,53
 583 475 583 475 548 505.5 c 128,-1,54
 513 536 513 536 459 536 c 0,55,56
 390 536 390 536 348 487 c 128,-1,57
 306 438 306 438 306 360 c 0,58,59
 306 281 306 281 348 232.5 c 128,-1,60
 390 184 390 184 458 184 c 0,61,62
 514 184 514 184 549 215 c 128,-1,63
 584 246 584 246 591 298 c 1,64,-1
 640 298 l 1,65,66
 630 226 630 226 581 183 c 128,-1,67
 532 140 532 140 459 140 c 0,40,41
EndSplineSet
EndChar

StartChar: registered
Encoding: 174 174 424
Width: 865
GlyphClass: 1
Flags: W
LayerCount: 2
Fore
SplineSet
457 -15 m 256,0,1
 379 -15 379 -15 311 14 c 128,-1,2
 243 43 243 43 191.5 94.5 c 128,-1,3
 140 146 140 146 111 214 c 128,-1,4
 82 282 82 282 82 360 c 256,5,6
 82 438 82 438 111 506 c 128,-1,7
 140 574 140 574 191.5 625.5 c 128,-1,8
 243 677 243 677 311 706 c 128,-1,9
 379 735 379 735 457 735 c 256,10,11
 535 735 535 735 603 706 c 128,-1,12
 671 677 671 677 722.5 625.5 c 128,-1,13
 774 574 774 574 803 506 c 128,-1,14
 832 438 832 438 832 360 c 256,15,16
 832 282 832 282 803 214 c 128,-1,17
 774 146 774 146 722.5 94.5 c 128,-1,18
 671 43 671 43 603 14 c 128,-1,19
 535 -15 535 -15 457 -15 c 256,0,1
457 23 m 256,20,21
 526 23 526 23 587 49.5 c 128,-1,22
 648 76 648 76 694 122.5 c 128,-1,23
 740 169 740 169 766 230 c 128,-1,24
 792 291 792 291 792 360 c 256,25,26
 792 429 792 429 766 490 c 128,-1,27
 740 551 740 551 694 597.5 c 128,-1,28
 648 644 648 644 587 670.5 c 128,-1,29
 526 697 526 697 457 697 c 256,30,31
 388 697 388 697 327 670.5 c 128,-1,32
 266 644 266 644 220 597.5 c 128,-1,33
 174 551 174 551 148 490 c 128,-1,34
 122 429 122 429 122 360 c 256,35,36
 122 291 122 291 148 230 c 128,-1,37
 174 169 174 169 220 122.5 c 128,-1,38
 266 76 266 76 327 49.5 c 128,-1,39
 388 23 388 23 457 23 c 256,20,21
317 145 m 1,40,-1
 317 575 l 1,41,-1
 476 575 l 2,42,43
 543 575 543 575 582 543.5 c 128,-1,44
 621 512 621 512 621 458 c 0,45,46
 621 370 621 370 506 345 c 1,47,-1
 512 361 l 1,48,49
 559 363 559 363 586.5 337.5 c 128,-1,50
 614 312 614 312 614 267 c 2,51,-1
 614 196 l 2,52,53
 614 185 614 185 615 172.5 c 128,-1,54
 616 160 616 160 619 145 c 1,55,-1
 569 145 l 1,56,57
 567 154 567 154 566 167 c 128,-1,58
 565 180 565 180 565 196 c 2,59,-1
 565 257 l 2,60,61
 565 296 565 296 542.5 316.5 c 128,-1,62
 520 337 520 337 479 337 c 2,63,-1
 353 337 l 1,64,-1
 353 377 l 1,65,-1
 474 377 l 2,66,67
 521 377 521 377 546.5 398 c 128,-1,68
 572 419 572 419 572 456 c 256,69,70
 572 493 572 493 546.5 512.5 c 128,-1,71
 521 532 521 532 474 532 c 2,72,-1
 366 532 l 1,73,-1
 366 145 l 1,74,-1
 317 145 l 1,40,-1
EndSplineSet
EndChar

StartChar: trademark
Encoding: 8482 8482 425
Width: 790
GlyphClass: 1
Flags: W
LayerCount: 2
Fore
SplineSet
231 360 m 1,0,-1
 231 707 l 1,1,-1
 294 707 l 1,2,-1
 294 360 l 1,3,-1
 231 360 l 1,0,-1
124 667 m 1,4,-1
 124 720 l 1,5,-1
 401 720 l 1,6,-1
 401 667 l 1,7,-1
 124 667 l 1,4,-1
437 360 m 1,8,-1
 437 720 l 1,9,-1
 530 720 l 1,10,-1
 635 375 l 1,11,-1
 600 375 l 1,12,-1
 704 720 l 1,13,-1
 799 720 l 1,14,-1
 799 360 l 1,15,-1
 736 360 l 1,16,-1
 736 692 l 1,17,-1
 746 692 l 1,18,-1
 648 360 l 1,19,-1
 584 360 l 1,20,-1
 487 690 l 1,21,-1
 496 690 l 1,22,-1
 496 360 l 1,23,-1
 437 360 l 1,8,-1
EndSplineSet
EndChar

StartChar: degree
Encoding: 176 176 426
Width: 386
GlyphClass: 1
Flags: W
LayerCount: 2
Fore
SplineSet
256 449 m 0,0,1
 219 449 219 449 190 466 c 128,-1,2
 161 483 161 483 145 513 c 128,-1,3
 129 543 129 543 129 578 c 0,4,5
 129 620 129 620 150 655.5 c 128,-1,6
 171 691 171 691 207 713 c 128,-1,7
 243 735 243 735 288 735 c 0,8,9
 345 735 345 735 379 699 c 128,-1,10
 413 663 413 663 413 608 c 0,11,12
 413 566 413 566 392 529.5 c 128,-1,13
 371 493 371 493 335.5 471 c 128,-1,14
 300 449 300 449 256 449 c 0,0,1
261 496 m 0,15,16
 290 496 290 496 313.5 511 c 128,-1,17
 337 526 337 526 351 550 c 128,-1,18
 365 574 365 574 365 602 c 0,19,20
 365 639 365 639 343.5 663.5 c 128,-1,21
 322 688 322 688 281 688 c 0,22,23
 252 688 252 688 228.5 673.5 c 128,-1,24
 205 659 205 659 191 635 c 128,-1,25
 177 611 177 611 177 582 c 0,26,27
 177 545 177 545 199.5 520.5 c 128,-1,28
 222 496 222 496 261 496 c 0,15,16
EndSplineSet
EndChar

StartChar: bar
Encoding: 124 124 427
Width: 233
GlyphClass: 1
Flags: W
LayerCount: 2
Fore
SplineSet
-6 -130 m 1,0,-1
 206 790 l 1,1,-1
 274 790 l 1,2,-1
 62 -130 l 1,3,-1
 -6 -130 l 1,0,-1
EndSplineSet
EndChar

StartChar: ampersand.ss11
Encoding: 38 38 428
Width: 681
GlyphClass: 1
Flags: W
LayerCount: 2
Fore
SplineSet
213 0 m 2,0,1
 153 0 153 0 111.5 26.5 c 128,-1,2
 70 53 70 53 49 95.5 c 128,-1,3
 28 138 28 138 28 187 c 0,4,5
 28 232 28 232 45.5 270.5 c 128,-1,6
 63 309 63 309 95 338.5 c 128,-1,7
 127 368 127 368 170 384.5 c 128,-1,8
 213 401 213 401 264 401 c 1,9,-1
 263 380 l 1,10,11
 225 380 225 380 196 401 c 128,-1,12
 167 422 167 422 151.5 457 c 128,-1,13
 136 492 136 492 136 532 c 0,14,15
 136 590 136 590 166.5 634.5 c 128,-1,16
 197 679 197 679 253 704.5 c 128,-1,17
 309 730 309 730 385 730 c 0,18,19
 421 730 421 730 463.5 723 c 128,-1,20
 506 716 506 716 537 699 c 1,21,-1
 522 635 l 1,22,23
 496 650 496 650 458 657 c 128,-1,24
 420 664 420 664 386 664 c 0,25,26
 323 664 323 664 285 642.5 c 128,-1,27
 247 621 247 621 230 589 c 128,-1,28
 213 557 213 557 213 523 c 0,29,30
 213 493 213 493 225.5 467 c 128,-1,31
 238 441 238 441 262.5 425 c 128,-1,32
 287 409 287 409 322 409 c 2,33,-1
 695 409 l 1,34,-1
 680 345 l 1,35,-1
 288 345 l 2,36,37
 238 345 238 345 197.5 326.5 c 128,-1,38
 157 308 157 308 133.5 273.5 c 128,-1,39
 110 239 110 239 110 188 c 0,40,41
 110 136 110 136 140 101 c 128,-1,42
 170 66 170 66 233 66 c 2,43,-1
 445 66 l 1,44,-1
 430 0 l 1,45,-1
 213 0 l 2,0,1
389 0 m 1,46,-1
 516 551 l 1,47,-1
 595 551 l 1,48,-1
 468 0 l 1,49,-1
 389 0 l 1,46,-1
EndSplineSet
EndChar

StartChar: cent
Encoding: 162 162 429
Width: 496
GlyphClass: 2
Flags: W
AnchorPoint: "Anchor-2" 201 0 basechar 0
AnchorPoint: "Anchor-0" 322 510 basechar 0
LayerCount: 2
Fore
SplineSet
289 482 m 1,0,-1
 320 616 l 1,1,-1
 383 616 l 1,2,-1
 352 482 l 1,3,-1
 289 482 l 1,0,-1
246 20 m 1,4,-1
 216 -109 l 1,5,-1
 153 -109 l 1,6,-1
 183 20 l 1,7,-1
 246 20 l 1,4,-1
218 -11 m 0,8,9
 162 -11 162 -11 121.5 14.5 c 128,-1,10
 81 40 81 40 58.5 87.5 c 128,-1,11
 36 135 36 135 36 199 c 0,12,13
 36 252 36 252 49.5 299 c 128,-1,14
 63 346 63 346 88 386.5 c 128,-1,15
 113 427 113 427 147 456.5 c 128,-1,16
 181 486 181 486 222 502.5 c 128,-1,17
 263 519 263 519 309 519 c 0,18,19
 350 519 350 519 381.5 504.5 c 128,-1,20
 413 490 413 490 435 464.5 c 128,-1,21
 457 439 457 439 468 406 c 128,-1,22
 479 373 479 373 477 337 c 1,23,-1
 405 337 l 1,24,25
 406 369 406 369 394.5 395 c 128,-1,26
 383 421 383 421 360.5 437 c 128,-1,27
 338 453 338 453 303 453 c 0,28,29
 271 453 271 453 242.5 440 c 128,-1,30
 214 427 214 427 190.5 403 c 128,-1,31
 167 379 167 379 150 347 c 128,-1,32
 133 315 133 315 124 276.5 c 128,-1,33
 115 238 115 238 115 197 c 0,34,35
 115 129 115 129 143.5 92 c 128,-1,36
 172 55 172 55 225 55 c 0,37,38
 275 55 275 55 313.5 86.5 c 128,-1,39
 352 118 352 118 370 173 c 1,40,-1
 442 173 l 1,41,42
 416 89 416 89 356.5 39 c 128,-1,43
 297 -11 297 -11 218 -11 c 0,8,9
EndSplineSet
Substitution2: "'ss12' Style Set 12 in Latin lookup 33 subtable" cent.ss12
Substitution2: "'aalt' Access All Alternates in Latin lookup 0 subtable" cent.ss12
EndChar

StartChar: dollar
Encoding: 36 36 430
Width: 557
GlyphClass: 2
Flags: W
AnchorPoint: "Anchor-2" 246 0 basechar 0
AnchorPoint: "Anchor-0" 372 720 basechar 0
LayerCount: 2
Fore
SplineSet
358 696 m 1,0,-1
 389 830 l 1,1,-1
 453 830 l 1,2,-1
 422 696 l 1,3,-1
 358 696 l 1,0,-1
293 20 m 1,4,-1
 263 -109 l 1,5,-1
 199 -109 l 1,6,-1
 229 20 l 1,7,-1
 293 20 l 1,4,-1
271 -9 m 0,8,9
 212 -9 212 -9 166.5 9 c 128,-1,10
 121 27 121 27 91 60 c 128,-1,11
 61 93 61 93 46.5 136.5 c 128,-1,12
 32 180 32 180 34 232 c 1,13,-1
 111 232 l 1,14,15
 109 195 109 195 118.5 164 c 128,-1,16
 128 133 128 133 148.5 109.5 c 128,-1,17
 169 86 169 86 201 73 c 128,-1,18
 233 60 233 60 276 60 c 0,19,20
 346 60 346 60 384.5 94 c 128,-1,21
 423 128 423 128 423 188 c 0,22,23
 423 225 423 225 405.5 252 c 128,-1,24
 388 279 388 279 349 302 c 2,25,-1
 250 365 l 2,26,27
 189 401 189 401 160 440.5 c 128,-1,28
 131 480 131 480 131 534 c 0,29,30
 131 593 131 593 160.5 637.5 c 128,-1,31
 190 682 190 682 241.5 707.5 c 128,-1,32
 293 733 293 733 359 733 c 0,33,34
 412 733 412 733 451 717.5 c 128,-1,35
 490 702 490 702 515.5 672.5 c 128,-1,36
 541 643 541 643 553.5 603 c 128,-1,37
 566 563 566 563 564 514 c 1,38,-1
 488 514 l 1,39,40
 490 560 490 560 476 593.5 c 128,-1,41
 462 627 462 627 431 645.5 c 128,-1,42
 400 664 400 664 351 664 c 0,43,44
 307 664 307 664 275.5 649 c 128,-1,45
 244 634 244 634 227 607.5 c 128,-1,46
 210 581 210 581 210 544 c 0,47,48
 210 511 210 511 228 485 c 128,-1,49
 246 459 246 459 287 435 c 2,50,-1
 391 371 l 2,51,52
 447 338 447 338 474 296 c 128,-1,53
 501 254 501 254 501 197 c 0,54,55
 501 134 501 134 472.5 88 c 128,-1,56
 444 42 444 42 392.5 16.5 c 128,-1,57
 341 -9 341 -9 271 -9 c 0,8,9
EndSplineSet
Substitution2: "'ss12' Style Set 12 in Latin lookup 33 subtable" dollar.ss12
Substitution2: "'aalt' Access All Alternates in Latin lookup 0 subtable" dollar.ss12
EndChar

StartChar: Euro
Encoding: 8364 8364 431
Width: 640
GlyphClass: 1
Flags: W
LayerCount: 2
Fore
SplineSet
328 -10 m 0,0,1
 257 -10 257 -10 204.5 25.5 c 128,-1,2
 152 61 152 61 122.5 123 c 128,-1,3
 93 185 93 185 93 264 c 0,4,5
 93 310 93 310 104 363 c 128,-1,6
 115 416 115 416 136 468 c 128,-1,7
 157 520 157 520 188 567 c 128,-1,8
 219 614 219 614 258.5 651 c 128,-1,9
 298 688 298 688 347 709 c 128,-1,10
 396 730 396 730 453 730 c 0,11,12
 497 730 497 730 535 716.5 c 128,-1,13
 573 703 573 703 601.5 678.5 c 128,-1,14
 630 654 630 654 646.5 620 c 128,-1,15
 663 586 663 586 665 546 c 1,16,-1
 584 546 l 1,17,18
 582 581 582 581 566 606 c 128,-1,19
 550 631 550 631 522 645 c 128,-1,20
 494 659 494 659 455 659 c 0,21,22
 408 659 408 659 369 639.5 c 128,-1,23
 330 620 330 620 298.5 588 c 128,-1,24
 267 556 267 556 244 515 c 128,-1,25
 221 474 221 474 205.5 429.5 c 128,-1,26
 190 385 190 385 182 341 c 128,-1,27
 174 297 174 297 174 261 c 0,28,29
 174 201 174 201 193.5 156 c 128,-1,30
 213 111 213 111 249 86 c 128,-1,31
 285 61 285 61 335 61 c 0,32,33
 373 61 373 61 406.5 76 c 128,-1,34
 440 91 440 91 464.5 117 c 128,-1,35
 489 143 489 143 501 174 c 1,36,-1
 581 174 l 1,37,38
 560 118 560 118 521.5 77 c 128,-1,39
 483 36 483 36 433.5 13 c 128,-1,40
 384 -10 384 -10 328 -10 c 0,0,1
34 400 m 1,41,-1
 62 465 l 1,42,-1
 516 465 l 1,43,-1
 488 400 l 1,44,-1
 34 400 l 1,41,-1
0 257 m 1,45,-1
 29 323 l 1,46,-1
 457 323 l 1,47,-1
 429 257 l 1,48,-1
 0 257 l 1,45,-1
EndSplineSet
EndChar

StartChar: sterling
Encoding: 163 163 432
Width: 545
GlyphClass: 1
Flags: W
LayerCount: 2
Fore
SplineSet
-9 0 m 1,0,-1
 7 70 l 1,1,2
 42 108 42 108 71 148.5 c 128,-1,3
 100 189 100 189 117.5 232.5 c 128,-1,4
 135 276 135 276 135 325 c 0,5,6
 135 355 135 355 129.5 384.5 c 128,-1,7
 124 414 124 414 118 443.5 c 128,-1,8
 112 473 112 473 112 503 c 0,9,10
 112 545 112 545 126.5 585 c 128,-1,11
 141 625 141 625 170.5 658.5 c 128,-1,12
 200 692 200 692 244.5 711 c 128,-1,13
 289 730 289 730 349 730 c 0,14,15
 402 730 402 730 442 714 c 128,-1,16
 482 698 482 698 509 671 c 128,-1,17
 536 644 536 644 549.5 608 c 128,-1,18
 563 572 563 572 562 531 c 1,19,-1
 487 531 l 1,20,21
 487 570 487 570 469.5 599 c 128,-1,22
 452 628 452 628 421 644.5 c 128,-1,23
 390 661 390 661 347 661 c 0,24,25
 307 661 307 661 277.5 647.5 c 128,-1,26
 248 634 248 634 227.5 611 c 128,-1,27
 207 588 207 588 197.5 560 c 128,-1,28
 188 532 188 532 188 503 c 0,29,30
 188 464 188 464 199 419 c 128,-1,31
 210 374 210 374 210 329 c 0,32,33
 210 270 210 270 186 217.5 c 128,-1,34
 162 165 162 165 127 123 c 128,-1,35
 92 81 92 81 57 51 c 1,36,-1
 51 70 l 1,37,-1
 436 70 l 1,38,-1
 420 0 l 1,39,-1
 -9 0 l 1,0,-1
31 310 m 1,40,-1
 46 376 l 1,41,-1
 437 376 l 1,42,-1
 422 310 l 1,43,-1
 31 310 l 1,40,-1
EndSplineSet
EndChar

StartChar: yen
Encoding: 165 165 433
Width: 565
GlyphClass: 1
Flags: W
LayerCount: 2
Fore
SplineSet
184 0 m 1,0,-1
 260 329 l 1,1,-1
 128 720 l 1,2,-1
 215 720 l 1,3,-1
 325 377 l 1,4,-1
 288 377 l 1,5,-1
 556 720 l 1,6,-1
 651 720 l 1,7,-1
 339 329 l 1,8,-1
 263 0 l 1,9,-1
 184 0 l 1,0,-1
46 257 m 1,10,-1
 61 323 l 1,11,-1
 535 323 l 1,12,-1
 520 257 l 1,13,-1
 46 257 l 1,10,-1
275 400 m 1,14,-1
 79 400 l 1,15,-1
 94 465 l 1,16,-1
 258 465 l 1,17,-1
 275 400 l 1,14,-1
419 465 m 1,18,-1
 569 465 l 1,19,-1
 553 400 l 1,20,-1
 366 400 l 1,21,-1
 419 465 l 1,18,-1
EndSplineSet
EndChar

StartChar: cent.ss12
Encoding: 65676 -1 434
Width: 496
GlyphClass: 1
Flags: W
LayerCount: 2
Fore
SplineSet
218 -10 m 0,0,1
 162 -10 162 -10 121.5 15.5 c 128,-1,2
 81 41 81 41 58.5 88 c 128,-1,3
 36 135 36 135 36 199 c 0,4,5
 36 252 36 252 49.5 299.5 c 128,-1,6
 63 347 63 347 88 387.5 c 128,-1,7
 113 428 113 428 147 457.5 c 128,-1,8
 181 487 181 487 222 503.5 c 128,-1,9
 263 520 263 520 309 520 c 0,10,11
 350 520 350 520 381.5 505.5 c 128,-1,12
 413 491 413 491 435 465.5 c 128,-1,13
 457 440 457 440 468 406.5 c 128,-1,14
 479 373 479 373 477 337 c 1,15,-1
 406 337 l 1,16,17
 407 370 407 370 395.5 396.5 c 128,-1,18
 384 423 384 423 361 439.5 c 128,-1,19
 338 456 338 456 303 456 c 0,20,21
 271 456 271 456 242.5 442 c 128,-1,22
 214 428 214 428 190 404 c 128,-1,23
 166 380 166 380 149 347.5 c 128,-1,24
 132 315 132 315 122.5 276.5 c 128,-1,25
 113 238 113 238 113 197 c 0,26,27
 113 128 113 128 142.5 91.5 c 128,-1,28
 172 55 172 55 225 55 c 0,29,30
 275 55 275 55 314 85.5 c 128,-1,31
 353 116 353 116 371 173 c 1,32,-1
 442 173 l 1,33,34
 416 89 416 89 356.5 39.5 c 128,-1,35
 297 -10 297 -10 218 -10 c 0,0,1
144 -109 m 1,36,-1
 173 15 l 1,37,-1
 178 35 l 1,38,-1
 279 475 l 1,39,-1
 284 497 l 1,40,-1
 311 616 l 1,41,-1
 374 616 l 1,42,-1
 346 494 l 1,43,-1
 341 474 l 1,44,-1
 239 35 l 1,45,-1
 236 17 l 1,46,-1
 207 -109 l 1,47,-1
 144 -109 l 1,36,-1
EndSplineSet
EndChar

StartChar: dollar.ss12
Encoding: 65677 -1 435
Width: 557
GlyphClass: 1
Flags: W
LayerCount: 2
Fore
SplineSet
271 -9 m 0,0,1
 212 -9 212 -9 166.5 9 c 128,-1,2
 121 27 121 27 91 60 c 128,-1,3
 61 93 61 93 46.5 136.5 c 128,-1,4
 32 180 32 180 34 232 c 1,5,-1
 110 232 l 1,6,7
 108 195 108 195 118 163.5 c 128,-1,8
 128 132 128 132 148.5 108.5 c 128,-1,9
 169 85 169 85 201 72 c 128,-1,10
 233 59 233 59 276 59 c 0,11,12
 346 59 346 59 385.5 93.5 c 128,-1,13
 425 128 425 128 425 188 c 0,14,15
 425 225 425 225 406.5 252 c 128,-1,16
 388 279 388 279 349 302 c 2,17,-1
 250 365 l 2,18,19
 189 401 189 401 160 441 c 128,-1,20
 131 481 131 481 131 537 c 0,21,22
 131 594 131 594 160 638.5 c 128,-1,23
 189 683 189 683 240.5 708 c 128,-1,24
 292 733 292 733 359 733 c 0,25,26
 412 733 412 733 451 717.5 c 128,-1,27
 490 702 490 702 515.5 672.5 c 128,-1,28
 541 643 541 643 553.5 603 c 128,-1,29
 566 563 566 563 564 514 c 1,30,-1
 488 514 l 1,31,32
 490 561 490 561 476 595 c 128,-1,33
 462 629 462 629 431 647 c 128,-1,34
 400 665 400 665 351 665 c 0,35,36
 306 665 306 665 274 650.5 c 128,-1,37
 242 636 242 636 225 609.5 c 128,-1,38
 208 583 208 583 208 546 c 0,39,40
 208 512 208 512 227 485.5 c 128,-1,41
 246 459 246 459 287 435 c 2,42,-1
 391 371 l 2,43,44
 447 338 447 338 474 296 c 128,-1,45
 501 254 501 254 501 197 c 0,46,47
 501 134 501 134 472.5 88 c 128,-1,48
 444 42 444 42 392.5 16.5 c 128,-1,49
 341 -9 341 -9 271 -9 c 0,0,1
172 -109 m 1,50,-1
 200 15 l 1,51,-1
 205 35 l 1,52,-1
 357 689 l 1,53,-1
 361 711 l 1,54,-1
 389 830 l 1,55,-1
 451 830 l 1,56,-1
 423 708 l 1,57,-1
 417 688 l 1,58,-1
 266 35 l 1,59,-1
 263 17 l 1,60,-1
 234 -109 l 1,61,-1
 172 -109 l 1,50,-1
EndSplineSet
EndChar

StartChar: plus
Encoding: 43 43 436
Width: 531
GlyphClass: 1
Flags: W
LayerCount: 2
Fore
SplineSet
207 153 m 1,0,-1
 308 590 l 1,1,-1
 378 590 l 1,2,-1
 277 153 l 1,3,-1
 207 153 l 1,0,-1
79 338 m 1,4,-1
 95 404 l 1,5,-1
 506 404 l 1,6,-1
 490 338 l 1,7,-1
 79 338 l 1,4,-1
EndSplineSet
Substitution2: "'tnum' Tabular Numbers in Latin lookup 19 subtable" plus.tf
Substitution2: "'aalt' Access All Alternates in Latin lookup 0 subtable" plus.tf
EndChar

StartChar: minus
Encoding: 8722 8722 437
Width: 531
GlyphClass: 1
Flags: W
LayerCount: 2
Fore
SplineSet
79 338 m 1,0,-1
 95 404 l 1,1,-1
 506 404 l 1,2,-1
 490 338 l 1,3,-1
 79 338 l 1,0,-1
EndSplineSet
Substitution2: "'tnum' Tabular Numbers in Latin lookup 19 subtable" minus.tf
Substitution2: "'aalt' Access All Alternates in Latin lookup 0 subtable" minus.tf
EndChar

StartChar: multiply
Encoding: 215 215 438
Width: 531
GlyphClass: 1
Flags: W
LayerCount: 2
Fore
SplineSet
403 175 m 1,0,-1
 131 528 l 1,1,-1
 183 568 l 1,2,-1
 455 216 l 1,3,-1
 403 175 l 1,0,-1
106 175 m 1,4,-1
 66 225 l 1,5,-1
 479 569 l 1,6,-1
 519 518 l 1,7,-1
 106 175 l 1,4,-1
EndSplineSet
Substitution2: "'tnum' Tabular Numbers in Latin lookup 19 subtable" multiply.tf
Substitution2: "'aalt' Access All Alternates in Latin lookup 0 subtable" multiply.tf
EndChar

StartChar: divide
Encoding: 247 247 439
Width: 531
GlyphClass: 1
Flags: W
LayerCount: 2
Fore
SplineSet
79 338 m 1,0,-1
 95 404 l 1,1,-1
 506 404 l 1,2,-1
 490 338 l 1,3,-1
 79 338 l 1,0,-1
324 481 m 0,4,5
 302 481 302 481 287.5 495.5 c 128,-1,6
 273 510 273 510 273 532 c 0,7,8
 273 558 273 558 291.5 576.5 c 128,-1,9
 310 595 310 595 336 595 c 0,10,11
 358 595 358 595 372.5 580.5 c 128,-1,12
 387 566 387 566 387 544 c 0,13,14
 387 517 387 517 368.5 499 c 128,-1,15
 350 481 350 481 324 481 c 0,4,5
247 149 m 0,16,17
 225 149 225 149 211 163 c 128,-1,18
 197 177 197 177 197 199 c 0,19,20
 197 225 197 225 215.5 243.5 c 128,-1,21
 234 262 234 262 259 262 c 0,22,23
 281 262 281 262 295.5 247.5 c 128,-1,24
 310 233 310 233 310 211 c 0,25,26
 310 184 310 184 291.5 166.5 c 128,-1,27
 273 149 273 149 247 149 c 0,16,17
EndSplineSet
Substitution2: "'tnum' Tabular Numbers in Latin lookup 19 subtable" divide.tf
Substitution2: "'aalt' Access All Alternates in Latin lookup 0 subtable" divide.tf
EndChar

StartChar: equal
Encoding: 61 61 440
Width: 531
GlyphClass: 1
Flags: W
LayerCount: 2
Fore
SplineSet
103 438 m 1,0,-1
 119 504 l 1,1,-1
 530 504 l 1,2,-1
 514 438 l 1,3,-1
 103 438 l 1,0,-1
57 238 m 1,4,-1
 72 304 l 1,5,-1
 483 304 l 1,6,-1
 468 238 l 1,7,-1
 57 238 l 1,4,-1
EndSplineSet
Substitution2: "'tnum' Tabular Numbers in Latin lookup 19 subtable" equal.tf
Substitution2: "'aalt' Access All Alternates in Latin lookup 0 subtable" equal.tf
EndChar

StartChar: greater
Encoding: 62 62 441
Width: 531
GlyphClass: 1
Flags: W
LayerCount: 2
Fore
SplineSet
42 175 m 1,0,-1
 59 250 l 1,1,-1
 454 389 l 1,2,-1
 448 363 l 1,3,-1
 115 493 l 1,4,-1
 130 558 l 1,5,-1
 506 408 l 1,6,-1
 490 335 l 1,7,-1
 42 175 l 1,0,-1
EndSplineSet
Substitution2: "'tnum' Tabular Numbers in Latin lookup 19 subtable" greater.tf
Substitution2: "'aalt' Access All Alternates in Latin lookup 0 subtable" greater.tf
EndChar

StartChar: less
Encoding: 60 60 442
Width: 531
GlyphClass: 1
Flags: W
LayerCount: 2
Fore
SplineSet
543 568 m 1,0,-1
 526 493 l 1,1,-1
 131 354 l 1,2,-1
 137 379 l 1,3,-1
 470 249 l 1,4,-1
 455 185 l 1,5,-1
 79 335 l 1,6,-1
 95 408 l 1,7,-1
 543 568 l 1,0,-1
EndSplineSet
Substitution2: "'tnum' Tabular Numbers in Latin lookup 19 subtable" less.tf
Substitution2: "'aalt' Access All Alternates in Latin lookup 0 subtable" less.tf
EndChar

StartChar: asciitilde
Encoding: 126 126 443
Width: 531
GlyphClass: 1
Flags: W
LayerCount: 2
Fore
SplineSet
387 297 m 0,0,1
 440 297 440 297 476.5 325.5 c 128,-1,2
 513 354 513 354 535 408 c 1,3,-1
 476 408 l 1,4,5
 466 381 466 381 447 369 c 128,-1,6
 428 357 428 357 403 357 c 0,7,8
 375 357 375 357 351.5 366 c 128,-1,9
 328 375 328 375 304.5 387.5 c 128,-1,10
 281 400 281 400 253.5 409 c 128,-1,11
 226 418 226 418 192 418 c 0,12,13
 140 418 140 418 103.5 390 c 128,-1,14
 67 362 67 362 45 307 c 1,15,-1
 104 307 l 1,16,17
 115 334 115 334 134 346 c 128,-1,18
 153 358 153 358 177 358 c 0,19,20
 206 358 206 358 229.5 349 c 128,-1,21
 253 340 253 340 276 327.5 c 128,-1,22
 299 315 299 315 325.5 306 c 128,-1,23
 352 297 352 297 387 297 c 0,0,1
EndSplineSet
EndChar

StartChar: asciicircum
Encoding: 94 94 444
Width: 531
GlyphClass: 1
Flags: W
LayerCount: 2
Fore
SplineSet
205 491 m 1,0,-1
 137 491 l 1,1,-1
 340 740 l 1,2,-1
 415 740 l 1,3,-1
 503 491 l 1,4,-1
 448 491 l 1,5,-1
 356 699 l 1,6,-1
 392 699 l 1,7,-1
 205 491 l 1,0,-1
EndSplineSet
EndChar

StartChar: percent
Encoding: 37 37 445
Width: 744
GlyphClass: 1
Flags: W
LayerCount: 2
Fore
SplineSet
16 0 m 1,0,-1
 701 720 l 1,1,-1
 782 720 l 1,2,-1
 97 0 l 1,3,-1
 16 0 l 1,0,-1
518 -10 m 0,4,5
 482 -10 482 -10 452 6 c 128,-1,6
 422 22 422 22 403.5 54 c 128,-1,7
 385 86 385 86 385 132 c 0,8,9
 385 164 385 164 395.5 202.5 c 128,-1,10
 406 241 406 241 427.5 275.5 c 128,-1,11
 449 310 449 310 482 332 c 128,-1,12
 515 354 515 354 562 354 c 0,13,14
 618 354 618 354 656.5 318.5 c 128,-1,15
 695 283 695 283 695 213 c 0,16,17
 695 180 695 180 684.5 142 c 128,-1,18
 674 104 674 104 653 69 c 128,-1,19
 632 34 632 34 598.5 12 c 128,-1,20
 565 -10 565 -10 518 -10 c 0,4,5
518 45 m 256,21,22
 547 45 547 45 568 62.5 c 128,-1,23
 589 80 589 80 602 107 c 128,-1,24
 615 134 615 134 621.5 162.5 c 128,-1,25
 628 191 628 191 628 213 c 0,26,27
 628 255 628 255 609 277 c 128,-1,28
 590 299 590 299 560 299 c 256,29,30
 530 299 530 299 510 281.5 c 128,-1,31
 490 264 490 264 477 237 c 128,-1,32
 464 210 464 210 458.5 181.5 c 128,-1,33
 453 153 453 153 453 131 c 0,34,35
 453 90 453 90 471 67.5 c 128,-1,36
 489 45 489 45 518 45 c 256,21,22
231 366 m 0,37,38
 195 366 195 366 164.5 382 c 128,-1,39
 134 398 134 398 116 430 c 128,-1,40
 98 462 98 462 98 508 c 0,41,42
 98 540 98 540 108 578.5 c 128,-1,43
 118 617 118 617 139.5 651.5 c 128,-1,44
 161 686 161 686 194.5 708 c 128,-1,45
 228 730 228 730 274 730 c 0,46,47
 331 730 331 730 369.5 694.5 c 128,-1,48
 408 659 408 659 408 589 c 0,49,50
 408 556 408 556 397.5 518 c 128,-1,51
 387 480 387 480 365.5 445 c 128,-1,52
 344 410 344 410 310.5 388 c 128,-1,53
 277 366 277 366 231 366 c 0,37,38
231 421 m 0,54,55
 260 421 260 421 281 438.5 c 128,-1,56
 302 456 302 456 315 483 c 128,-1,57
 328 510 328 510 334 538.5 c 128,-1,58
 340 567 340 567 340 589 c 0,59,60
 340 631 340 631 321 653 c 128,-1,61
 302 675 302 675 272 675 c 0,62,63
 243 675 243 675 222.5 657.5 c 128,-1,64
 202 640 202 640 189.5 613 c 128,-1,65
 177 586 177 586 171 557.5 c 128,-1,66
 165 529 165 529 165 507 c 0,67,68
 165 466 165 466 183 443.5 c 128,-1,69
 201 421 201 421 231 421 c 0,54,55
EndSplineSet
Substitution2: "'tnum' Tabular Numbers in Latin lookup 19 subtable" percent.tf
Substitution2: "'aalt' Access All Alternates in Latin lookup 0 subtable" percent.tf
EndChar

StartChar: perthousand
Encoding: 8240 8240 446
Width: 827
GlyphClass: 1
Flags: W
LayerCount: 2
Fore
SplineSet
208 366 m 0,0,1
 159 366 159 366 127 402.5 c 128,-1,2
 95 439 95 439 95 504 c 0,3,4
 95 539 95 539 105 578 c 128,-1,5
 115 617 115 617 135.5 651.5 c 128,-1,6
 156 686 156 686 186 708 c 128,-1,7
 216 730 216 730 257 730 c 0,8,9
 307 730 307 730 338.5 694.5 c 128,-1,10
 370 659 370 659 370 592 c 0,11,12
 370 556 370 556 359.5 517 c 128,-1,13
 349 478 349 478 328.5 443.5 c 128,-1,14
 308 409 308 409 278 387.5 c 128,-1,15
 248 366 248 366 208 366 c 0,0,1
211 421 m 0,16,17
 234 421 234 421 250.5 438.5 c 128,-1,18
 267 456 267 456 279 483 c 128,-1,19
 291 510 291 510 297 540 c 128,-1,20
 303 570 303 570 303 594 c 0,21,22
 303 630 303 630 290.5 652.5 c 128,-1,23
 278 675 278 675 252 675 c 0,24,25
 230 675 230 675 212.5 657.5 c 128,-1,26
 195 640 195 640 184.5 613 c 128,-1,27
 174 586 174 586 168.5 556.5 c 128,-1,28
 163 527 163 527 163 502 c 0,29,30
 163 467 163 467 174.5 444 c 128,-1,31
 186 421 186 421 211 421 c 0,16,17
5 0 m 1,32,-1
 620 720 l 1,33,-1
 695 720 l 1,34,-1
 81 0 l 1,35,-1
 5 0 l 1,32,-1
436 -10 m 0,36,37
 389 -10 389 -10 358 26.5 c 128,-1,38
 327 63 327 63 327 129 c 0,39,40
 327 164 327 164 337 203.5 c 128,-1,41
 347 243 347 243 367 277 c 128,-1,42
 387 311 387 311 416 332.5 c 128,-1,43
 445 354 445 354 482 354 c 0,44,45
 529 354 529 354 556 318.5 c 128,-1,46
 583 283 583 283 583 217 c 0,47,48
 583 180 583 180 574 140.5 c 128,-1,49
 565 101 565 101 546 66.5 c 128,-1,50
 527 32 527 32 499.5 11 c 128,-1,51
 472 -10 472 -10 436 -10 c 0,36,37
438 45 m 0,52,53
 457 45 457 45 473 62 c 128,-1,54
 489 79 489 79 500.5 106 c 128,-1,55
 512 133 512 133 517.5 163 c 128,-1,56
 523 193 523 193 523 218 c 0,57,58
 523 254 523 254 511.5 276.5 c 128,-1,59
 500 299 500 299 477 299 c 0,60,61
 458 299 458 299 442.5 282.5 c 128,-1,62
 427 266 427 266 416 239.5 c 128,-1,63
 405 213 405 213 399.5 183 c 128,-1,64
 394 153 394 153 394 126 c 0,65,66
 394 90 394 90 405 67.5 c 128,-1,67
 416 45 416 45 438 45 c 0,52,53
628 45 m 0,68,69
 647 45 647 45 663 62 c 128,-1,70
 679 79 679 79 690.5 106 c 128,-1,71
 702 133 702 133 707.5 163 c 128,-1,72
 713 193 713 193 713 218 c 0,73,74
 713 254 713 254 701.5 276.5 c 128,-1,75
 690 299 690 299 667 299 c 0,76,77
 648 299 648 299 632.5 282.5 c 128,-1,78
 617 266 617 266 606 239.5 c 128,-1,79
 595 213 595 213 589.5 183 c 128,-1,80
 584 153 584 153 584 126 c 0,81,82
 584 90 584 90 595 67.5 c 128,-1,83
 606 45 606 45 628 45 c 0,68,69
626 -10 m 0,84,85
 581 -10 581 -10 552.5 25.5 c 128,-1,86
 524 61 524 61 524 128 c 0,87,88
 524 165 524 165 533.5 204 c 128,-1,89
 543 243 543 243 561.5 277.5 c 128,-1,90
 580 312 580 312 607.5 333 c 128,-1,91
 635 354 635 354 672 354 c 0,92,93
 719 354 719 354 750 318.5 c 128,-1,94
 781 283 781 283 781 216 c 0,95,96
 781 180 781 180 770.5 140.5 c 128,-1,97
 760 101 760 101 739.5 66.5 c 128,-1,98
 719 32 719 32 690.5 11 c 128,-1,99
 662 -10 662 -10 626 -10 c 0,84,85
EndSplineSet
Substitution2: "'tnum' Tabular Numbers in Latin lookup 19 subtable" perthousand.tf
Substitution2: "'aalt' Access All Alternates in Latin lookup 0 subtable" perthousand.tf
EndChar

StartChar: plus.tf
Encoding: 65678 -1 447
Width: 575
GlyphClass: 1
Flags: W
LayerCount: 2
Fore
SplineSet
229 153 m 1,0,-1
 330 590 l 1,1,-1
 401 590 l 1,2,-1
 300 153 l 1,3,-1
 229 153 l 1,0,-1
92 338 m 1,4,-1
 107 404 l 1,5,-1
 537 404 l 1,6,-1
 522 338 l 1,7,-1
 92 338 l 1,4,-1
EndSplineSet
Substitution2: "'pnum' Proportional Numbers in Latin lookup 18 subtable" plus
Substitution2: "'aalt' Access All Alternates in Latin lookup 0 subtable" plus
EndChar

StartChar: minus.tf
Encoding: 65679 -1 448
Width: 575
GlyphClass: 1
Flags: W
LayerCount: 2
Fore
SplineSet
92 338 m 1,0,-1
 107 404 l 1,1,-1
 537 404 l 1,2,-1
 522 338 l 1,3,-1
 92 338 l 1,0,-1
EndSplineSet
Substitution2: "'pnum' Proportional Numbers in Latin lookup 18 subtable" minus
Substitution2: "'aalt' Access All Alternates in Latin lookup 0 subtable" minus
EndChar

StartChar: multiply.tf
Encoding: 65680 -1 449
Width: 574
GlyphClass: 1
Flags: W
LayerCount: 2
Fore
SplineSet
432 175 m 1,0,-1
 140 528 l 1,1,-1
 196 568 l 1,2,-1
 488 216 l 1,3,-1
 432 175 l 1,0,-1
119 175 m 1,4,-1
 71 225 l 1,5,-1
 509 569 l 1,6,-1
 558 518 l 1,7,-1
 119 175 l 1,4,-1
EndSplineSet
Substitution2: "'pnum' Proportional Numbers in Latin lookup 18 subtable" multiply
Substitution2: "'aalt' Access All Alternates in Latin lookup 0 subtable" multiply
EndChar

StartChar: divide.tf
Encoding: 65681 -1 450
Width: 575
GlyphClass: 1
Flags: W
LayerCount: 2
Fore
SplineSet
92 338 m 1,0,-1
 107 404 l 1,1,-1
 537 404 l 1,2,-1
 522 338 l 1,3,-1
 92 338 l 1,0,-1
347 481 m 0,4,5
 324 481 324 481 310 495.5 c 128,-1,6
 296 510 296 510 296 532 c 0,7,8
 296 558 296 558 314.5 576.5 c 128,-1,9
 333 595 333 595 358 595 c 0,10,11
 380 595 380 595 394.5 580.5 c 128,-1,12
 409 566 409 566 409 544 c 0,13,14
 409 517 409 517 390.5 499 c 128,-1,15
 372 481 372 481 347 481 c 0,4,5
270 149 m 0,16,17
 248 149 248 149 233.5 163 c 128,-1,18
 219 177 219 177 219 199 c 0,19,20
 219 225 219 225 237.5 243.5 c 128,-1,21
 256 262 256 262 281 262 c 0,22,23
 303 262 303 262 318 247.5 c 128,-1,24
 333 233 333 233 333 211 c 0,25,26
 333 184 333 184 314.5 166.5 c 128,-1,27
 296 149 296 149 270 149 c 0,16,17
EndSplineSet
Substitution2: "'pnum' Proportional Numbers in Latin lookup 18 subtable" divide
Substitution2: "'aalt' Access All Alternates in Latin lookup 0 subtable" divide
EndChar

StartChar: equal.tf
Encoding: 65682 -1 451
Width: 575
GlyphClass: 1
Flags: W
LayerCount: 2
Fore
SplineSet
116 438 m 1,0,-1
 131 504 l 1,1,-1
 560 504 l 1,2,-1
 545 438 l 1,3,-1
 116 438 l 1,0,-1
70 238 m 1,4,-1
 85 304 l 1,5,-1
 513 304 l 1,6,-1
 499 238 l 1,7,-1
 70 238 l 1,4,-1
EndSplineSet
Substitution2: "'pnum' Proportional Numbers in Latin lookup 18 subtable" equal
Substitution2: "'aalt' Access All Alternates in Latin lookup 0 subtable" equal
EndChar

StartChar: greater.tf
Encoding: 65683 -1 452
Width: 575
GlyphClass: 1
Flags: W
LayerCount: 2
Fore
SplineSet
58 175 m 1,0,-1
 76 250 l 1,1,-1
 497 389 l 1,2,-1
 491 363 l 1,3,-1
 132 493 l 1,4,-1
 146 558 l 1,5,-1
 549 408 l 1,6,-1
 533 335 l 1,7,-1
 58 175 l 1,0,-1
EndSplineSet
Substitution2: "'pnum' Proportional Numbers in Latin lookup 18 subtable" greater
Substitution2: "'aalt' Access All Alternates in Latin lookup 0 subtable" greater
EndChar

StartChar: less.tf
Encoding: 65684 -1 453
Width: 575
GlyphClass: 1
Flags: W
LayerCount: 2
Fore
SplineSet
490 568 m 1,0,-1
 472 493 l 1,1,-1
 77 354 l 1,2,-1
 83 379 l 1,3,-1
 416 249 l 1,4,-1
 402 185 l 1,5,-1
 25 335 l 1,6,-1
 42 408 l 1,7,-1
 490 568 l 1,0,-1
EndSplineSet
Substitution2: "'pnum' Proportional Numbers in Latin lookup 18 subtable" less
Substitution2: "'aalt' Access All Alternates in Latin lookup 0 subtable" less
EndChar

StartChar: percent.tf
Encoding: 65685 -1 454
Width: 574
GlyphClass: 1
Flags: W
LayerCount: 2
Fore
SplineSet
-17 0 m 1,0,-1
 576 720 l 1,1,-1
 644 720 l 1,2,-1
 52 0 l 1,3,-1
 -17 0 l 1,0,-1
379 -9 m 0,4,5
 336 -9 336 -9 307.5 24 c 128,-1,6
 279 57 279 57 279 118 c 0,7,8
 279 152 279 152 289 191.5 c 128,-1,9
 299 231 299 231 318.5 267 c 128,-1,10
 338 303 338 303 366.5 326 c 128,-1,11
 395 349 395 349 434 349 c 0,12,13
 477 349 477 349 505 316.5 c 128,-1,14
 533 284 533 284 533 224 c 0,15,16
 533 191 533 191 523.5 150.5 c 128,-1,17
 514 110 514 110 494.5 73.5 c 128,-1,18
 475 37 475 37 445.5 14 c 128,-1,19
 416 -9 416 -9 379 -9 c 0,4,5
383 46 m 0,20,21
 404 46 404 46 420 66.5 c 128,-1,22
 436 87 436 87 447 117 c 128,-1,23
 458 147 458 147 463 177.5 c 128,-1,24
 468 208 468 208 468 228 c 0,25,26
 468 261 468 261 456.5 277.5 c 128,-1,27
 445 294 445 294 428 294 c 0,28,29
 407 294 407 294 391 273.5 c 128,-1,30
 375 253 375 253 364.5 222 c 128,-1,31
 354 191 354 191 349 160.5 c 128,-1,32
 344 130 344 130 344 109 c 0,33,34
 344 78 344 78 355 62 c 128,-1,35
 366 46 366 46 383 46 c 0,20,21
190 371 m 0,36,37
 147 371 147 371 119 404.5 c 128,-1,38
 91 438 91 438 91 499 c 0,39,40
 91 533 91 533 101 572.5 c 128,-1,41
 111 612 111 612 130.5 648 c 128,-1,42
 150 684 150 684 178.5 707 c 128,-1,43
 207 730 207 730 245 730 c 0,44,45
 288 730 288 730 316.5 697.5 c 128,-1,46
 345 665 345 665 345 605 c 0,47,48
 345 572 345 572 335 531.5 c 128,-1,49
 325 491 325 491 305.5 454.5 c 128,-1,50
 286 418 286 418 257 394.5 c 128,-1,51
 228 371 228 371 190 371 c 0,36,37
194 427 m 0,52,53
 216 427 216 427 232 447 c 128,-1,54
 248 467 248 467 259 497.5 c 128,-1,55
 270 528 270 528 275 558.5 c 128,-1,56
 280 589 280 589 280 609 c 0,57,58
 280 642 280 642 268.5 658.5 c 128,-1,59
 257 675 257 675 240 675 c 0,60,61
 218 675 218 675 202.5 654 c 128,-1,62
 187 633 187 633 176.5 602.5 c 128,-1,63
 166 572 166 572 161 541.5 c 128,-1,64
 156 511 156 511 156 490 c 0,65,66
 156 459 156 459 166.5 443 c 128,-1,67
 177 427 177 427 194 427 c 0,52,53
EndSplineSet
Substitution2: "'pnum' Proportional Numbers in Latin lookup 18 subtable" percent
Substitution2: "'aalt' Access All Alternates in Latin lookup 0 subtable" percent
EndChar

StartChar: perthousand.tf
Encoding: 65686 -1 455
Width: 575
GlyphClass: 1
Flags: W
LayerCount: 2
Fore
SplineSet
65 282 m 1,0,-1
 60 339 l 1,1,-1
 560 490 l 1,2,-1
 566 432 l 1,3,-1
 65 282 l 1,0,-1
203 -10 m 0,4,5
 169 -10 169 -10 141.5 18 c 128,-1,6
 114 46 114 46 114 105 c 0,7,8
 114 139 114 139 124.5 175.5 c 128,-1,9
 135 212 135 212 154.5 243.5 c 128,-1,10
 174 275 174 275 200 294 c 128,-1,11
 226 313 226 313 257 313 c 0,12,13
 292 313 292 313 318 285.5 c 128,-1,14
 344 258 344 258 344 198 c 0,15,16
 344 163 344 163 333.5 126.5 c 128,-1,17
 323 90 323 90 304 59 c 128,-1,18
 285 28 285 28 259.5 9 c 128,-1,19
 234 -10 234 -10 203 -10 c 0,4,5
206 44 m 0,20,21
 220 44 220 44 233 54 c 128,-1,22
 246 64 246 64 256 81 c 128,-1,23
 266 98 266 98 274 118.5 c 128,-1,24
 282 139 282 139 286 160 c 128,-1,25
 290 181 290 181 290 200 c 0,26,27
 290 228 290 228 280 243.5 c 128,-1,28
 270 259 270 259 253 259 c 0,29,30
 240 259 240 259 227.5 249 c 128,-1,31
 215 239 215 239 204.5 222 c 128,-1,32
 194 205 194 205 186.5 184 c 128,-1,33
 179 163 179 163 174.5 141.5 c 128,-1,34
 170 120 170 120 170 101 c 0,35,36
 170 73 170 73 179.5 58.5 c 128,-1,37
 189 44 189 44 206 44 c 0,20,21
372 -10 m 0,38,39
 338 -10 338 -10 312 18 c 128,-1,40
 286 46 286 46 286 105 c 0,41,42
 286 132 286 132 292.5 161 c 128,-1,43
 299 190 299 190 311 217.5 c 128,-1,44
 323 245 323 245 340.5 266 c 128,-1,45
 358 287 358 287 379.5 300 c 128,-1,46
 401 313 401 313 425 313 c 0,47,48
 460 313 460 313 487.5 285.5 c 128,-1,49
 515 258 515 258 515 198 c 0,50,51
 515 163 515 163 504.5 126.5 c 128,-1,52
 494 90 494 90 474.5 59 c 128,-1,53
 455 28 455 28 429 9 c 128,-1,54
 403 -10 403 -10 372 -10 c 0,38,39
375 44 m 0,55,56
 388 44 388 44 401 54 c 128,-1,57
 414 64 414 64 424.5 81 c 128,-1,58
 435 98 435 98 443 118.5 c 128,-1,59
 451 139 451 139 455 160 c 128,-1,60
 459 181 459 181 459 200 c 0,61,62
 459 228 459 228 449 243.5 c 128,-1,63
 439 259 439 259 422 259 c 0,64,65
 408 259 408 259 395.5 249 c 128,-1,66
 383 239 383 239 372.5 222 c 128,-1,67
 362 205 362 205 354.5 184 c 128,-1,68
 347 163 347 163 343 141.5 c 128,-1,69
 339 120 339 120 339 101 c 0,70,71
 339 73 339 73 348 58.5 c 128,-1,72
 357 44 357 44 375 44 c 0,55,56
198 408 m 0,73,74
 164 408 164 408 136.5 435.5 c 128,-1,75
 109 463 109 463 109 522 c 0,76,77
 109 557 109 557 119.5 593.5 c 128,-1,78
 130 630 130 630 149.5 661 c 128,-1,79
 169 692 169 692 195 711 c 128,-1,80
 221 730 221 730 252 730 c 0,81,82
 287 730 287 730 314.5 703 c 128,-1,83
 342 676 342 676 342 616 c 0,84,85
 342 581 342 581 331 544 c 128,-1,86
 320 507 320 507 300.5 476.5 c 128,-1,87
 281 446 281 446 255 427 c 128,-1,88
 229 408 229 408 198 408 c 0,73,74
201 461 m 0,89,90
 215 461 215 461 228 471 c 128,-1,91
 241 481 241 481 251 498 c 128,-1,92
 261 515 261 515 269 535.5 c 128,-1,93
 277 556 277 556 281 577.5 c 128,-1,94
 285 599 285 599 285 617 c 0,95,96
 285 646 285 646 275 661.5 c 128,-1,97
 265 677 265 677 248 677 c 0,98,99
 235 677 235 677 222.5 666.5 c 128,-1,100
 210 656 210 656 199.5 639 c 128,-1,101
 189 622 189 622 181.5 601 c 128,-1,102
 174 580 174 580 169.5 559 c 128,-1,103
 165 538 165 538 165 519 c 0,104,105
 165 491 165 491 174.5 476 c 128,-1,106
 184 461 184 461 201 461 c 0,89,90
EndSplineSet
Substitution2: "'pnum' Proportional Numbers in Latin lookup 18 subtable" perthousand
Substitution2: "'aalt' Access All Alternates in Latin lookup 0 subtable" perthousand
EndChar

StartChar: arrowup
Encoding: 8593 8593 456
Width: 802
GlyphClass: 1
Flags: W
LayerCount: 2
Fore
SplineSet
385 19 m 1,0,-1
 385 636 l 1,1,-1
 411 605 l 1,2,-1
 89 285 l 1,3,-1
 89 382 l 1,4,-1
 419 709 l 1,5,-1
 749 381 l 1,6,-1
 749 284 l 1,7,-1
 427 605 l 1,8,-1
 454 636 l 1,9,-1
 454 19 l 1,10,-1
 385 19 l 1,0,-1
EndSplineSet
EndChar

StartChar: uni2197
Encoding: 8599 8599 457
Width: 746
GlyphClass: 1
Flags: W
LayerCount: 2
Fore
SplineSet
146 144 m 1,0,-1
 583 580 l 1,1,-1
 580 539 l 1,2,-1
 126 541 l 1,3,-1
 194 609 l 1,4,-1
 659 607 l 1,5,-1
 660 142 l 1,6,-1
 592 73 l 1,7,-1
 591 528 l 1,8,-1
 632 531 l 1,9,-1
 195 95 l 1,10,-1
 146 144 l 1,0,-1
EndSplineSet
EndChar

StartChar: arrowright
Encoding: 8594 8594 458
Width: 819
GlyphClass: 1
Flags: W
LayerCount: 2
Fore
SplineSet
86 366 m 1,0,-1
 703 366 l 1,1,-1
 672 339 l 1,2,-1
 352 661 l 1,3,-1
 449 661 l 1,4,-1
 776 331 l 1,5,-1
 448 1 l 1,6,-1
 351 1 l 1,7,-1
 672 323 l 1,8,-1
 703 297 l 1,9,-1
 86 297 l 1,10,-1
 86 366 l 1,0,-1
EndSplineSet
EndChar

StartChar: uni2198
Encoding: 8600 8600 459
Width: 746
GlyphClass: 1
Flags: W
LayerCount: 2
Fore
SplineSet
181 584 m 1,0,-1
 617 147 l 1,1,-1
 576 150 l 1,2,-1
 578 604 l 1,3,-1
 646 537 l 1,4,-1
 644 72 l 1,5,-1
 179 71 l 1,6,-1
 110 138 l 1,7,-1
 565 139 l 1,8,-1
 568 99 l 1,9,-1
 132 535 l 1,10,-1
 181 584 l 1,0,-1
EndSplineSet
EndChar

StartChar: arrowdown
Encoding: 8595 8595 460
Width: 802
GlyphClass: 1
Flags: W
LayerCount: 2
Fore
SplineSet
397 701 m 1,0,-1
 466 701 l 1,1,-1
 466 84 l 1,2,-1
 439 115 l 1,3,-1
 761 436 l 1,4,-1
 761 339 l 1,5,-1
 431 11 l 1,6,-1
 101 339 l 1,7,-1
 101 435 l 1,8,-1
 423 115 l 1,9,-1
 397 84 l 1,10,-1
 397 701 l 1,0,-1
EndSplineSet
EndChar

StartChar: uni2199
Encoding: 8601 8601 461
Width: 746
GlyphClass: 1
Flags: W
LayerCount: 2
Fore
SplineSet
649 576 m 1,0,-1
 212 140 l 1,1,-1
 215 181 l 1,2,-1
 669 179 l 1,3,-1
 601 112 l 1,4,-1
 136 114 l 1,5,-1
 135 579 l 1,6,-1
 203 647 l 1,7,-1
 204 192 l 1,8,-1
 163 189 l 1,9,-1
 600 625 l 1,10,-1
 649 576 l 1,0,-1
EndSplineSet
EndChar

StartChar: arrowleft
Encoding: 8592 8592 462
Width: 818
GlyphClass: 1
Flags: W
LayerCount: 2
Fore
SplineSet
781 355 m 1,0,-1
 164 355 l 1,1,-1
 195 381 l 1,2,-1
 515 59 l 1,3,-1
 418 59 l 1,4,-1
 91 389 l 1,5,-1
 419 719 l 1,6,-1
 515 719 l 1,7,-1
 195 397 l 1,8,-1
 164 424 l 1,9,-1
 781 424 l 1,10,-1
 781 355 l 1,0,-1
EndSplineSet
EndChar

StartChar: uni2196
Encoding: 8598 8598 463
Width: 745
GlyphClass: 1
Flags: W
LayerCount: 2
Fore
SplineSet
614 136 m 1,0,-1
 178 573 l 1,1,-1
 218 570 l 1,2,-1
 217 116 l 1,3,-1
 149 183 l 1,4,-1
 151 649 l 1,5,-1
 616 650 l 1,6,-1
 684 582 l 1,7,-1
 230 581 l 1,8,-1
 227 622 l 1,9,-1
 663 185 l 1,10,-1
 614 136 l 1,0,-1
EndSplineSet
EndChar

StartChar: arrowboth
Encoding: 8596 8596 464
Width: 1013
GlyphClass: 1
Flags: W
LayerCount: 2
Fore
SplineSet
412 30 m 1,0,-1
 84 360 l 1,1,-1
 411 690 l 1,2,-1
 508 690 l 1,3,-1
 214 395 l 1,4,-1
 846 395 l 1,5,-1
 553 690 l 1,6,-1
 649 690 l 1,7,-1
 977 360 l 1,8,-1
 649 30 l 1,9,-1
 552 30 l 1,10,-1
 846 326 l 1,11,-1
 214 326 l 1,12,-1
 509 30 l 1,13,-1
 412 30 l 1,0,-1
EndSplineSet
EndChar

StartChar: arrowupdn
Encoding: 8597 8597 465
Width: 835
GlyphClass: 1
Flags: W
LayerCount: 2
Fore
SplineSet
442 -86 m 1,0,-1
 112 241 l 1,1,-1
 112 338 l 1,2,-1
 408 44 l 1,3,-1
 408 676 l 1,4,-1
 112 383 l 1,5,-1
 112 479 l 1,6,-1
 442 806 l 1,7,-1
 772 478 l 1,8,-1
 772 382 l 1,9,-1
 477 676 l 1,10,-1
 477 44 l 1,11,-1
 772 338 l 1,12,-1
 772 242 l 1,13,-1
 442 -86 l 1,0,-1
EndSplineSet
EndChar

StartChar: uni0308
Encoding: 776 776 466
Width: 0
GlyphClass: 4
Flags: W
AnchorPoint: "Anchor-7" 322 720 basemark 0
AnchorPoint: "Anchor-7" 274 510 mark 0
AnchorPoint: "Anchor-4" 274 510 mark 0
AnchorPoint: "Anchor-0" 274 510 mark 0
LayerCount: 2
Fore
SplineSet
365 628 m 1,0,-1
 386 720 l 1,1,-1
 476 720 l 1,2,-1
 455 628 l 1,3,-1
 365 628 l 1,0,-1
146 628 m 1,4,-1
 167 720 l 1,5,-1
 257 720 l 1,6,-1
 236 628 l 1,7,-1
 146 628 l 1,4,-1
EndSplineSet
Substitution2: "'ss01' Style Set 1 in Latin lookup 22 subtable" uni0308.ss01
Substitution2: "'aalt' Access All Alternates in Latin lookup 0 subtable" uni0308.ss01
EndChar

StartChar: uni0307
Encoding: 775 775 467
Width: 0
GlyphClass: 4
Flags: W
AnchorPoint: "Anchor-7" 212 720 basemark 0
AnchorPoint: "Anchor-7" 168 510 mark 0
AnchorPoint: "Anchor-4" 168 510 mark 0
AnchorPoint: "Anchor-0" 168 510 mark 0
LayerCount: 2
Fore
SplineSet
148 628 m 1,0,-1
 167 720 l 1,1,-1
 257 720 l 1,2,-1
 237 628 l 1,3,-1
 148 628 l 1,0,-1
EndSplineSet
Substitution2: "'ss01' Style Set 1 in Latin lookup 22 subtable" uni0307.ss01
Substitution2: "'aalt' Access All Alternates in Latin lookup 0 subtable" uni0307.ss01
EndChar

StartChar: gravecomb
Encoding: 768 768 468
Width: 0
GlyphClass: 4
Flags: W
AnchorPoint: "Anchor-7" 317 740 basemark 0
AnchorPoint: "Anchor-7" 264 510 mark 0
AnchorPoint: "Anchor-4" 264 510 mark 0
AnchorPoint: "Anchor-0" 264 510 mark 0
LayerCount: 2
Fore
SplineSet
296 583 m 1,0,-1
 172 740 l 1,1,-1
 277 740 l 1,2,-1
 358 583 l 1,3,-1
 296 583 l 1,0,-1
EndSplineSet
EndChar

StartChar: acutecomb
Encoding: 769 769 469
Width: 0
GlyphClass: 4
Flags: W
AnchorPoint: "Anchor-7" 249 740 basemark 0
AnchorPoint: "Anchor-7" 196 510 mark 0
AnchorPoint: "Anchor-4" 196 510 mark 0
AnchorPoint: "Anchor-0" 196 510 mark 0
LayerCount: 2
Fore
SplineSet
207 583 m 1,0,-1
 136 583 l 1,1,-1
 270 740 l 1,2,-1
 394 740 l 1,3,-1
 207 583 l 1,0,-1
EndSplineSet
EndChar

StartChar: uni030B
Encoding: 779 779 470
Width: 0
GlyphClass: 4
Flags: W
AnchorPoint: "Anchor-7" 313 740 basemark 0
AnchorPoint: "Anchor-7" 260 510 mark 0
AnchorPoint: "Anchor-4" 260 510 mark 0
AnchorPoint: "Anchor-0" 260 510 mark 0
LayerCount: 2
Fore
SplineSet
198 583 m 1,0,-1
 136 583 l 1,1,-1
 218 740 l 1,2,-1
 320 740 l 1,3,-1
 198 583 l 1,0,-1
386 583 m 1,4,-1
 324 583 l 1,5,-1
 406 740 l 1,6,-1
 508 740 l 1,7,-1
 386 583 l 1,4,-1
EndSplineSet
EndChar

StartChar: uni030C.alt
Encoding: 65687 -1 471
Width: 0
GlyphClass: 4
Flags: W
AnchorPoint: "Anchor-1" 167 720 mark 0
LayerCount: 2
Fore
SplineSet
165 503 m 1,0,-1
 117 503 l 1,1,-1
 167 720 l 1,2,-1
 241 720 l 1,3,-1
 165 503 l 1,0,-1
EndSplineSet
EndChar

StartChar: uni0302
Encoding: 770 770 472
Width: 0
GlyphClass: 4
Flags: W
AnchorPoint: "Anchor-7" 348 740 basemark 0
AnchorPoint: "Anchor-7" 295 510 mark 0
AnchorPoint: "Anchor-4" 295 510 mark 0
AnchorPoint: "Anchor-0" 295 510 mark 0
LayerCount: 2
Fore
SplineSet
136 583 m 1,0,-1
 307 740 l 1,1,-1
 388 740 l 1,2,-1
 486 583 l 1,3,-1
 427 583 l 1,4,-1
 313 720 l 1,5,-1
 387 720 l 1,6,-1
 211 583 l 1,7,-1
 136 583 l 1,0,-1
EndSplineSet
EndChar

StartChar: uni030C
Encoding: 780 780 473
Width: 0
GlyphClass: 4
Flags: W
AnchorPoint: "Anchor-7" 347 740 basemark 0
AnchorPoint: "Anchor-7" 294 510 mark 0
AnchorPoint: "Anchor-4" 294 510 mark 0
AnchorPoint: "Anchor-0" 294 510 mark 0
LayerCount: 2
Fore
SplineSet
271 583 m 1,0,-1
 172 740 l 1,1,-1
 232 740 l 1,2,-1
 346 603 l 1,3,-1
 271 603 l 1,4,-1
 447 740 l 1,5,-1
 522 740 l 1,6,-1
 352 583 l 1,7,-1
 271 583 l 1,0,-1
EndSplineSet
EndChar

StartChar: uni0306
Encoding: 774 774 474
Width: 0
GlyphClass: 4
Flags: W
AnchorPoint: "Anchor-7" 329 740 basemark 0
AnchorPoint: "Anchor-7" 276 510 mark 0
AnchorPoint: "Anchor-4" 276 510 mark 0
AnchorPoint: "Anchor-0" 276 510 mark 0
LayerCount: 2
Fore
SplineSet
310 578 m 0,0,1
 271 578 271 578 241.5 591.5 c 128,-1,2
 212 605 212 605 193.5 628.5 c 128,-1,3
 175 652 175 652 169.5 681 c 128,-1,4
 164 710 164 710 172 740 c 1,5,-1
 230 740 l 1,6,7
 222 715 222 715 230 692.5 c 128,-1,8
 238 670 238 670 260 656 c 128,-1,9
 282 642 282 642 317 642 c 0,10,11
 361 642 361 642 389.5 666.5 c 128,-1,12
 418 691 418 691 427 740 c 1,13,-1
 486 740 l 1,14,15
 471 661 471 661 423.5 619.5 c 128,-1,16
 376 578 376 578 310 578 c 0,0,1
EndSplineSet
EndChar

StartChar: uni030A
Encoding: 778 778 475
Width: 0
GlyphClass: 4
Flags: W
AnchorPoint: "Anchor-7" 289 776 basemark 0
AnchorPoint: "Anchor-7" 228 510 mark 0
AnchorPoint: "Anchor-4" 228 510 mark 0
AnchorPoint: "Anchor-0" 228 510 mark 0
LayerCount: 2
Fore
SplineSet
253 561 m 0,0,1
 212 561 212 561 184 588.5 c 128,-1,2
 156 616 156 616 156 657 c 0,3,4
 156 690 156 690 172 717 c 128,-1,5
 188 744 188 744 214.5 760 c 128,-1,6
 241 776 241 776 272 776 c 0,7,8
 314 776 314 776 342 748.5 c 128,-1,9
 370 721 370 721 370 680 c 0,10,11
 370 649 370 649 353.5 621.5 c 128,-1,12
 337 594 337 594 310.5 577.5 c 128,-1,13
 284 561 284 561 253 561 c 0,0,1
256 609 m 0,14,15
 283 609 283 609 302 629 c 128,-1,16
 321 649 321 649 321 676 c 0,17,18
 321 699 321 699 306 714 c 128,-1,19
 291 729 291 729 269 729 c 0,20,21
 244 729 244 729 225 709.5 c 128,-1,22
 206 690 206 690 206 663 c 0,23,24
 206 640 206 640 220.5 624.5 c 128,-1,25
 235 609 235 609 256 609 c 0,14,15
EndSplineSet
EndChar

StartChar: tildecomb
Encoding: 771 771 476
Width: 0
GlyphClass: 4
Flags: W
AnchorPoint: "Anchor-7" 346 722 basemark 0
AnchorPoint: "Anchor-7" 297 510 mark 0
AnchorPoint: "Anchor-4" 297 510 mark 0
AnchorPoint: "Anchor-0" 297 510 mark 0
LayerCount: 2
Fore
SplineSet
402 595 m 0,0,1
 375 595 375 595 355 605.5 c 128,-1,2
 335 616 335 616 318 629.5 c 128,-1,3
 301 643 301 643 285 653.5 c 128,-1,4
 269 664 269 664 251 664 c 0,5,6
 230 664 230 664 216.5 650 c 128,-1,7
 203 636 203 636 195 605 c 1,8,-1
 141 605 l 1,9,10
 147 640 147 640 163.5 666.5 c 128,-1,11
 180 693 180 693 205.5 707.5 c 128,-1,12
 231 722 231 722 262 722 c 0,13,14
 291 722 291 722 310.5 711.5 c 128,-1,15
 330 701 330 701 345.5 687.5 c 128,-1,16
 361 674 361 674 376.5 663.5 c 128,-1,17
 392 653 392 653 412 653 c 0,18,19
 433 653 433 653 446.5 667 c 128,-1,20
 460 681 460 681 467 712 c 1,21,-1
 521 712 l 1,22,23
 511 657 511 657 478.5 626 c 128,-1,24
 446 595 446 595 402 595 c 0,0,1
EndSplineSet
EndChar

StartChar: uni0304
Encoding: 772 772 477
Width: 0
GlyphClass: 4
Flags: W
AnchorPoint: "Anchor-7" 326 699 basemark 0
AnchorPoint: "Anchor-7" 283 510 mark 0
AnchorPoint: "Anchor-4" 283 510 mark 0
AnchorPoint: "Anchor-0" 283 510 mark 0
LayerCount: 2
Fore
SplineSet
150 643 m 1,0,-1
 163 699 l 1,1,-1
 489 699 l 1,2,-1
 476 643 l 1,3,-1
 150 643 l 1,0,-1
EndSplineSet
EndChar

